<?xml version="1.0" standalone="no"?>
<!DOCTYPE svg PUBLIC "-//W3C//DTD SVG 20010904//EN"
 "http://www.w3.org/TR/2001/REC-SVG-20010904/DTD/svg10.dtd">
<svg version="1.0" xmlns="http://www.w3.org/2000/svg"
 width="528.000000pt" height="528.000000pt" viewBox="0 0 528.000000 528.000000"
 preserveAspectRatio="xMidYMid meet">
<metadata>
Created by potrace 1.14, written by Peter Selinger 2001-2017
</metadata>
<g transform="translate(0.000000,528.000000) scale(0.100000,-0.100000)"
fill="#000000" stroke="none">
<path d="M1502 4618 l-1142 -660 2 -566 3 -565 1460 -843 c803 -464 1461 -847
1462 -851 4 -12 -618 -368 -642 -368 -11 0 -526 293 -1144 650 -619 358 -1128
652 -1133 653 -4 2 -8 -165 -8 -371 l0 -375 1141 -658 c628 -363 1145 -658
1148 -657 3 1 517 296 1141 657 l1135 655 0 567 0 568 -890 514 c-490 282
-1148 662 -1462 844 -315 182 -573 333 -573 337 0 3 145 89 321 190 281 161
323 182 343 173 13 -5 301 -171 642 -368 340 -196 844 -487 1119 -646 l500
-288 3 372 c1 204 -1 375 -5 379 -5 4 -505 293 -1113 644 -608 350 -1118 645
-1135 655 l-30 18 -1143 -660z m1310 -1695 l1468 -848 -2 -190 -3 -190 -162
-93 -163 -94 -1470 849 -1470 848 3 190 2 189 160 93 c88 51 162 93 164 93 2
0 665 -381 1473 -847z"/>
</g>
</svg>
