<?xml version="1.0" standalone="no"?>
<!DOCTYPE svg PUBLIC "-//W3C//DTD SVG 1.1//EN" "http://www.w3.org/Graphics/SVG/1.1/DTD/svg11.dtd" >
<svg xmlns="http://www.w3.org/2000/svg" xmlns:xlink="http://www.w3.org/1999/xlink" version="1.1">
<metadata>
Created by FontForge 20170731 at Sat Jun 30 23:14:10 2018
 By Aleksey,,,
Copyright (c) 2003 by Bitstream, Inc. All Rights Reserved.
DejaVu changes are in public domain
Copyright (c) 2015 by Saber Rastikerdar. All Rights Reserved.
Non-Arabic(Latin) glyphs and data are imported from Roboto font under the Apache License, Version 2.0.
</metadata>
<defs>
<font id="Shabnam-FD" horiz-adv-x="0" >
  <font-face 
    font-family="Shabnam FD"
    font-weight="400"
    font-stretch="normal"
    units-per-em="2048"
    panose-1="2 11 6 3 3 8 4 2 2 4"
    ascent="1638"
    descent="-410"
    x-height="1082"
    cap-height="1456"
    bbox="-985 -860 3078 2195"
    underline-thickness="100"
    underline-position="-700"
    unicode-range="U+0002-FFFD"
  />
<missing-glyph horiz-adv-x="507" 
 />
    <glyph glyph-name="uni0622" unicode="&#x627;&#x653;" horiz-adv-x="527" 
d="M204 1137.52h166v-1133.67h-166v1133.67zM177 1481h381l2 -158h-373q-102 0 -154 -67l-14 -19l-98 112l9 13q78 119 247 119z" />
    <glyph glyph-name="uni0623" unicode="&#x627;&#x654;" horiz-adv-x="469" 
d="M174 1137.52h166v-1133.67h-166v1133.67zM15 1347l107 25l5 1l-4 2q-76 47 -76 147q0 119 100 175q26 15 56.5 22.5t64.5 7.5q79 0 140 -38v-110q-48 26 -115 26q-118 -1 -119 -89q0 -10 2 -20t5.5 -18.5t9 -16t13 -14.5t16.5 -12.5t20 -10.5t24 -9h1l170 28v-117
l-420 -94v115z" />
    <glyph glyph-name="afii57412" unicode="&#x648;&#x654;" horiz-adv-x="877" 
d="M212 932l107 25l5 1l-4 2q-76 47 -76 147q0 119 100 175q26 15 56.5 22.5t64.5 7.5q79 0 140 -38v-110q-48 26 -115 26q-118 -1 -119 -89q0 -10 2 -20t5.5 -18.5t9 -16t13 -14.5t16.5 -12.5t20 -10.5t24 -9h1l170 28v-117l-420 -94v115zM783 355v-357q0 -459 -568 -458
h-74v179h68q403 -1 404 279v2h-2h-160q-349 0 -348 342q1 184 88 282q91 97 259 101q149 0 238 -86q95 -92 95 -284zM270 343q0 -162 180 -162h162h2v2l-1 166q0 205 -167 204q-176 0 -176 -210z" />
    <glyph glyph-name="uni0625" unicode="&#x627;&#x655;" horiz-adv-x="469" 
d="M21 -503l107 25l5 1l-4 2q-76 47 -76 147q0 119 100 175q26 15 56.5 22.5t64.5 7.5q79 0 140 -38v-110q-48 26 -115 26q-118 -1 -119 -89q0 -10 2 -20t5.5 -18.5t9 -16t13 -14.5t16.5 -12.5t20 -10.5t24 -9h1l170 28v-117l-420 -94v115zM160 1334h166v-1333h-166v1333z
" />
    <glyph glyph-name="afii57414" unicode="&#x64a;&#x654;" horiz-adv-x="1446" 
d="M288 868l107 25l5 1l-4 2q-76 47 -76 147q0 119 100 175q26 15 56.5 22.5t64.5 7.5q79 0 140 -38v-110q-48 26 -115 26q-118 -1 -119 -89q0 -10 2 -20t5.5 -18.5t9 -16t13 -14.5t16.5 -12.5t20 -10.5t24 -9h1l170 28v-117l-420 -94v115zM1061 229q282 0 282 -220v-29
q0 -429 -568 -429h-84q-588 0 -589 553v411h175v-410q0 -373 416 -373h91q387 0 387 230v12q0 81 -111 81h-161q-171 0 -171 165v65q0 236 105 353.5t316 117.5h194l1 -185h-237q-199 0 -204 -279l-2 -61v-2h2h158z" />
    <glyph glyph-name="fi" unicode="fi" horiz-adv-x="1134" 
d="M202 0v939h-171v143h171v94q0 92 27.5 163t78.5 119.5t124.5 73.5t165.5 25q73 0 141.5 -17.5t141.5 -43.5l-31 -156q-45 18 -105.5 34t-132.5 16q-119 0 -171.5 -53.5t-52.5 -160.5v-94h221v-143h-221v-939h-186zM973 0h-186v1082h186v-1082z" />
    <glyph glyph-name="uniFDF2" unicode="&#x627;&#xfedf;&#xfee0;&#xfeea;" horiz-adv-x="2852" arabic-form="isolated" 
d="M1794 0h-46q-166 0 -286 139l-2 2l-1 -2q-108 -139 -280 -139h-95q-53 0 -53 86v11q0 42 13 63q14 20 40 20h93q203 0 203 257v687h166v-688q0 -127 53 -192q53 -64 159 -64h36q23 0 23 -83v-11q0 -86 -23 -86zM1794 0q-53 0 -53 86v11q0 42 13 63q14 20 40 20h102
q194 0 194 191v963h167v-967q0 -367 -362 -367h-101zM1403 1566v369h82v-369h-82zM1332 1195q-134 0 -135 151v119h67l1 -120q0 -66 67 -67q75 0 76 98l2 132h66l2 -124q1 -67 80 -67q62 0 63 100l2 131h70l-1 -130q-3 -182 -133 -182q-38 0 -64.5 11.5t-42.5 33.5l-2 4
l-1 -5q-22 -85 -117 -85zM1090 0h-46q-247 0 -311 187q-105 -19 -231 -19q-407 -1 -407 269q0 316 503 394l-13 65l169 32l98 -560q33 -188 203 -188h35q25 0 25 -81v-11q0 -88 -25 -88zM689 360l-55 296q-372 -47 -372 -206q0 -108 227 -107q107 0 200 17zM2523 1334h166
v-1333h-166v1333z" />
    <glyph glyph-name="uniFE70" unicode="&#x20;&#x64b;" horiz-adv-x="642" arabic-form="isolated" 
d="M110 1053v97l392 160v-97zM110 1260v97l392 160v-97z" />
    <glyph glyph-name="uniFE72" unicode="&#x20;&#x64c;" horiz-adv-x="642" arabic-form="isolated" 
d="M420 1471l8 20q5 10 7 21t2 22q0 35 -19 51q-18 15 -40 15q-23 0 -36 -10q-10 -8 -15 -19.5t-5 -25.5q0 -40 46 -59q9 -3 19 -6.5t21 -7.5l9 -3h2zM337 1323q17 16 30 33.5t23 36.5l6 12l1 2l-3 1l-13 3q-9 1 -17 3.5t-14.5 5.5t-13.5 6q-17 10 -30.5 20t-24 21.5
t-17.5 23.5t-10.5 25.5t-3.5 28.5q0 68 55 109q20 15 70 15q57 0 88 -30q43 -42 43 -105q0 -31 -9 -62l-4 -13l-1 -2h2l14 -1q16 -1 28 -1h21v-70q-16 0 -26.5 0.5t-17.5 1.5l-52 5h-1l-1 -1l-3 -7q-21 -51 -84 -116q-34 -35 -70.5 -52.5t-73.5 -17.5q-106 0 -134 124
q-2 9 -4 19.5t-3.5 21.5t-2.5 23t-1.5 25t-0.5 26h52q0 -22 1.5 -39.5t4 -32t5.5 -26.5q23 -72 83 -71q26 0 53.5 13.5t55.5 41.5z" />
    <glyph glyph-name="uniFE74" unicode="&#x20;&#x64d;" horiz-adv-x="642" arabic-form="isolated" 
d="M115 -437v97l392 160v-97zM115 -230v97l392 160v-97z" />
    <glyph glyph-name="uniFE76" unicode="&#x20;&#x64e;" horiz-adv-x="642" arabic-form="isolated" 
d="M81 1285v97l392 160v-97z" />
    <glyph glyph-name="uniFE78" unicode="&#x20;&#x64f;" horiz-adv-x="642" arabic-form="isolated" 
d="M338 1441q-86 36 -86 118q0 68 54 109q21 15 70 15q58 0 89 -30q43 -42 43 -105q0 -25 -12 -62l-3 -12l-1 -3h2l14 -1q14 -1 30 -1q9 0 20 -1v-69q-11 0 -22 0.5t-22 1.5q-25 1 -49 4l-6 1h-1l-1 -1l-3 -5q-12 -17 -26 -32t-31 -28t-36 -25q-159 -98 -278 -103v69
q128 5 245 96q20 16 37 34l13 13l2 3h-3q-17 4 -39 14zM421 1484l9 21q9 20 9 43q0 18 -5 30.5t-15 20.5q-18 15 -39 15q-24 0 -37 -10q-20 -16 -20 -45q0 -40 46 -59q18 -7 41 -14l9 -3h1z" />
    <glyph glyph-name="uniFE7A" unicode="&#x20;&#x650;" horiz-adv-x="642" arabic-form="isolated" 
d="M125 -309v97l392 160v-97z" />
    <glyph glyph-name="uniFE7C" unicode="&#x20;&#x651;" horiz-adv-x="642" arabic-form="isolated" 
d="M210 1334q-134 0 -135 151v119h67l1 -120q0 -66 67 -67q75 0 76 98l2 132h66l2 -124q1 -67 80 -67q62 0 63 100l2 131h70l-1 -130q-3 -182 -133 -182q-38 0 -64.5 11.5t-42.5 33.5l-2 4l-1 -5q-22 -85 -117 -85z" />
    <glyph glyph-name="uniFE7E" unicode="&#x20;&#x652;" horiz-adv-x="642" arabic-form="isolated" 
d="M438 1382q0 42 -28.5 70.5t-70.5 28.5q-6 0 -12 -0.5t-11.5 -1.5t-10.5 -3l-10 -4q-2 -1 -4.5 -2.5t-5.5 -2.5q-4 -3 -8.5 -6.5t-8.5 -7.5q-14 -15 -21 -32q-4 -9 -5.5 -18.5t-1.5 -20.5q0 -42 28.5 -70.5t70.5 -28.5q21 0 38 7l4 2l4 2l4 2t3.5 2t3.5 2.5t3.5 2.5
t3.5 2.5t3.5 3l3.5 3.5q14 14 21 32q4 9 5.5 18.5t1.5 19.5zM516 1382q0 -74 -51 -125q-26 -26 -57.5 -39t-68.5 -13q-9 0 -18 1t-17.5 2.5t-16.5 3.5q-3 1 -5.5 2t-5.5 2t-5 2q-8 3 -15.5 7t-14.5 9t-14 10.5t-13 12.5q-26 25 -38.5 56.5t-12.5 68.5q0 13 1 25q0 2 0.5 5
l1 6t1.5 6t1 5q2 6 3.5 11.5t3.5 10.5q5 10 10.5 20t12.5 19t16 18q51 51 125 51q15 0 29 -2t27 -6t25 -10.5t23 -14.5t22 -18q25 -26 38 -57q3 -8 5.5 -16t4 -16.5t2.5 -17.5t1 -19z" />
    <glyph glyph-name="uniFEF5" unicode="&#xfedf;&#xfe82;" horiz-adv-x="1133" arabic-form="isolated" 
d="M172 1580h381l2 -158h-373q-102 0 -154 -67l-14 -19l-98 112l9 13q78 119 247 119zM159 1285h166v-1004h-166v1004zM1002 392q0 -392 -382 -392h-462v180h469q208 0 208 230v924h167v-942z" />
    <glyph glyph-name="uniFEF6" unicode="&#xfee0;&#xfe82;" horiz-adv-x="1243" arabic-form="final" 
d="M1248 0h-25q-196 0 -306 140l-2 2l-1 -2q-108 -140 -277 -140h-479v180h462q215 0 215 284v871h166v-872q0 -283 224 -283h23q23 0 23 -83v-11q0 -43 -6 -65q-6 -21 -17 -21zM159 1285h166v-1004h-166v1004zM172 1580h381l2 -158h-373q-102 0 -154 -67l-14 -19l-98 112
l9 13q78 119 247 119z" />
    <glyph glyph-name="uniFEF7" unicode="&#xfedf;&#xfe84;" horiz-adv-x="1133" arabic-form="isolated" 
d="M17 1445l107 25l5 1l-4 2q-76 47 -76 147q0 119 100 175q26 15 56.5 22.5t64.5 7.5q79 0 140 -38v-110q-48 26 -115 26q-118 -1 -119 -89q0 -10 2 -20t5.5 -18.5t9 -16t13 -14.5t16.5 -12.5t20 -10.5t24 -9h1l170 28v-117l-420 -94v115zM159 1285h166v-1004h-166v1004z
M1002 392q0 -392 -382 -392h-462v180h469q208 0 208 230v924h167v-942z" />
    <glyph glyph-name="uniFEF8" unicode="&#xfee0;&#xfe84;" horiz-adv-x="1243" arabic-form="final" 
d="M1248 0h-25q-196 0 -306 140l-2 2l-1 -2q-108 -140 -277 -140h-479v180h462q215 0 215 284v871h166v-872q0 -283 224 -283h23q23 0 23 -83v-11q0 -43 -6 -65q-6 -21 -17 -21zM159 1285h166v-1004h-166v1004zM17 1445l107 25l5 1l-4 2q-76 47 -76 147q0 119 100 175
q26 15 56.5 22.5t64.5 7.5q79 0 140 -38v-110q-48 26 -115 26q-118 -1 -119 -89q0 -10 2 -20t5.5 -18.5t9 -16t13 -14.5t16.5 -12.5t20 -10.5t24 -9h1l170 28v-117l-420 -94v115z" />
    <glyph glyph-name="uniFEF9" unicode="&#xfedf;&#xfe88;" horiz-adv-x="1133" arabic-form="isolated" 
d="M159 1285h166v-1004h-166v1004zM1002 392q0 -392 -382 -392h-462v180h469q208 0 208 230v924h167v-942zM42 -479l107 25l5 1l-4 2q-76 47 -76 147q0 119 100 175q26 15 56.5 22.5t64.5 7.5q79 0 140 -38v-110q-48 26 -115 26q-118 -1 -119 -89q0 -10 2 -20t5.5 -18.5
t9 -16t13 -14.5t16.5 -12.5t20 -10.5t24 -9h1l170 28v-117l-420 -94v115z" />
    <glyph glyph-name="uniFEFA" unicode="&#xfee0;&#xfe88;" horiz-adv-x="1243" arabic-form="final" 
d="M42 -479l107 25l5 1l-4 2q-76 47 -76 147q0 119 100 175q26 15 56.5 22.5t64.5 7.5q79 0 140 -38v-110q-48 26 -115 26q-118 -1 -119 -89q0 -10 2 -20t5.5 -18.5t9 -16t13 -14.5t16.5 -12.5t20 -10.5t24 -9h1l170 28v-117l-420 -94v115zM1248 0h-25q-196 0 -306 140l-2 2
l-1 -2q-108 -140 -277 -140h-479v180h462q215 0 215 284v871h166v-872q0 -283 224 -283h23q23 0 23 -83v-11q0 -43 -6 -65q-6 -21 -17 -21zM159 1285h166v-1004h-166v1004z" />
    <glyph glyph-name="uniFEFB" unicode="&#xfedf;&#xfe8e;" horiz-adv-x="1133" arabic-form="isolated" 
d="M159 1285h166v-1004h-166v1004zM1002 392q0 -392 -382 -392h-462v180h469q208 0 208 230v924h167v-942z" />
    <glyph glyph-name="uniFEFC" unicode="&#xfee0;&#xfe8e;" horiz-adv-x="1243" arabic-form="final" 
d="M1248 0h-25q-196 0 -306 140l-2 2l-1 -2q-108 -140 -277 -140h-479v180h462q215 0 215 284v871h166v-872q0 -283 224 -283h23q23 0 23 -83v-11q0 -43 -6 -65q-6 -21 -17 -21zM159 1285h166v-1004h-166v1004z" />
    <glyph glyph-name="uni0651064B" unicode="&#x64b;&#x651;" 
d="M367 1078v97l392 160v-97zM367 1285v97l392 160v-97zM467 707q-134 0 -135 151v119h67l1 -120q0 -66 67 -67q75 0 76 98l2 132h66l2 -124q1 -67 80 -67q62 0 63 100l2 131h70l-1 -130q-3 -182 -133 -182q-38 0 -64.5 11.5t-42.5 33.5l-2 4l-1 -5q-22 -85 -117 -85z" />
    <glyph glyph-name="uni0651064C" unicode="&#x64c;&#x651;" 
d="M666 1412l8 20q5 10 7 21t2 22q0 35 -19 51q-18 15 -40 15q-23 0 -36 -10q-10 -8 -15 -19.5t-5 -25.5q0 -40 46 -59q9 -3 19 -6.5t21 -7.5l9 -3h2zM583 1264q17 16 30 33.5t23 36.5l6 12l1 2l-3 1l-13 3q-9 1 -17 3.5t-14.5 5.5t-13.5 6q-17 10 -30.5 20t-24 21.5
t-17.5 23.5t-10.5 25.5t-3.5 28.5q0 68 55 109q20 15 70 15q57 0 88 -30q43 -42 43 -105q0 -31 -9 -62l-4 -13l-1 -2h2l14 -1q16 -1 28 -1h21v-70q-16 0 -26.5 0.5t-17.5 1.5l-52 5h-1l-1 -1l-3 -7q-21 -51 -84 -116q-34 -35 -70.5 -52.5t-73.5 -17.5q-106 0 -134 124
q-2 9 -4 19.5t-3.5 21.5t-2.5 23t-1.5 25t-0.5 26h52q0 -22 1.5 -39.5t4 -32t5.5 -26.5q23 -72 83 -71q26 0 53.5 13.5t55.5 41.5zM456 711q-134 0 -135 151v119h67l1 -120q0 -66 67 -67q75 0 76 98l2 132h66l2 -124q1 -67 80 -67q62 0 63 100l2 131h70l-1 -130
q-3 -182 -133 -182q-38 0 -64.5 11.5t-42.5 33.5l-2 4l-1 -5q-22 -85 -117 -85z" />
    <glyph glyph-name="uni064B0651" unicode="&#x64d;&#x651;" 
d="M422 1263q-134 0 -135 151v119h67l1 -120q0 -66 67 -67q75 0 76 98l2 132h66l2 -124q1 -67 80 -67q62 0 63 100l2 131h70l-1 -130q-3 -182 -133 -182q-38 0 -64.5 11.5t-42.5 33.5l-2 4l-1 -5q-22 -85 -117 -85zM322 734v97l392 160v-97zM322 941v97l392 160v-97z" />
    <glyph glyph-name="uni0651064E" unicode="&#x64e;&#x651;" 
d="M343 1276v97l392 160v-97zM472 884q-134 0 -135 151v119h67l1 -120q0 -66 67 -67q75 0 76 98l2 132h66l2 -124q1 -67 80 -67q62 0 63 100l2 131h70l-1 -130q-3 -182 -133 -182q-38 0 -64.5 11.5t-42.5 33.5l-2 4l-1 -5q-22 -85 -117 -85z" />
    <glyph glyph-name="uni0651064F" unicode="&#x64f;&#x651;" 
d="M585 1359q-86 36 -86 118q0 68 54 109q21 15 70 15q58 0 89 -30q43 -42 43 -105q0 -25 -12 -62l-3 -12l-1 -3h2l14 -1q14 -1 30 -1q9 0 20 -1v-69q-11 0 -22 0.5t-22 1.5q-25 1 -49 4l-6 1h-1l-1 -1l-3 -5q-12 -17 -26 -32t-31 -28t-36 -25q-159 -98 -278 -103v69
q128 5 245 96q20 16 37 34l13 13l2 3h-3q-17 4 -39 14zM668 1402l9 21q9 20 9 43q0 18 -5 30.5t-15 20.5q-18 15 -39 15q-24 0 -37 -10q-20 -16 -20 -45q0 -40 46 -59q18 -7 41 -14l9 -3h1zM457 741q-134 0 -135 151v119h67l1 -120q0 -66 67 -67q75 0 76 98l2 132h66l2 -124
q1 -67 80 -67q62 0 63 100l2 131h70l-1 -130q-3 -182 -133 -182q-38 0 -64.5 11.5t-42.5 33.5l-2 4l-1 -5q-22 -85 -117 -85z" />
    <glyph glyph-name="uni064E0651" unicode="&#x650;&#x651;" 
d="M458 1232q-134 0 -135 151v119h67l1 -120q0 -66 67 -67q75 0 76 98l2 132h66l2 -124q1 -67 80 -67q62 0 63 100l2 131h70l-1 -130q-3 -182 -133 -182q-38 0 -64.5 11.5t-42.5 33.5l-2 4l-1 -5q-22 -85 -117 -85zM393 936v97l392 160v-97z" />
    <glyph glyph-name="uni0654064E" unicode="&#x64e;&#x654;" 
d="M367 1655v97l392 160v-97zM393 1224l107 25l5 1l-4 2q-76 47 -76 147q0 119 100 175q26 15 56.5 22.5t64.5 7.5q79 0 140 -38v-110q-48 26 -115 26q-118 -1 -119 -89q0 -10 2 -20t5.5 -18.5t9 -16t13 -14.5t16.5 -12.5t20 -10.5t24 -9h1l170 28v-117l-420 -94v115z" />
    <glyph glyph-name="uni0654064F" unicode="&#x64f;&#x654;" 
d="M580 1714q-86 36 -86 118q0 68 54 109q21 15 70 15q58 0 89 -30q43 -42 43 -105q0 -25 -12 -62l-3 -12l-1 -3h2l14 -1q14 -1 30 -1q9 0 20 -1v-69q-11 0 -22 0.5t-22 1.5q-25 1 -49 4l-6 1h-1l-1 -1l-3 -5q-12 -17 -26 -32t-31 -28t-36 -25q-159 -98 -278 -103v69
q128 5 245 96q20 16 37 34l13 13l2 3h-3q-17 4 -39 14zM663 1757l9 21q9 20 9 43q0 18 -5 30.5t-15 20.5q-18 15 -39 15q-24 0 -37 -10q-20 -16 -20 -45q0 -40 46 -59q18 -7 41 -14l9 -3h1zM402 1068l107 25l5 1l-4 2q-76 47 -76 147q0 119 100 175q26 15 56.5 22.5
t64.5 7.5q79 0 140 -38v-110q-48 26 -115 26q-118 -1 -119 -89q0 -10 2 -20t5.5 -18.5t9 -16t13 -14.5t16.5 -12.5t20 -10.5t24 -9h1l170 28v-117l-420 -94v115z" />
    <glyph glyph-name="uni066E.fina" unicode="&#x66e;" horiz-adv-x="2050" 
d="M537 180h814q277 0 276 220v232h177v-234q0 -218 235 -218h17q23 0 23 -83v-11q0 -86 -23 -86h-19q-219 0 -311 150l-2 3l-2 -3q-82 -150 -373 -150h-815q-432 0 -432 442v201h175v-200q0 -263 260 -263z" />
    <glyph glyph-name="uni066F.fina" unicode="&#x66f;" horiz-adv-x="1476" 
d="M1329 358l1 -176v-2h2h150q23 0 23 -83v-11q0 -22 -1.5 -38.5t-4.5 -27t-7.5 -15.5t-9.5 -5h-149h-2v-2v-64q0 -193 -135.5 -289.5t-406.5 -96.5h-98q-587 2 -588 554v340l175 1v-340q0 -372 415 -370l95 1q374 2 372 203v64v2h-2h-161q-349 0 -348 342q1 184 88 282
q89 100 259 100q50 1 93 -8.5t79 -29t66 -48.5q93 -91 95 -283zM816 346q0 -166 180 -166h162h2v2v170q-1 205 -168 204q-176 0 -176 -210z" />
    <glyph glyph-name="uni06A1.init" unicode="&#x6a1;" horiz-adv-x="870" 
d="M-5 0q-53 0 -53 86v11q0 42 13.5 62.5t39.5 20.5h280q330 0 330 148v23v2h-2q-79 -8 -151 -9q-178 0 -267 70.5t-89 211.5q0 170 87 261q91 93 253 93q332 0 332 -326v-319q0 -335 -495 -335h-278zM605 657q0 76 -42 114.5t-125 37.5q-96 0 -139 -53q-38 -48 -38 -119
q0 -120 199 -119q73 0 143 10h2v2v127z" />
    <glyph glyph-name="uni06A1.medi" unicode="&#x6a1;" horiz-adv-x="1022" 
d="M1027 0h-136q-203 0 -355 80l-1 1l-1 -1q-171 -80 -354 -80h-185q-53 0 -53 86v11q0 83 53 83h292h5l-4 4q-103 102 -103 247q0 153 103 254q105 101 251 101t250 -101q101 -98 101 -253q1 -149 -101 -248l-4 -4h5h237q23 0 23 -83v-11q0 -86 -23 -86zM352 430
q0 -75 54 -128t131 -53t132 53q54 53 54 128t-54 128q-55 53 -132 53t-131 -53q-54 -54 -54 -128z" />
    <glyph glyph-name="uni06A1.fina" unicode="&#x6a1;" horiz-adv-x="2044" 
d="M1374 430q0 -75 54.5 -128t131.5 -53q76 0 131 53q54 53 54 128t-54 128q-27 26 -60 39.5t-71 13.5q-39 0 -71.5 -13.5t-60 -40t-41 -58.5t-13.5 -69zM1557 80q-42 -27 -95 -44.5t-118.5 -26.5t-142.5 -9h-667q-432 0 -432 442v201h175v-200q0 -263 261 -263h772h4l-3 4
q-103 101 -103 247q-1 153 103 254t250 101t250 -101q101 -98 102 -253q0 -149 -102 -248l-3 -4h5h237q23 0 23 -83v-11q0 -86 -23 -86h-136q-204 0 -355 80l-1 1z" />
    <glyph glyph-name="uni06CA.fina" unicode="&#x6ca;" horiz-adv-x="933" 
d="M476 1060l91 92q33 32 60 5l97 -97q30 -30 -2 -63l-92 -91q-30 -30 -60 0l-97 97q-25 28 3 57zM129 1060l91 92q33 32 60 5l97 -97q30 -30 -2 -63l-92 -91q-30 -30 -60 0l-97 97q-27 27 3 57zM783 355v-173v-2h2h153q23 0 23 -83v-11q0 -43 -6 -65q-6 -21 -17 -21h-152
h-2v-2q-8 -459 -569 -458h-74v179h68q403 -1 404 279v2h-2h-160q-349 0 -348 342q1 184 88 282q89 100 259 101q149 0 238 -86q47 -46 70.5 -117t24.5 -167zM270 343q0 -163 180 -163h162h2v2l-1 167q0 205 -167 204q-88 0 -132 -52.5t-44 -157.5z" />
    <glyph glyph-name="uniFB56" unicode="&#x67e;" horiz-adv-x="1901" arabic-form="isolated" 
d="M538 180h836q250 0 250 263v197h174v-194q0 -446 -431 -446h-832q-432 0 -432 442v201h175v-200q0 -263 260 -263zM1002 -320q-28 28 -3 53l97 97q28 28 56 -1l92 -91q30 -30 2 -58l-97 -97q-24 -25 -55 5zM655 -320q-28 28 -3 53l97 97q28 28 56 -1l92 -91q30 -30 2 -58
l-97 -97q-25 -25 -55 5zM828 -606q-28 28 -3 53l98 97q27 28 55 -1l92 -91q30 -30 2 -58l-97 -97q-25 -25 -55 5z" />
    <glyph glyph-name="uniFB57" unicode="&#x67e;" horiz-adv-x="2050" arabic-form="final" 
d="M1002 -320q-28 28 -3 53l97 97q28 28 56 -1l92 -91q30 -30 2 -58l-97 -97q-24 -25 -55 5zM655 -320q-28 28 -3 53l97 97q28 28 56 -1l92 -91q30 -30 2 -58l-97 -97q-25 -25 -55 5zM828 -606q-28 28 -3 53l98 97q27 28 55 -1l92 -91q30 -30 2 -58l-97 -97q-25 -25 -55 5z
M537 180h814q277 0 276 220v232h177v-234q0 -218 235 -218h17q23 0 23 -83v-11q0 -86 -23 -86h-19q-219 0 -311 150l-2 3l-2 -3q-82 -150 -373 -150h-815q-432 0 -432 442v201h175v-200q0 -263 260 -263z" />
    <glyph glyph-name="uniFB58" unicode="&#x67e;" horiz-adv-x="717" arabic-form="initial" 
d="M354 -320q-28 28 -3 53l97 97q28 28 56 -1l92 -91q30 -30 2 -58l-97 -97q-24 -25 -55 5zM7 -320q-28 28 -3 53l97 97q28 28 56 -1l92 -91q30 -30 2 -58l-97 -97q-25 -25 -55 5zM180 -606q-28 28 -3 53l98 97q27 28 55 -1l92 -91q30 -30 2 -58l-97 -97q-25 -25 -55 5z
M-5 0q-53 0 -53 86v11q0 83 53 83h233q202 0 202 193v294h174v-295q0 -372 -375 -372h-234z" />
    <glyph glyph-name="uniFB59" unicode="&#x67e;" horiz-adv-x="857" arabic-form="medial" 
d="M354 -320q-28 28 -3 53l97 97q28 28 56 -1l92 -91q30 -30 2 -58l-97 -97q-24 -25 -55 5zM7 -320q-28 28 -3 53l97 97q28 28 56 -1l92 -91q30 -30 2 -58l-97 -97q-25 -25 -55 5zM180 -606q-28 28 -3 53l98 97q27 28 55 -1l92 -91q30 -30 2 -58l-97 -97q-25 -25 -55 5z
M862 0h-21q-221 0 -308 136q-103 -136 -357 -136h-181q-53 0 -53 86v11q0 42 13.5 62.5t39.5 20.5h186q256 0 256 195v258h176v-258q0 -195 227 -195h22q23 0 23 -83v-11q0 -86 -23 -86z" />
    <glyph glyph-name="uniFB7A" unicode="&#x686;" horiz-adv-x="1319" arabic-form="isolated" 
d="M835.715 -48.3213q-25.7598 25.7598 -2.75977 48.7588l89.2383 89.2383q25.7588 25.7598 51.5186 -0.919922l84.6387 -83.7178q27.5996 -27.5996 1.83984 -53.3594l-89.2383 -89.2383q-22.0801 -23 -50.5986 4.59961zM516.48 -48.3213q-25.7598 25.7598 -2.75977 48.7588
l89.2383 89.2383q25.7598 25.7598 51.5186 -0.919922l84.6387 -83.7178q27.5996 -27.5996 1.83984 -53.3594l-89.2383 -89.2383q-22.999 -23 -50.5986 4.59961zM675.638 -311.437q-25.7598 25.7598 -2.75977 48.7588l90.1582 89.2383q24.8389 25.7598 50.5986 -0.919922
l84.6387 -83.7178q27.5996 -27.5996 1.83984 -53.3594l-89.2383 -89.2383q-23 -23 -50.5986 4.59961zM1076 322q-262 -37 -445 -108q-178 -69 -267 -167q-90 -99 -90 -227q-2 -339 530 -339h412v-176h-424q-389 1 -550 155q-143 138 -140 354q6 526 822 649l6 1l-5 3
l-118 68q-269 155 -491 -21l-71 -57l-115 129l61 52q314 265 655 68l189 -109q102 -58 180 -74v-182q-69 -9 -139 -19z" />
    <glyph glyph-name="uniFB7B" unicode="&#x686;" horiz-adv-x="1359" arabic-form="final" 
d="M765.715 -68.3213q-25.7598 25.7598 -2.75977 48.7588l89.2383 89.2383q25.7588 25.7598 51.5186 -0.919922l84.6387 -83.7178q27.5996 -27.5996 1.83984 -53.3594l-89.2383 -89.2383q-22.0801 -23 -50.5986 4.59961zM446.48 -68.3213q-25.7598 25.7598 -2.75977 48.7588
l89.2383 89.2383q25.7598 25.7598 51.5186 -0.919922l84.6387 -83.7178q27.5996 -27.5996 1.83984 -53.3594l-89.2383 -89.2383q-22.999 -23 -50.5986 4.59961zM605.638 -331.437q-25.7598 25.7598 -2.75977 48.7588l90.1582 89.2383q24.8389 25.7598 50.5986 -0.919922
l84.6387 -83.7178q27.5996 -27.5996 1.83984 -53.3594l-89.2383 -89.2383q-23 -23 -50.5986 4.59961zM925 467l-118 68q-269 155 -491 -21l-71 -57l-115 129l61 52q314 265 655 68l189 -109q102 -58 180 -74v-179q-78 -7 -137 -19h-2v-2q1 -143 237 -143h51q23 0 23 -83v-11
q0 -86 -23 -86h-52q-176 0 -272 71t-114 212v2h-2q-324 -50 -487 -166t-163 -299q-2 -339 530 -339h412v-176h-424q-389 1 -550 155q-143 138 -140 354q6 526 822 649l6 1z" />
    <glyph glyph-name="uniFB7C" unicode="&#x686;" horiz-adv-x="1282" arabic-form="initial" 
d="M595 -320q-28 28 -3 53l97 97q28 28 56 -1l92 -91q30 -30 2 -58l-97 -97q-24 -25 -55 5zM248 -320q-28 28 -3 53l97 97q28 28 56 -1l92 -91q30 -30 2 -58l-97 -97q-25 -25 -55 5zM421 -606q-28 28 -3 53l98 97q27 28 55 -1l92 -91q30 -30 2 -58l-97 -97q-25 -25 -55 5z
M-5 0q-53 0 -53 86v11q0 42 13 63q14 20 40 20h305q209 0 386 92l278 145l3 2l-3 2l-190 110q-268 155 -490 -21l-72 -57l-115 129l61 51q315 266 655 69l189 -109q101 -58 180 -75v-179l-408 -221q-216 -118 -472 -118h-307z" />
    <glyph glyph-name="uniFB7D" unicode="&#x686;" horiz-adv-x="1329" arabic-form="medial" 
d="M595 -320q-28 28 -3 53l97 97q28 28 56 -1l92 -91q30 -30 2 -58l-97 -97q-24 -25 -55 5zM248 -320q-28 28 -3 53l97 97q28 28 56 -1l92 -91q30 -30 2 -58l-97 -97q-25 -25 -55 5zM421 -606q-28 28 -3 53l98 97q27 28 55 -1l92 -91q30 -30 2 -58l-97 -97q-25 -25 -55 5z
M891 181l-117 -63q-216 -118 -472 -118h-307q-53 0 -53 86v11q0 42 13 63q14 20 40 20h305q209 0 386 92l278 145l3 2l-3 2l-190 110q-268 155 -490 -21l-72 -57l-115 129l61 51q315 266 655 69l189 -109q99 -57 180 -75v-179l-154 -83l-2 -1l2 -2q71 -73 185 -73h121
q23 0 23 -83v-11q0 -43 -6 -65q-6 -21 -17 -21h-118q-218 0 -322 181l-1 1z" />
    <glyph glyph-name="uniFB8A" unicode="&#x698;" horiz-adv-x="824" arabic-form="isolated" 
d="M524 973l92 92q30 30 55 5l97 -97q28 -28 -2 -58l-92 -92q-28 -28 -56 0l-97 97q-25 25 3 53zM177 973l92 92q30 30 55 5l97 -97q28 -28 -2 -58l-92 -92q-28 -28 -56 0l-97 97q-24 25 3 53zM350 1259l92 92q31 30 55 5l97 -97q28 -28 -2 -58l-92 -92q-28 -28 -55 0
l-98 97q-25 25 3 53zM94 -284q388 -1 388 355v534l174 1v-538q0 -525 -560 -529l-72 -1v178h70z" />
    <glyph glyph-name="uniFB8B" unicode="&#x698;" horiz-adv-x="883" arabic-form="final" 
d="M524 973l92 92q30 30 55 5l97 -97q28 -28 -2 -58l-92 -92q-28 -28 -56 0l-97 97q-25 25 3 53zM177 973l92 92q30 30 55 5l97 -97q28 -28 -2 -58l-92 -92q-28 -28 -56 0l-97 97q-24 25 3 53zM350 1259l92 92q31 30 55 5l97 -97q28 -28 -2 -58l-92 -92q-28 -28 -55 0
l-98 97q-25 25 3 53zM888 0h-16q-84 0 -137 19q-52 20 -73 58l-4 7v-8q0 -539 -563 -538h-71v179h67q393 -1 393 362v526l173 1v-223q0 -203 215 -203h16q23 0 23 -83v-11q0 -86 -23 -86z" />
    <glyph glyph-name="uniFB8E" unicode="&#x6a9;" horiz-adv-x="1855" arabic-form="isolated" 
d="M537 180h723q250 0 250 134q0 56 -112 183l-320 365q-48 55 -47 136q1 120 116 158l625 206v-181l-568 -185l-3 -1l2 -2l310 -354q162 -185 164 -331q3 -308 -416 -308h-1h-1h-725q-432 0 -432 442v201h175v-200q0 -263 260 -263z" />
    <glyph glyph-name="uniFB8F" unicode="&#x6a9;" horiz-adv-x="2022" arabic-form="final" 
d="M1259 0h-725q-432 0 -432 442v201h175v-200q0 -131 65 -197t195 -66l724 -1q245 0 249 135q2 54 -111 183l-321 366q-47 54 -47 136q2 120 117 157l624 206v-180l-568 -186l-3 -1l2 -2l568 -658q131 -153 233 -155h25q23 0 23 -83v-11q0 -86 -23 -86h-15q-203 0 -350 202
l-2 3l-2 -4q-67 -200 -401 -201z" />
    <glyph glyph-name="uniFB90" unicode="&#x6a9;" horiz-adv-x="918" arabic-form="initial" 
d="M-5 0q-53 0 -53 86v11q0 42 13 63q14 20 40 20h328q249 0 250 134q0 55 -112 183l-320 365q-48 54 -47 136q1 120 116 158l624 206v-181l-567 -185l-3 -1l2 -2l306 -355q166 -191 167 -330q3 -308 -418 -308h-326z" />
    <glyph glyph-name="uniFB91" unicode="&#x6a9;" horiz-adv-x="1086" arabic-form="medial" 
d="M835 335q133 -153 232 -155h24q23 -1 23 -83v-11q0 -86 -23 -86h-15q-203 0 -350 201l-2 3l-1 -3q-67 -201 -402 -201h-326q-53 0 -53 86v11q0 42 13 63q14 20 40 20h328q249 0 250 134q0 55 -112 183l-320 365q-48 54 -47 136q1 120 116 158l624 206v-181l-567 -185
l-3 -1l2 -2z" />
    <glyph glyph-name="uniFB92" unicode="&#x6af;" horiz-adv-x="1855" arabic-form="isolated" 
d="M1766.32 1501.22l-629.128 -219.339v117.694l629.128 219.339v-117.694zM537 180h723q250 0 250 134q0 56 -112 183l-320 365q-48 55 -47 136q1 120 116 158l625 206v-181l-568 -185l-3 -1l2 -2l310 -354q162 -185 164 -331q3 -308 -416 -308h-1h-1h-725q-432 0 -432 442
v201h175v-200q0 -263 260 -263z" />
    <glyph glyph-name="uniFB93" unicode="&#x6af;" horiz-adv-x="2022" arabic-form="final" 
d="M1766.32 1501.22l-629.128 -219.339v117.694l629.128 219.339v-117.694zM1259 0h-725q-432 0 -432 442v201h175v-200q0 -131 65 -197t195 -66l724 -1q245 0 249 135q2 54 -111 183l-321 366q-47 54 -47 136q2 120 117 157l624 206v-180l-568 -186l-3 -1l2 -2l568 -658
q131 -153 233 -155h25q23 0 23 -83v-11q0 -86 -23 -86h-15q-203 0 -350 202l-2 3l-2 -4q-67 -200 -401 -201z" />
    <glyph glyph-name="uniFB94" unicode="&#x6af;" horiz-adv-x="918" arabic-form="initial" 
d="M-5 0q-53 0 -53 86v11q0 42 13 63q14 20 40 20h328q249 0 250 134q0 55 -112 183l-320 365q-48 54 -47 136q1 120 116 158l624 206v-181l-567 -185l-3 -1l2 -2l306 -355q166 -191 167 -330q3 -308 -418 -308h-326zM831.317 1501.22l-629.128 -219.339v117.694
l629.128 219.339v-117.694z" />
    <glyph glyph-name="uniFB95" unicode="&#x6af;" horiz-adv-x="1086" arabic-form="medial" 
d="M831.317 1501.22l-629.128 -219.339v117.694l629.128 219.339v-117.694zM835 335q133 -153 232 -155h24q23 -1 23 -83v-11q0 -86 -23 -86h-15q-203 0 -350 201l-2 3l-1 -3q-67 -201 -402 -201h-326q-53 0 -53 86v11q0 42 13 63q14 20 40 20h328q249 0 250 134
q0 55 -112 183l-320 365q-48 54 -47 136q1 120 116 158l624 206v-181l-567 -185l-3 -1l2 -2z" />
    <glyph glyph-name="uniFB9E" unicode="&#x6ba;" horiz-adv-x="1442" arabic-form="isolated" 
d="M1328 52q-11 -503 -579 -503h-55q-591 0 -591 552v341h177v-340q0 -372 416 -372h51q417 0 417 317v584h176z" />
    <glyph glyph-name="uniFB9F" unicode="&#x6ba;" horiz-adv-x="1590" arabic-form="final" 
d="M1595 0h-38q-165 0 -226 81l-3 5v-6v-28q0 -503 -579 -503h-55q-591 0 -591 552v341h177v-340q0 -372 416 -372h51q417 0 417 317v584h176v-214q0 -59 14 -103.5t42.5 -74t71 -44.5t98.5 -15h29q23 0 23 -83v-11q0 -43 -6 -64.5t-17 -21.5z" />
    <glyph glyph-name="uniFBA5.fina" unicode="&#x6c0;" horiz-adv-x="1084" arabic-form="final" 
d="M341 1132q35 -16 110 -16h52q215 0 215 88v6q0 41 -58 41h-92q-102 0 -102 99v38q0 132 133 179q47 17 112 17h115l1 -116h-5h-135q-110 0 -112 -77v-30h86q166 0 166 -131v-16q0 -211 -329 -211h-48q-87 0 -136 17zM1089 0h-46q-247 0 -311 187q-105 -19 -231 -19
q-407 -1 -407 269q0 316 503 394l-13 65l169 32l98 -560q33 -188 203 -188h35q25 0 25 -81v-11q0 -88 -25 -88zM688 360l-55 296q-372 -47 -372 -206q0 -108 227 -107q107 0 200 17z" />
    <glyph glyph-name="uniFBAC" unicode="&#x6be;" horiz-adv-x="1301" arabic-form="initial" 
d="M-5 0q-53 0 -53 86v11q0 42 13.5 62.5t39.5 20.5h269h7l-6 4q-120 76 -120 237q0 122 62 218q104 161 279 161q91 0 157 -38l2 -1l1 2l87 127q462 -372 461 -630q0 -89 -32 -156t-95 -111q-70 -49 -161 -49q-230 0 -445 113h-1q-192 -57 -390 -57h-75zM478 241
q166 120 167 268q0 78 -68 112q-31 15 -64 15q-38 0 -68 -12q-80 -36 -112 -132q-14 -40 -14 -74q0 -59 32 -95q42 -46 125 -82h1h1zM633 173q141 -59 248 -59q50 0 79 25q64 56 64 120q0 126 -251 363l-8 8l5 -10q29 -56 29 -161q0 -179 -166 -283l-4 -2z" />
    <glyph glyph-name="uniFBAD" unicode="&#x6be;" horiz-adv-x="941" arabic-form="medial" 
d="M947 0h-197h-4l3 -3q34 -46 51 -99t17 -112q0 -121 -50 -185q-31 -39 -79 -58.5t-114 -19.5q-184 0 -285 155q-80 123 -100 320v2h-2h-192q-53 0 -53 86v11q0 42 13.5 62.5t39.5 20.5h192h2v2q25 316 128 467q90 132 227 133q55 0 104 -23.5t90 -70.5q81 -91 81 -255
q0 -153 -69 -250l-2 -3h4h195q23 0 23 -83v-11q0 -43 -6 -64.5t-17 -21.5zM347 -1q7 -68 21.5 -121t36.5 -91q56 -96 155 -96q103 0 103 114q0 98 -53 147t-158 49h-103h-2v-2zM662 407q0 61 -13.5 104.5t-40.5 69.5q-30 30 -72 30q-30 0 -57 -23t-50 -69q-58 -115 -82 -337
v-2h2l119 1q194 2 194 226z" />
    <glyph glyph-name="uniFBE8" unicode="&#x649;" horiz-adv-x="707" arabic-form="initial" 
d="M-5 0q-53 0 -53 86v11q0 83 53 83h233q202 0 202 193v294h174v-295q0 -372 -375 -372h-234z" />
    <glyph glyph-name="uniFBE9" unicode="&#x649;" horiz-adv-x="857" arabic-form="medial" 
d="M862 0h-21q-221 0 -308 136q-103 -136 -357 -136h-181q-53 0 -53 86v11q0 42 13.5 62.5t39.5 20.5h186q256 0 256 195v258h176v-258q0 -195 227 -195h22q23 0 23 -83v-11q0 -86 -23 -86z" />
    <glyph glyph-name="uniFBFC" unicode="&#x6cc;" horiz-adv-x="1446" arabic-form="isolated" 
d="M1061 229q282 0 282 -220v-29q0 -429 -568 -429h-84q-588 0 -589 553v411h175v-410q0 -373 416 -373h91q387 0 387 230v12q0 81 -111 81h-161q-171 0 -171 165v65q0 236 105 353.5t316 117.5h194l1 -185h-237q-199 0 -204 -279l-2 -61v-2h2h158z" />
    <glyph glyph-name="uniFBFD" unicode="&#x6cc;" horiz-adv-x="1433" arabic-form="final" 
d="M1438 0h-102h-2v-2l-1 -77q-5 -372 -552 -372h-89q-589 0 -590 550v341l175 -1v-339q0 -371 412 -371h96q125 0 208.5 22t125.5 66t42 111v70v2h-2h-251q-50 0 -74 88q-22 84 5 92h599q23 0 23 -83v-11q0 -22 -1.5 -38.5t-4.5 -27t-7.5 -15.5t-9.5 -5z" />
    <glyph glyph-name="uniFBFE" unicode="&#x6cc;" horiz-adv-x="717" arabic-form="initial" 
d="M349 -305l91 92q33 32 60 5l97 -97q30 -30 -2 -63l-92 -91q-30 -30 -60 0l-97 97q-25 28 3 57zM2 -305l91 92q33 32 60 5l97 -97q30 -30 -2 -63l-92 -91q-30 -30 -60 0l-97 97q-27 27 3 57zM-5 0q-53 0 -53 86v11q0 83 53 83h233q202 0 202 193v294h174v-295
q0 -372 -375 -372h-234z" />
    <glyph glyph-name="uniFBFF" unicode="&#x6cc;" horiz-adv-x="857" arabic-form="medial" 
d="M361 -305l91 92q33 32 60 5l97 -97q30 -30 -2 -63l-92 -91q-30 -30 -60 0l-97 97q-25 28 3 57zM14 -305l91 92q33 32 60 5l97 -97q30 -30 -2 -63l-92 -91q-30 -30 -60 0l-97 97q-27 27 3 57zM862 0h-21q-221 0 -308 136q-103 -136 -357 -136h-181q-53 0 -53 86v11
q0 42 13.5 62.5t39.5 20.5h186q256 0 256 195v258h176v-258q0 -195 227 -195h22q23 0 23 -83v-11q0 -86 -23 -86z" />
    <glyph glyph-name="uniFDFC" unicode="&#xfdfc;" horiz-adv-x="3254" arabic-form="isolated" 
d="M2077 -253l91 92q33 32 60 5l97 -97q30 -30 -2 -63l-92 -91q-30 -30 -60 0l-97 97q-25 28 3 57zM1730 -253l91 92q33 32 60 5l97 -97q30 -30 -2 -63l-92 -91q-30 -30 -60 0l-97 97q-27 27 3 57zM298 102q0 -368 366 -368h53q332 0 332 352v1247h165l-1 -1251
q0 -529 -503 -529h-46q-541 0 -541 548v341h175v-340zM1897 0h-76q-326 0 -326 375v958h169v-959q0 -194 160 -194h73q23 0 23 -83v-11q0 -44 -6 -65t-17 -21zM1891 0q-53 0 -53 86v11q0 83 53 83h233q202 0 202 193v294h174v-295q0 -372 -375 -372h-234zM2516 -284
q388 -1 388 355v534l174 1v-538q0 -525 -560 -529l-72 -1v178h70z" />
    <glyph glyph-name="uniFE71" unicode="&#xfe71;" horiz-adv-x="642" arabic-form="medial" 
d="M655 180q23 0 23 -83v-11q0 -86 -23 -86h-260q-53 0 -53 86v11q0 83 53 83h260zM445 180q23 0 23 -83v-11q0 -86 -23 -86h-260q-53 0 -53 86v11q0 83 53 83h260zM255 180q23 0 23 -83v-11q0 -86 -23 -86h-260q-53 0 -53 86v11q0 83 53 83h260zM110 1053v97l392 160v-97z
M110 1260v97l392 160v-97z" />
    <glyph glyph-name="uniFE77" unicode="&#xfe77;" horiz-adv-x="642" arabic-form="medial" 
d="M655 180q23 0 23 -83v-11q0 -86 -23 -86h-260q-53 0 -53 86v11q0 83 53 83h260zM445 180q23 0 23 -83v-11q0 -86 -23 -86h-260q-53 0 -53 86v11q0 83 53 83h260zM81 1285v97l392 160v-97zM255 180q23 0 23 -83v-11q0 -86 -23 -86h-260q-53 0 -53 86v11q0 83 53 83h260z
" />
    <glyph glyph-name="uniFE79" unicode="&#xfe79;" horiz-adv-x="642" arabic-form="medial" 
d="M655 180q23 0 23 -83v-11q0 -86 -23 -86h-260q-53 0 -53 86v11q0 83 53 83h260zM445 180q23 0 23 -83v-11q0 -86 -23 -86h-260q-53 0 -53 86v11q0 83 53 83h260zM255 180q23 0 23 -83v-11q0 -86 -23 -86h-260q-53 0 -53 86v11q0 83 53 83h260zM338 1441q-86 36 -86 118
q0 68 54 109q21 15 70 15q58 0 89 -30q43 -42 43 -105q0 -25 -12 -62l-3 -12l-1 -3h2l14 -1q14 -1 30 -1q9 0 20 -1v-69q-11 0 -22 0.5t-22 1.5q-25 1 -49 4l-6 1h-1l-1 -1l-3 -5q-12 -17 -26 -32t-31 -28t-36 -25q-159 -98 -278 -103v69q128 5 245 96q20 16 37 34l13 13
l2 3h-3q-17 4 -39 14zM421 1484l9 21q9 20 9 43q0 18 -5 30.5t-15 20.5q-18 15 -39 15q-24 0 -37 -10q-20 -16 -20 -45q0 -40 46 -59q18 -7 41 -14l9 -3h1z" />
    <glyph glyph-name="uniFE7B" unicode="&#xfe7b;" horiz-adv-x="642" arabic-form="medial" 
d="M655 180q23 0 23 -83v-11q0 -86 -23 -86h-260q-53 0 -53 86v11q0 83 53 83h260zM445 180q23 0 23 -83v-11q0 -86 -23 -86h-260q-53 0 -53 86v11q0 83 53 83h260zM255 180q23 0 23 -83v-11q0 -86 -23 -86h-260q-53 0 -53 86v11q0 83 53 83h260zM125 -309v97l392 160v-97z
" />
    <glyph glyph-name="uniFE7D" unicode="&#xfe7d;" horiz-adv-x="642" arabic-form="medial" 
d="M655 180q23 0 23 -83v-11q0 -86 -23 -86h-260q-53 0 -53 86v11q0 83 53 83h260zM445 180q23 0 23 -83v-11q0 -86 -23 -86h-260q-53 0 -53 86v11q0 83 53 83h260zM255 180q23 0 23 -83v-11q0 -86 -23 -86h-260q-53 0 -53 86v11q0 83 53 83h260zM210 1334q-134 0 -135 151
v119h67l1 -120q0 -66 67 -67q75 0 76 98l2 132h66l2 -124q1 -67 80 -67q62 0 63 100l2 131h70l-1 -130q-3 -182 -133 -182q-38 0 -64.5 11.5t-42.5 33.5l-2 4l-1 -5q-22 -85 -117 -85z" />
    <glyph glyph-name="uniFE7F" unicode="&#xfe7f;" horiz-adv-x="642" arabic-form="medial" 
d="M655 180q23 0 23 -83v-11q0 -86 -23 -86h-260q-53 0 -53 86v11q0 83 53 83h260zM445 180q23 0 23 -83v-11q0 -86 -23 -86h-260q-53 0 -53 86v11q0 83 53 83h260zM255 180q23 0 23 -83v-11q0 -86 -23 -86h-260q-53 0 -53 86v11q0 83 53 83h260zM438 1382q0 42 -28.5 70.5
t-70.5 28.5q-6 0 -12 -0.5t-11.5 -1.5t-10.5 -3l-10 -4q-2 -1 -4.5 -2.5t-5.5 -2.5q-4 -3 -8.5 -6.5t-8.5 -7.5q-14 -15 -21 -32q-4 -9 -5.5 -18.5t-1.5 -20.5q0 -42 28.5 -70.5t70.5 -28.5q21 0 38 7l4 2l4 2l4 2t3.5 2t3.5 2.5t3.5 2.5t3.5 2.5t3.5 3l3.5 3.5q14 14 21 32
q4 9 5.5 18.5t1.5 19.5zM516 1382q0 -74 -51 -125q-26 -26 -57.5 -39t-68.5 -13q-9 0 -18 1t-17.5 2.5t-16.5 3.5q-3 1 -5.5 2t-5.5 2t-5 2q-8 3 -15.5 7t-14.5 9t-14 10.5t-13 12.5q-26 25 -38.5 56.5t-12.5 68.5q0 13 1 25q0 2 0.5 5l1 6t1.5 6t1 5q2 6 3.5 11.5t3.5 10.5
q5 10 10.5 20t12.5 19t16 18q51 51 125 51q15 0 29 -2t27 -6t25 -10.5t23 -14.5t22 -18q25 -26 38 -57q3 -8 5.5 -16t4 -16.5t2.5 -17.5t1 -19z" />
    <glyph glyph-name="uniFE80" unicode="&#x621;" horiz-adv-x="807" arabic-form="isolated" 
d="M445 670q-45 0 -81.5 -12.5t-63.5 -38.5q-45 -42 -45 -115q0 -81 62 -129q74 -57 181 -57q73 0 169 49l46 -154l-545 -208l-59 139l211 75l6 2l-6 2q-227 59 -226 291q0 173 138 258q85 53 204 54q45 0 84.5 -8.5t74.5 -25.5v-147q-74 25 -150 25z" />
    <glyph glyph-name="uniFE81" unicode="&#x622;" horiz-adv-x="527" arabic-form="isolated" 
d="M204 1137.52h166v-1133.67h-166v1133.67zM177 1481h381l2 -158h-373q-102 0 -154 -67l-14 -19l-98 112l9 13q78 119 247 119z" />
    <glyph glyph-name="uniFE82" unicode="&#x622;" horiz-adv-x="571" arabic-form="final" 
d="M177 1481h381l2 -158h-373q-102 0 -154 -67l-14 -19l-98 112l9 13q78 119 247 119zM563 0h-76q-326 0 -326 375v758h169v-759q0 -194 160 -194h73q23 0 23 -83v-11q0 -44 -6 -65t-17 -21z" />
    <glyph glyph-name="uniFE83" unicode="&#x623;" horiz-adv-x="469" arabic-form="isolated" 
d="M174 1137.52h166v-1133.67h-166v1133.67zM15 1347l107 25l5 1l-4 2q-76 47 -76 147q0 119 100 175q26 15 56.5 22.5t64.5 7.5q79 0 140 -38v-110q-48 26 -115 26q-118 -1 -119 -89q0 -10 2 -20t5.5 -18.5t9 -16t13 -14.5t16.5 -12.5t20 -10.5t24 -9h1l170 28v-117
l-420 -94v115z" />
    <glyph glyph-name="uniFE84" unicode="&#x623;" horiz-adv-x="571" arabic-form="final" 
d="M15 1347l107 25l5 1l-4 2q-76 47 -76 147q0 119 100 175q26 15 56.5 22.5t64.5 7.5q79 0 140 -38v-110q-48 26 -115 26q-118 -1 -119 -89q0 -10 2 -20t5.5 -18.5t9 -16t13 -14.5t16.5 -12.5t20 -10.5t24 -9h1l170 28v-117l-420 -94v115zM563 0h-76q-326 0 -326 375v758
h169v-759q0 -194 160 -194h73q23 0 23 -83v-11q0 -44 -6 -65t-17 -21z" />
    <glyph glyph-name="uniFE85" unicode="&#x624;" horiz-adv-x="877" arabic-form="isolated" 
d="M212 932l107 25l5 1l-4 2q-76 47 -76 147q0 119 100 175q26 15 56.5 22.5t64.5 7.5q79 0 140 -38v-110q-48 26 -115 26q-118 -1 -119 -89q0 -10 2 -20t5.5 -18.5t9 -16t13 -14.5t16.5 -12.5t20 -10.5t24 -9h1l170 28v-117l-420 -94v115zM783 355v-357q0 -459 -568 -458
h-74v179h68q403 -1 404 279v2h-2h-160q-349 0 -348 342q1 184 88 282q91 97 259 101q149 0 238 -86q95 -92 95 -284zM270 343q0 -162 180 -162h162h2v2l-1 166q0 205 -167 204q-176 0 -176 -210z" />
    <glyph glyph-name="uniFE86" unicode="&#x624;" horiz-adv-x="933" arabic-form="final" 
d="M783 355v-173v-2h2h153q23 0 23 -83v-11q0 -43 -6 -65q-6 -21 -17 -21h-152h-2v-2q-8 -459 -569 -458h-74v179h68q403 -1 404 279v2h-2h-160q-349 0 -348 342q1 184 88 282q89 100 259 101q149 0 238 -86q47 -46 70.5 -117t24.5 -167zM270 343q0 -163 180 -163h162h2v2
l-1 167q0 205 -167 204q-88 0 -132 -52.5t-44 -157.5zM211 932l107 25l5 1l-4 2q-76 47 -76 147q0 119 100 175q26 15 56.5 22.5t64.5 7.5q79 0 140 -38v-110q-48 26 -115 26q-118 -1 -119 -89q0 -10 2 -20t5.5 -18.5t9 -16t13 -14.5t16.5 -12.5t20 -10.5t24 -9h1l170 28
v-117l-420 -94v115z" />
    <glyph glyph-name="uniFE87" unicode="&#x625;" horiz-adv-x="469" arabic-form="isolated" 
d="M25 -488l107 25l5 1l-4 2q-76 47 -76 147q0 119 100 175q26 15 56.5 22.5t64.5 7.5q79 0 140 -38v-110q-48 26 -115 26q-118 -1 -119 -89q0 -10 2 -20t5.5 -18.5t9 -16t13 -14.5t16.5 -12.5t20 -10.5t24 -9h1l170 28v-117l-420 -94v115zM160 1334h166v-1333h-166v1333z
" />
    <glyph glyph-name="uniFE88" unicode="&#x625;" horiz-adv-x="557" arabic-form="final" 
d="M105 -488l107 25l5 1l-4 2q-76 47 -76 147q0 119 100 175q26 15 56.5 22.5t64.5 7.5q79 0 140 -38v-110q-48 26 -115 26q-118 -1 -119 -89q0 -10 2 -20t5.5 -18.5t9 -16t13 -14.5t16.5 -12.5t20 -10.5t24 -9h1l170 28v-117l-420 -94v115zM563 0h-76q-326 0 -326 375v958
h169v-959q0 -194 160 -194h73q23 0 23 -83v-11q0 -44 -6 -65t-17 -21z" />
    <glyph glyph-name="uniFE89" unicode="&#x626;" horiz-adv-x="1446" arabic-form="isolated" 
d="M261 810l107 25l5 1l-4 2q-76 47 -76 147q0 119 100 175q26 15 56.5 22.5t64.5 7.5q79 0 140 -38v-110q-48 26 -115 26q-118 -1 -119 -89q0 -10 2 -20t5.5 -18.5t9 -16t13 -14.5t16.5 -12.5t20 -10.5t24 -9h1l170 28v-117l-420 -94v115zM1061 229q282 0 282 -220v-29
q0 -429 -568 -429h-84q-588 0 -589 553v411h175v-410q0 -373 416 -373h91q387 0 387 230v12q0 81 -111 81h-161q-171 0 -171 165v65q0 236 105 353.5t316 117.5h194l1 -185h-237q-199 0 -204 -279l-2 -61v-2h2h158z" />
    <glyph glyph-name="uniFE8A" unicode="&#x626;" horiz-adv-x="1433" arabic-form="final" 
d="M1438 0h-102h-2v-2l-1 -77q-5 -372 -552 -372h-89q-589 0 -590 550v341l175 -1v-339q0 -371 412 -371h96q125 0 208.5 22t125.5 66t42 111v70v2h-2h-251q-50 0 -74 88q-22 84 5 92h599q23 0 23 -83v-11q0 -22 -1.5 -38.5t-4.5 -27t-7.5 -15.5t-9.5 -5zM446 476l107 25
l5 1l-4 2q-76 47 -76 147q0 119 100 175q26 15 56.5 22.5t64.5 7.5q79 0 140 -38v-110q-48 26 -115 26q-118 -1 -119 -89q0 -10 2 -20t5.5 -18.5t9 -16t13 -14.5t16.5 -12.5t20 -10.5t24 -9h1l170 28v-117l-420 -94v115z" />
    <glyph glyph-name="uniFE8B" unicode="&#x626;" horiz-adv-x="707" arabic-form="initial" 
d="M-5 0q-53 0 -53 86v11q0 83 53 83h233q202 0 202 193v294h174v-295q0 -372 -375 -372h-234zM172 897l107 25l5 1l-4 2q-76 47 -76 147q0 119 100 175q26 15 56.5 22.5t64.5 7.5q79 0 140 -38v-110q-48 26 -115 26q-118 -1 -119 -89q0 -10 2 -20t5.5 -18.5t9 -16t13 -14.5
t16.5 -12.5t20 -10.5t24 -9h1l170 28v-117l-420 -94v115z" />
    <glyph glyph-name="uniFE8C" unicode="&#x626;" horiz-adv-x="857" arabic-form="medial" 
d="M862 0h-21q-221 0 -308 136q-103 -136 -357 -136h-181q-53 0 -53 86v11q0 42 13.5 62.5t39.5 20.5h186q256 0 256 195v258h176v-258q0 -195 227 -195h22q23 0 23 -83v-11q0 -86 -23 -86zM213 865l107 25l5 1l-4 2q-76 47 -76 147q0 119 100 175q26 15 56.5 22.5t64.5 7.5
q79 0 140 -38v-110q-48 26 -115 26q-118 -1 -119 -89q0 -10 2 -20t5.5 -18.5t9 -16t13 -14.5t16.5 -12.5t20 -10.5t24 -9h1l170 28v-117l-420 -94v115z" />
    <glyph glyph-name="uniFE8D" unicode="&#x627;" horiz-adv-x="469" arabic-form="isolated" 
d="M160 1334h166v-1333h-166v1333z" />
    <glyph glyph-name="uniFE8E" unicode="&#x627;" horiz-adv-x="557" arabic-form="final" 
d="M563 0h-76q-326 0 -326 375v958h169v-959q0 -194 160 -194h73q23 0 23 -83v-11q0 -44 -6 -65t-17 -21z" />
    <glyph glyph-name="uniFE8F" unicode="&#x628;" horiz-adv-x="1901" arabic-form="isolated" 
d="M537 180h836q250 0 250 263v197h174v-194q0 -446 -431 -446h-832q-432 0 -432 442v201h175v-200q0 -263 260 -263zM825 -302l91 91q35 34 64 5l98 -97q31 -32 -3 -67l-91 -91q-33 -32 -65 -1l-97 98q-29 29 3 62z" />
    <glyph glyph-name="uniFE90" unicode="&#x628;" horiz-adv-x="2050" arabic-form="final" 
d="M825 -302l91 91q35 34 64 5l98 -97q31 -32 -3 -67l-91 -91q-33 -32 -65 -1l-97 98q-29 29 3 62zM537 180h814q277 0 276 220v232h177v-234q0 -218 235 -218h17q23 0 23 -83v-11q0 -86 -23 -86h-19q-219 0 -311 150l-2 3l-2 -3q-82 -150 -373 -150h-815q-432 0 -432 442
v201h175v-200q0 -263 260 -263z" />
    <glyph glyph-name="uniFE91" unicode="&#x628;" horiz-adv-x="677" arabic-form="initial" 
d="M-5 0q-53 0 -53 86v11q0 83 53 83h203q202 0 202 193v294h174v-295q0 -372 -377 -372h-202zM113 -302l91 91q35 34 64 5l98 -97q31 -32 -3 -67l-91 -91q-33 -32 -65 -1l-97 98q-29 29 3 62z" />
    <glyph glyph-name="uniFE92" unicode="&#x628;" horiz-adv-x="827" arabic-form="medial" 
d="M832 0h-21q-218 0 -308 136q-105 -136 -357 -136h-151q-53 0 -53 86v11q0 42 13.5 62.5t39.5 20.5h156q256 0 256 195v258h176v-258q0 -195 227 -195h22q23 0 23 -83v-11q0 -86 -23 -86zM173 -302l91 91q35 34 64 5l98 -97q31 -32 -3 -67l-91 -91q-33 -32 -65 -1l-97 98
q-29 29 3 62z" />
    <glyph glyph-name="uniFE93" unicode="&#x629;" horiz-adv-x="924" arabic-form="isolated" 
d="M513 1217l91 92q33 32 60 5l97 -97q30 -30 -2 -63l-92 -91q-30 -30 -60 0l-97 97q-25 28 3 57zM166 1217l91 92q33 32 60 5l97 -97q30 -30 -2 -63l-92 -91q-30 -30 -60 0l-97 97q-27 27 3 57zM456 624q-186 -157 -186 -295q0 -152 202 -152q187 0 187 156q0 130 -200 291
l-1 1zM103 312q0 213 237 428l1 2l-1 1l-38 35l103 120q423 -303 422 -571q0 -327 -357 -326q-367 1 -367 311z" />
    <glyph glyph-name="uniFE94" unicode="&#x629;" horiz-adv-x="1084" arabic-form="final" 
d="M623 1228l91 92q33 32 60 5l97 -97q30 -30 -2 -63l-92 -91q-30 -30 -60 0l-97 97q-25 28 3 57zM276 1228l91 92q33 32 60 5l97 -97q30 -30 -2 -63l-92 -91q-30 -30 -60 0l-97 97q-27 27 3 57zM1089 0h-46q-247 0 -311 187q-105 -19 -231 -19q-407 -1 -407 269
q0 316 503 394l-13 65l169 32l98 -560q33 -188 203 -188h35q25 0 25 -81v-11q0 -88 -25 -88zM688 360l-55 296q-372 -47 -372 -206q0 -108 227 -107q107 0 200 17z" />
    <glyph glyph-name="uniFE95" unicode="&#x62a;" horiz-adv-x="1901" arabic-form="isolated" 
d="M537 180h836q250 0 250 263v197h174v-194q0 -446 -431 -446h-832q-432 0 -432 442v201h175v-200q0 -263 260 -263zM1000 923l91 92q33 32 60 5l97 -97q30 -30 -2 -63l-92 -91q-30 -30 -60 0l-97 97q-25 28 3 57zM653 923l91 92q33 32 60 5l97 -97q30 -30 -2 -63l-92 -91
q-30 -30 -60 0l-97 97q-27 27 3 57z" />
    <glyph glyph-name="uniFE96" unicode="&#x62a;" horiz-adv-x="2050" arabic-form="final" 
d="M1000 923l91 92q33 32 60 5l97 -97q30 -30 -2 -63l-92 -91q-30 -30 -60 0l-97 97q-25 28 3 57zM653 923l91 92q33 32 60 5l97 -97q30 -30 -2 -63l-92 -91q-30 -30 -60 0l-97 97q-27 27 3 57zM537 180h814q277 0 276 220v232h177v-234q0 -218 235 -218h17q23 0 23 -83v-11
q0 -86 -23 -86h-19q-219 0 -311 150l-2 3l-2 -3q-82 -150 -373 -150h-815q-432 0 -432 442v201h175v-200q0 -263 260 -263z" />
    <glyph glyph-name="uniFE97" unicode="&#x62a;" horiz-adv-x="696" arabic-form="initial" 
d="M-5 0q-53 0 -53 86v11q0 83 53 83h233q202 0 202 193v294h174v-295q0 -372 -375 -372h-234zM406 1065l91 92q33 32 60 5l97 -97q30 -30 -2 -63l-92 -91q-30 -30 -60 0l-97 97q-25 28 3 57zM59 1065l91 92q33 32 60 5l97 -97q30 -30 -2 -63l-92 -91q-30 -30 -60 0l-97 97
q-27 27 3 57z" />
    <glyph glyph-name="uniFE98" unicode="&#x62a;" horiz-adv-x="857" arabic-form="medial" 
d="M426 1065l91 92q33 32 60 5l97 -97q30 -30 -2 -63l-92 -91q-30 -30 -60 0l-97 97q-25 28 3 57zM79 1065l91 92q33 32 60 5l97 -97q30 -30 -2 -63l-92 -91q-30 -30 -60 0l-97 97q-27 27 3 57zM862 0h-21q-221 0 -308 136q-103 -136 -357 -136h-181q-53 0 -53 86v11
q0 42 13.5 62.5t39.5 20.5h186q256 0 256 195v258h176v-258q0 -195 227 -195h22q23 0 23 -83v-11q0 -86 -23 -86z" />
    <glyph glyph-name="uniFE99" unicode="&#x62b;" horiz-adv-x="1901" arabic-form="isolated" 
d="M537 180h836q250 0 250 263v197h174v-194q0 -446 -431 -446h-832q-432 0 -432 442v201h175v-200q0 -263 260 -263zM1002 840l92 92q30 30 55 5l97 -97q28 -28 -2 -58l-92 -92q-28 -28 -56 0l-97 97q-25 25 3 53zM655 840l92 92q30 30 55 5l97 -97q28 -28 -2 -58l-92 -92
q-28 -28 -56 0l-97 97q-24 25 3 53zM828 1126l92 92q31 30 55 5l97 -97q28 -28 -2 -58l-92 -92q-28 -28 -55 0l-98 97q-25 25 3 53z" />
    <glyph glyph-name="uniFE9A" unicode="&#x62b;" horiz-adv-x="2050" arabic-form="final" 
d="M1002 840l92 92q30 30 55 5l97 -97q28 -28 -2 -58l-92 -92q-28 -28 -56 0l-97 97q-25 25 3 53zM655 840l92 92q30 30 55 5l97 -97q28 -28 -2 -58l-92 -92q-28 -28 -56 0l-97 97q-24 25 3 53zM828 1126l92 92q31 30 55 5l97 -97q28 -28 -2 -58l-92 -92q-28 -28 -55 0
l-98 97q-25 25 3 53zM537 180h814q277 0 276 220v232h177v-234q0 -218 235 -218h17q23 0 23 -83v-11q0 -86 -23 -86h-19q-219 0 -311 150l-2 3l-2 -3q-82 -150 -373 -150h-815q-432 0 -432 442v201h175v-200q0 -263 260 -263z" />
    <glyph glyph-name="uniFE9B" unicode="&#x62b;" horiz-adv-x="722" arabic-form="initial" 
d="M-5 0q-53 0 -53 86v11q0 83 53 83h233q202 0 202 193v294h174v-295q0 -372 -375 -372h-234zM418 1020l92 92q30 30 55 5l97 -97q28 -28 -2 -58l-92 -92q-28 -28 -56 0l-97 97q-25 25 3 53zM71 1020l92 92q30 30 55 5l97 -97q28 -28 -2 -58l-92 -92q-28 -28 -56 0l-97 97
q-24 25 3 53zM244 1306l92 92q31 30 55 5l97 -97q28 -28 -2 -58l-92 -92q-28 -28 -55 0l-98 97q-25 25 3 53z" />
    <glyph glyph-name="uniFE9C" unicode="&#x62b;" horiz-adv-x="857" arabic-form="medial" 
d="M430 1005l92 92q30 30 55 5l97 -97q28 -28 -2 -58l-92 -92q-28 -28 -56 0l-97 97q-25 25 3 53zM83 1005l92 92q30 30 55 5l97 -97q28 -28 -2 -58l-92 -92q-28 -28 -56 0l-97 97q-24 25 3 53zM256 1291l92 92q31 30 55 5l97 -97q28 -28 -2 -58l-92 -92q-28 -28 -55 0
l-98 97q-25 25 3 53zM862 0h-21q-221 0 -308 136q-103 -136 -357 -136h-181q-53 0 -53 86v11q0 42 13.5 62.5t39.5 20.5h186q256 0 256 195v258h176v-258q0 -195 227 -195h22q23 0 23 -83v-11q0 -86 -23 -86z" />
    <glyph glyph-name="uniFE9D" unicode="&#x62c;" horiz-adv-x="1319" arabic-form="isolated" 
d="M679 -92l91 91q35 34 64 5l98 -97q31 -32 -3 -67l-91 -91q-33 -32 -65 -1l-97 98q-29 29 3 62zM1076 322q-262 -37 -445 -108q-178 -69 -267 -167q-90 -99 -90 -227q-2 -339 530 -339h412v-176h-424q-389 1 -550 155q-143 138 -140 354q6 526 822 649l6 1l-5 3l-118 68
q-269 155 -491 -21l-71 -57l-115 129l61 52q314 265 655 68l189 -109q102 -58 180 -74v-182q-69 -9 -139 -19z" />
    <glyph glyph-name="uniFE9E" unicode="&#x62c;" horiz-adv-x="1359" arabic-form="final" 
d="M599 -122l91 91q35 34 64 5l98 -97q31 -32 -3 -67l-91 -91q-33 -32 -65 -1l-97 98q-29 29 3 62zM925 467l-118 68q-269 155 -491 -21l-71 -57l-115 129l61 52q314 265 655 68l189 -109q102 -58 180 -74v-179q-78 -7 -137 -19h-2v-2q1 -143 237 -143h51q23 0 23 -83v-11
q0 -86 -23 -86h-52q-176 0 -272 71t-114 212v2h-2q-324 -50 -487 -166t-163 -299q-2 -339 530 -339h412v-176h-424q-389 1 -550 155q-143 138 -140 354q6 526 822 649l6 1z" />
    <glyph glyph-name="uniFE9F" unicode="&#x62c;" horiz-adv-x="1282" arabic-form="initial" 
d="M377 -302l91 91q35 34 64 5l98 -97q31 -32 -3 -67l-91 -91q-33 -32 -65 -1l-97 98q-29 29 3 62zM-5 0q-53 0 -53 86v11q0 42 13 63q14 20 40 20h305q209 0 386 92l278 145l3 2l-3 2l-190 110q-268 155 -490 -21l-72 -57l-115 129l61 51q315 266 655 69l189 -109
q101 -58 180 -75v-179l-408 -221q-216 -118 -472 -118h-307z" />
    <glyph glyph-name="uniFEA0" unicode="&#x62c;" horiz-adv-x="1329" arabic-form="medial" 
d="M377 -302l91 91q35 34 64 5l98 -97q31 -32 -3 -67l-91 -91q-33 -32 -65 -1l-97 98q-29 29 3 62zM891 181l-117 -63q-216 -118 -472 -118h-307q-53 0 -53 86v11q0 42 13 63q14 20 40 20h305q209 0 386 92l278 145l3 2l-3 2l-190 110q-268 155 -490 -21l-72 -57l-115 129
l61 51q315 266 655 69l189 -109q99 -57 180 -75v-179l-154 -83l-2 -1l2 -2q71 -73 185 -73h121q23 0 23 -83v-11q0 -43 -6 -65q-6 -21 -17 -21h-118q-218 0 -322 181l-1 1z" />
    <glyph glyph-name="uniFEA1" unicode="&#x62d;" horiz-adv-x="1319" arabic-form="isolated" 
d="M1076 322q-262 -37 -445 -108q-178 -69 -267 -167q-90 -99 -90 -227q-2 -339 530 -339h412v-176h-424q-389 1 -550 155q-143 138 -140 354q6 526 822 649l6 1l-5 3l-118 68q-269 155 -491 -21l-71 -57l-115 129l61 52q314 265 655 68l189 -109q102 -58 180 -74v-182
q-69 -9 -139 -19z" />
    <glyph glyph-name="uniFEA2" unicode="&#x62d;" horiz-adv-x="1359" arabic-form="final" 
d="M925 467l-118 68q-269 155 -491 -21l-71 -57l-115 129l61 52q314 265 655 68l189 -109q102 -58 180 -74v-179q-78 -7 -137 -19h-2v-2q1 -143 237 -143h51q23 0 23 -83v-11q0 -86 -23 -86h-52q-176 0 -272 71t-114 212v2h-2q-324 -50 -487 -166t-163 -299
q-2 -339 530 -339h412v-176h-424q-389 1 -550 155q-143 138 -140 354q6 526 822 649l6 1z" />
    <glyph glyph-name="uniFEA3" unicode="&#x62d;" horiz-adv-x="1282" arabic-form="initial" 
d="M-5 0q-53 0 -53 86v11q0 42 13 63q14 20 40 20h305q209 0 386 92l278 145l3 2l-3 2l-190 110q-268 155 -490 -21l-72 -57l-115 129l61 51q315 266 655 69l189 -109q101 -58 180 -75v-179l-408 -221q-216 -118 -472 -118h-307z" />
    <glyph glyph-name="uniFEA4" unicode="&#x62d;" horiz-adv-x="1329" arabic-form="medial" 
d="M891 181l-117 -63q-216 -118 -472 -118h-307q-53 0 -53 86v11q0 42 13 63q14 20 40 20h305q209 0 386 92l278 145l3 2l-3 2l-190 110q-268 155 -490 -21l-72 -57l-115 129l61 51q315 266 655 69l189 -109q99 -57 180 -75v-179l-154 -83l-2 -1l2 -2q71 -73 185 -73h121
q23 0 23 -83v-11q0 -43 -6 -65q-6 -21 -17 -21h-118q-218 0 -322 181l-1 1z" />
    <glyph glyph-name="uniFEA5" unicode="&#x62e;" horiz-adv-x="1319" arabic-form="isolated" 
d="M460 1179l91 91q35 34 64 5l98 -97q31 -32 -3 -67l-91 -91q-33 -32 -65 -1l-97 98q-29 29 3 62zM1076 322q-262 -37 -445 -108q-178 -69 -267 -167q-90 -99 -90 -227q-2 -339 530 -339h412v-176h-424q-389 1 -550 155q-143 138 -140 354q6 526 822 649l6 1l-5 3l-118 68
q-269 155 -491 -21l-71 -57l-115 129l61 52q314 265 655 68l189 -109q102 -58 180 -74v-182q-69 -9 -139 -19z" />
    <glyph glyph-name="uniFEA6" unicode="&#x62e;" horiz-adv-x="1359" arabic-form="final" 
d="M460 1179l91 91q35 34 64 5l98 -97q31 -32 -3 -67l-91 -91q-33 -32 -65 -1l-97 98q-29 29 3 62zM925 467l-118 68q-269 155 -491 -21l-71 -57l-115 129l61 52q314 265 655 68l189 -109q102 -58 180 -74v-179q-78 -7 -137 -19h-2v-2q1 -143 237 -143h51q23 0 23 -83v-11
q0 -86 -23 -86h-52q-176 0 -272 71t-114 212v2h-2q-324 -50 -487 -166t-163 -299q-2 -339 530 -339h412v-176h-424q-389 1 -550 155q-143 138 -140 354q6 526 822 649l6 1z" />
    <glyph glyph-name="uniFEA7" unicode="&#x62e;" horiz-adv-x="1282" arabic-form="initial" 
d="M429 1179l91 91q35 34 64 5l98 -97q31 -32 -3 -67l-91 -91q-33 -32 -65 -1l-97 98q-29 29 3 62zM-5 0q-53 0 -53 86v11q0 42 13 63q14 20 40 20h305q209 0 386 92l278 145l3 2l-3 2l-190 110q-268 155 -490 -21l-72 -57l-115 129l61 51q315 266 655 69l189 -109
q101 -58 180 -75v-179l-408 -221q-216 -118 -472 -118h-307z" />
    <glyph glyph-name="uniFEA8" unicode="&#x62e;" horiz-adv-x="1329" arabic-form="medial" 
d="M429 1179l91 91q35 34 64 5l98 -97q31 -32 -3 -67l-91 -91q-33 -32 -65 -1l-97 98q-29 29 3 62zM891 181l-117 -63q-216 -118 -472 -118h-307q-53 0 -53 86v11q0 42 13 63q14 20 40 20h305q209 0 386 92l278 145l3 2l-3 2l-190 110q-268 155 -490 -21l-72 -57l-115 129
l61 51q315 266 655 69l189 -109q99 -57 180 -75v-179l-154 -83l-2 -1l2 -2q71 -73 185 -73h121q23 0 23 -83v-11q0 -43 -6 -65q-6 -21 -17 -21h-118q-218 0 -322 181l-1 1z" />
    <glyph glyph-name="uniFEA9" unicode="&#x62f;" horiz-adv-x="979" arabic-form="isolated" 
d="M467 0h-364v180h365q262 0 263 127q0 68 -102 186l-274 316l121 136l298 -348q134 -156 133 -302q-1 -295 -440 -295z" />
    <glyph glyph-name="uniFEAA" unicode="&#x62f;" horiz-adv-x="1204" arabic-form="final" 
d="M1209 0h-16q-186 0 -322 171l-3 3l-1 -3q-64 -171 -384 -171h-379v180h366q18 0 35 1q228 8 224 124q-2 36 -27.5 83.5t-75.5 105.5l-274 315l124 135l535 -645q99 -119 189 -119h9q23 0 23 -83v-11q0 -43 -6 -64.5t-17 -21.5z" />
    <glyph glyph-name="uniFEAB" unicode="&#x630;" horiz-adv-x="1011" arabic-form="isolated" 
d="M255 1292l91 91q35 34 64 5l98 -97q31 -32 -3 -67l-91 -91q-33 -32 -65 -1l-97 98q-29 29 3 62zM468 0h-364v180h365q262 0 263 127q0 68 -102 186l-274 316l121 136l298 -348q134 -156 133 -302q-1 -295 -440 -295z" />
    <glyph glyph-name="uniFEAC" unicode="&#x630;" horiz-adv-x="1204" arabic-form="final" 
d="M255 1292l91 91q35 34 64 5l98 -97q31 -32 -3 -67l-91 -91q-33 -32 -65 -1l-97 98q-29 29 3 62zM1209 0h-16q-186 0 -322 171l-3 3l-1 -3q-64 -171 -384 -171h-379v180h366q18 0 35 1q228 8 224 124q-2 36 -27.5 83.5t-75.5 105.5l-274 315l124 135l535 -645
q99 -119 189 -119h9q23 0 23 -83v-11q0 -43 -6 -64.5t-17 -21.5z" />
    <glyph glyph-name="uniFEAD" unicode="&#x631;" horiz-adv-x="755" arabic-form="isolated" 
d="M94 -284q388 -1 388 355v534l174 1v-538q0 -525 -560 -529l-72 -1v178h70z" />
    <glyph glyph-name="uniFEAE" unicode="&#x631;" horiz-adv-x="883" arabic-form="final" 
d="M888 0h-16q-84 0 -137 19q-52 20 -73 58l-4 7v-8q0 -539 -563 -538h-71v179h67q393 -1 393 362v526l173 1v-223q0 -203 215 -203h16q23 0 23 -83v-11q0 -86 -23 -86z" />
    <glyph glyph-name="uniFEAF" unicode="&#x632;" horiz-adv-x="755" arabic-form="isolated" 
d="M399 1054l91 91q35 34 64 5l98 -97q31 -32 -3 -67l-91 -91q-33 -32 -65 -1l-97 98q-29 29 3 62zM94 -284q388 -1 388 355v534l174 1v-538q0 -525 -560 -529l-72 -1v178h70z" />
    <glyph glyph-name="uniFEB0" unicode="&#x632;" horiz-adv-x="883" arabic-form="final" 
d="M405 1054l91 91q35 34 64 5l98 -97q31 -32 -3 -67l-91 -91q-33 -32 -65 -1l-97 98q-29 29 3 62zM888 0h-16q-84 0 -137 19q-52 20 -73 58l-4 7v-8q0 -539 -563 -538h-71v179h67q393 -1 393 362v526l173 1v-223q0 -203 215 -203h16q23 0 23 -83v-11q0 -86 -23 -86z" />
    <glyph glyph-name="uniFEB1" unicode="&#x633;" horiz-adv-x="2484" arabic-form="isolated" 
d="M1533 -1q-124 1 -202 82l-3 4v-5v-28q0 -503 -579 -503h-55q-591 0 -591 552v341h177v-340q0 -372 416 -372h51q417 0 417 317v584h176v-234q0 -217 193 -218q169 -1 170 193v261h175l2 -259q1 -194 175 -195q152 -1 152 191v296h175v-304q0 -363 -326 -363
q-184 0 -257 143q-68 -143 -266 -143z" />
    <glyph glyph-name="uniFEB2" unicode="&#x633;" horiz-adv-x="2632" arabic-form="final" 
d="M1880 374q1 -194 168 -195q165 -1 165 194l-1 261h174l1 -259q0 -195 223 -195h27q11 0 17 -20.5t6 -62.5v-11q0 -86 -23 -86h-20q-218 0 -307 136l-2 3l-2 -3q-63 -136 -250 -137q-185 0 -255 139l-2 4l-2 -4q-66 -141 -264 -139q-124 1 -202 82l-3 4v-5v-28
q0 -503 -579 -503h-55q-591 0 -591 552v341h177v-340q0 -372 416 -372h51q417 0 417 317v584h176v-234q0 -217 194 -218q168 -1 169 193v261h175z" />
    <glyph glyph-name="uniFEB3" unicode="&#x633;" horiz-adv-x="1643" arabic-form="initial" 
d="M1038 375q1 -194 179 -195q148 -1 148 191v295h175v-303q0 -363 -315 -363q-194 0 -266 137l-2 4l-1 -4q-64 -137 -274 -137q-191 0 -264 138l-1 3l-2 -3q-84 -138 -326 -138h-94q-53 0 -53 86v11q0 42 13.5 62.5t39.5 20.5h95q232 0 232 194v260h176l1 -262
q1 -191 184 -192q178 -1 178 193l1 261h175z" />
    <glyph glyph-name="uniFEB4" unicode="&#x633;" horiz-adv-x="1791" arabic-form="medial" 
d="M1546 376q1 -196 223 -196h28q23 0 23 -83v-11q0 -22 -1.5 -38.5t-4.5 -27t-7.5 -15.5t-9.5 -5h-20q-219 0 -308 136l-2 3l-1 -3q-61 -136 -257 -136q-90 0 -152.5 34t-98.5 103l-1 3l-2 -3q-72 -137 -273 -137q-191 0 -264 139l-1 3l-2 -3q-84 -139 -326 -139h-94
q-53 0 -53 86v11q0 42 13.5 62.5t39.5 20.5h95q232 0 232 194v260h176l1 -262q1 -191 184 -192q179 -1 179 194v260h176l1 -262q1 -191 171 -192q162 -1 162 193v261h173z" />
    <glyph glyph-name="uniFEB5" unicode="&#x634;" horiz-adv-x="2484" arabic-form="isolated" 
d="M1802 1013l92 92q30 30 55 5l97 -97q28 -28 -2 -58l-92 -92q-28 -28 -56 0l-97 97q-25 25 3 53zM1455 1013l92 92q30 30 55 5l97 -97q28 -28 -2 -58l-92 -92q-28 -28 -56 0l-97 97q-24 25 3 53zM1628 1299l92 92q31 30 55 5l97 -97q28 -28 -2 -58l-92 -92q-28 -28 -55 0
l-98 97q-25 25 3 53zM1533 -1q-124 1 -202 82l-3 4v-5v-28q0 -503 -579 -503h-55q-591 0 -591 552v341h177v-340q0 -372 416 -372h51q417 0 417 317v584h176v-234q0 -217 193 -218q169 -1 170 193v261h175l2 -259q1 -194 175 -195q152 -1 152 191v296h175v-304
q0 -363 -326 -363q-184 0 -257 143q-68 -143 -266 -143z" />
    <glyph glyph-name="uniFEB6" unicode="&#x634;" horiz-adv-x="2632" arabic-form="final" 
d="M1802 1013l92 92q30 30 55 5l97 -97q28 -28 -2 -58l-92 -92q-28 -28 -56 0l-97 97q-25 25 3 53zM1455 1013l92 92q30 30 55 5l97 -97q28 -28 -2 -58l-92 -92q-28 -28 -56 0l-97 97q-24 25 3 53zM1628 1299l92 92q31 30 55 5l97 -97q28 -28 -2 -58l-92 -92q-28 -28 -55 0
l-98 97q-25 25 3 53zM1880 374q1 -194 168 -195q165 -1 165 194l-1 261h174l1 -259q0 -195 223 -195h27q11 0 17 -20.5t6 -62.5v-11q0 -86 -23 -86h-20q-218 0 -307 136l-2 3l-2 -3q-63 -136 -250 -137q-185 0 -255 139l-2 4l-2 -4q-66 -141 -264 -139q-124 1 -202 82l-3 4
v-5v-28q0 -503 -579 -503h-55q-591 0 -591 552v341h177v-340q0 -372 416 -372h51q417 0 417 317v584h176v-234q0 -217 194 -218q168 -1 169 193v261h175z" />
    <glyph glyph-name="uniFEB7" unicode="&#x634;" horiz-adv-x="1643" arabic-form="initial" 
d="M973 1013l92 92q30 30 55 5l97 -97q28 -28 -2 -58l-92 -92q-28 -28 -56 0l-97 97q-25 25 3 53zM626 1013l92 92q30 30 55 5l97 -97q28 -28 -2 -58l-92 -92q-28 -28 -56 0l-97 97q-24 25 3 53zM799 1299l92 92q31 30 55 5l97 -97q28 -28 -2 -58l-92 -92q-28 -28 -55 0
l-98 97q-25 25 3 53zM1038 375q1 -194 179 -195q148 -1 148 191v295h175v-303q0 -363 -315 -363q-194 0 -266 137l-2 4l-1 -4q-64 -137 -274 -137q-191 0 -264 138l-1 3l-2 -3q-84 -138 -326 -138h-94q-53 0 -53 86v11q0 42 13.5 62.5t39.5 20.5h95q232 0 232 194v260h176
l1 -262q1 -191 184 -192q178 -1 178 193l1 261h175z" />
    <glyph glyph-name="uniFEB8" unicode="&#x634;" horiz-adv-x="1791" arabic-form="medial" 
d="M973 1013l92 92q30 30 55 5l97 -97q28 -28 -2 -58l-92 -92q-28 -28 -56 0l-97 97q-25 25 3 53zM626 1013l92 92q30 30 55 5l97 -97q28 -28 -2 -58l-92 -92q-28 -28 -56 0l-97 97q-24 25 3 53zM799 1299l92 92q31 30 55 5l97 -97q28 -28 -2 -58l-92 -92q-28 -28 -55 0
l-98 97q-25 25 3 53zM1546 376q1 -196 223 -196h28q23 0 23 -83v-11q0 -22 -1.5 -38.5t-4.5 -27t-7.5 -15.5t-9.5 -5h-20q-219 0 -308 136l-2 3l-1 -3q-61 -136 -257 -136q-90 0 -152.5 34t-98.5 103l-1 3l-2 -3q-72 -137 -273 -137q-191 0 -264 139l-1 3l-2 -3
q-84 -139 -326 -139h-94q-53 0 -53 86v11q0 42 13.5 62.5t39.5 20.5h95q232 0 232 194v260h176l1 -262q1 -191 184 -192q179 -1 179 194v260h176l1 -262q1 -191 171 -192q162 -1 162 193v261h173z" />
    <glyph glyph-name="uniFEB9" unicode="&#x635;" horiz-adv-x="2515" arabic-form="isolated" 
d="M1340 417q0 -185 97 -210h2l1 1q230 567 578 567q205 0 311 -141q84 -110 84 -267q-1 -177 -134 -281q-112 -86 -318 -86h-340q-235 0 -293 87v-35q0 -503 -579 -503h-55q-591 0 -591 552v341h177v-340q0 -372 416 -372h51q417 0 417 317v584h176v-214zM2227 422
q-40 170 -220 170q-201 0 -387 -411h3h358q148 0 207 53q45 39 45 113q0 45 -6 75z" />
    <glyph glyph-name="uniFEBA" unicode="&#x635;" horiz-adv-x="2583" arabic-form="final" 
d="M1961 0h-345q-233 0 -285 81l-3 6v-7v-28q0 -503 -579 -503h-55q-591 0 -591 552v341h177v-340q0 -372 416 -372h51q417 0 417 317v584h176v-214q0 -186 98 -210h1l1 1q230 567 578 567q208 0 312 -141q82 -112 83 -279q0 -64 -20 -119l-1 -1l1 -1q25 -27 68 -40.5
t105 -13.5h23q23 0 23 -86v-11q0 -42 -6 -62.5t-17 -20.5h-29q-193 0 -279 89l-1 1l-2 -1q-113 -89 -317 -89zM2007 592q-100 0 -196.5 -102.5t-189.5 -306.5l-1 -2h3h358q150 0 207 50q45 39 45 113q0 45 -6 75q-39 173 -220 173z" />
    <glyph glyph-name="uniFEBB" unicode="&#x635;" horiz-adv-x="1645" arabic-form="initial" 
d="M1409 86q-114 -86 -318 -86h-340q-301 0 -380 135l-2 3l-2 -3q-83 -135 -309 -135h-63q-53 0 -53 86v11q0 42 13 63q14 20 40 20h56q219 0 219 206v247h173l1 -251q1 -175 124 -175h1l1 1q230 567 578 567q205 0 311 -141q83 -109 84 -267q1 -177 -134 -281zM1357 422
q-40 170 -220 170q-201 0 -386 -410l-1 -2h3h358q147 0 207 54q45 39 45 113q0 45 -6 75z" />
    <glyph glyph-name="uniFEBC" unicode="&#x635;" horiz-adv-x="1713" arabic-form="medial" 
d="M1091 0h-340q-301 0 -380 135l-2 3l-2 -3q-83 -135 -309 -135h-63q-53 0 -53 86v11q0 42 13.5 62.5t39.5 20.5h56q219 0 219 206v247h173l1 -251q1 -175 124 -175h1l1 1q229 568 577 567q207 0 312 -141q82 -111 84 -279q0 -64 -21 -119v-1l1 -1q49 -54 173 -54h23
q23 0 23 -86v-11q0 -83 -23 -83h-29q-193 0 -279 89l-1 1l-2 -1q-113 -89 -317 -89zM1137 592q-201 3 -386 -410l-1 -2h3l358 1q150 0 207 50q45 39 45 113q0 45 -6 75q-39 171 -220 173z" />
    <glyph glyph-name="uniFEBD" unicode="&#x636;" horiz-adv-x="2515" arabic-form="isolated" 
d="M1814 1174l91 91q35 34 64 5l98 -97q31 -32 -3 -67l-91 -91q-33 -32 -65 -1l-97 98q-29 29 3 62zM1340 417q0 -185 97 -210h2l1 1q230 567 578 567q205 0 311 -141q84 -110 84 -267q-1 -177 -134 -281q-112 -86 -318 -86h-340q-235 0 -293 87v-35q0 -503 -579 -503h-55
q-591 0 -591 552v341h177v-340q0 -372 416 -372h51q417 0 417 317v584h176v-214zM2227 422q-40 170 -220 170q-201 0 -387 -411h3h358q148 0 207 53q45 39 45 113q0 45 -6 75z" />
    <glyph glyph-name="uniFEBE" unicode="&#x636;" horiz-adv-x="2583" arabic-form="final" 
d="M1814 1174l91 91q35 34 64 5l98 -97q31 -32 -3 -67l-91 -91q-33 -32 -65 -1l-97 98q-29 29 3 62zM1961 0h-345q-233 0 -285 81l-3 6v-7v-28q0 -503 -579 -503h-55q-591 0 -591 552v341h177v-340q0 -372 416 -372h51q417 0 417 317v584h176v-214q0 -186 98 -210h1l1 1
q230 567 578 567q208 0 312 -141q82 -112 83 -279q0 -64 -20 -119l-1 -1l1 -1q25 -27 68 -40.5t105 -13.5h23q23 0 23 -86v-11q0 -42 -6 -62.5t-17 -20.5h-29q-193 0 -279 89l-1 1l-2 -1q-113 -89 -317 -89zM2007 592q-100 0 -196.5 -102.5t-189.5 -306.5l-1 -2h3h358
q150 0 207 50q45 39 45 113q0 45 -6 75q-39 173 -220 173z" />
    <glyph glyph-name="uniFEBF" unicode="&#x636;" horiz-adv-x="1645" arabic-form="initial" 
d="M939 1173l91 91q35 34 64 5l98 -97q31 -32 -3 -67l-91 -91q-33 -32 -65 -1l-97 98q-29 29 3 62zM1409 86q-114 -86 -318 -86h-340q-301 0 -380 135l-2 3l-2 -3q-83 -135 -309 -135h-63q-53 0 -53 86v11q0 42 13 63q14 20 40 20h56q219 0 219 206v247h173l1 -251
q1 -175 124 -175h1l1 1q230 567 578 567q205 0 311 -141q83 -109 84 -267q1 -177 -134 -281zM1357 422q-40 170 -220 170q-201 0 -386 -410l-1 -2h3h358q147 0 207 54q45 39 45 113q0 45 -6 75z" />
    <glyph glyph-name="uniFEC0" unicode="&#x636;" horiz-adv-x="1713" arabic-form="medial" 
d="M939 1173l91 91q35 34 64 5l98 -97q31 -32 -3 -67l-91 -91q-33 -32 -65 -1l-97 98q-29 29 3 62zM1091 0h-340q-301 0 -380 135l-2 3l-2 -3q-83 -135 -309 -135h-63q-53 0 -53 86v11q0 42 13.5 62.5t39.5 20.5h56q219 0 219 206v247h173l1 -251q1 -175 124 -175h1l1 1
q229 568 577 567q207 0 312 -141q82 -111 84 -279q0 -64 -21 -119v-1l1 -1q49 -54 173 -54h23q23 0 23 -86v-11q0 -83 -23 -83h-29q-193 0 -279 89l-1 1l-2 -1q-113 -89 -317 -89zM1137 592q-201 3 -386 -410l-1 -2h3l358 1q150 0 207 50q45 39 45 113q0 45 -6 75
q-39 171 -220 173z" />
    <glyph glyph-name="uniFEC1" unicode="&#x637;" horiz-adv-x="1369" arabic-form="isolated" 
d="M815 0h-711v180h179h1l1 1q14 41 108 218v1v935h166v-704v-5l3 3q148 146 310 146q201 0 311 -141q83 -107 83 -267q1 -177 -134 -281q-113 -86 -317 -86zM861 592q-202 0 -386 -409l-1 -2h3h358q150 0 207 52q43 40 45 114q0 45 -7 75q-39 170 -219 170z" />
    <glyph glyph-name="uniFEC2" unicode="&#x637;" horiz-adv-x="1437" arabic-form="final" 
d="M815 0h-711v180h179h1l1 1q37 81 108 215v1v938h166v-704v-5l3 3q148 146 310 146q206 0 311 -141q82 -111 84 -280q0 -63 -21 -118v-1l1 -1q49 -54 173 -54h23q23 0 23 -86v-11q0 -83 -23 -83h-29q-193 0 -279 88l-1 2l-2 -1q-113 -89 -317 -89zM861 592
q-202 0 -386 -409l-1 -2h3h358q150 0 207 49q45 40 45 114q0 45 -6 75q-40 173 -220 173z" />
    <glyph glyph-name="uniFEC3" unicode="&#x637;" horiz-adv-x="1166" arabic-form="initial" 
d="M613 0h-618q-53 0 -53 86v11q0 42 13 63q14 20 40 20h86h1l1 1q11 32 107 215l1 1v938h166v-704v-5l3 3q148 146 310 146q203 0 311 -141q83 -108 83 -270q0 -178 -134 -279q-113 -85 -317 -85zM659 592q-202 0 -386 -409l-2 -2h3h359q149 0 207 49q44 39 44 114
q1 45 -6 75q-39 173 -219 173z" />
    <glyph glyph-name="uniFEC4" unicode="&#x637;" horiz-adv-x="1234" arabic-form="medial" 
d="M613 0h-618q-53 0 -53 86v11q0 83 53 83h86h1l1 1q32 71 107 215l1 1v938h166v-704v-5l3 4q148 145 309 145q104 0 182 -35q78 -36 130 -106q81 -109 83 -279q1 -55 -14 -103q-5 -13 -6 -16v-1l1 -1q49 -54 173 -54h23q23 0 23 -86v-11q0 -83 -23 -83h-29q-193 0 -279 89
l-2 1l-1 -1q-113 -89 -317 -89zM659 592q-202 0 -386 -408l-2 -3h3h359q150 0 207 50q45 39 45 113q0 45 -7 75q-39 173 -219 173z" />
    <glyph glyph-name="uniFEC5" unicode="&#x638;" horiz-adv-x="1369" arabic-form="isolated" 
d="M770 1173l91 91q35 34 64 5l98 -97q31 -32 -3 -67l-91 -91q-33 -32 -65 -1l-97 98q-29 29 3 62zM815 0h-711v180h179h1l1 1q14 41 108 218v1v935h166v-704v-5l3 3q148 146 310 146q201 0 311 -141q83 -107 83 -267q1 -177 -134 -281q-113 -86 -317 -86zM861 592
q-202 0 -386 -409l-1 -2h3h358q150 0 207 52q43 40 45 114q0 45 -7 75q-39 170 -219 170z" />
    <glyph glyph-name="uniFEC6" unicode="&#x638;" horiz-adv-x="1437" arabic-form="final" 
d="M770 1173l91 91q35 34 64 5l98 -97q31 -32 -3 -67l-91 -91q-33 -32 -65 -1l-97 98q-29 29 3 62zM815 0h-711v180h179h1l1 1q37 81 108 215v1v938h166v-704v-5l3 3q148 146 310 146q206 0 311 -141q82 -111 84 -280q0 -63 -21 -118v-1l1 -1q49 -54 173 -54h23q23 0 23 -86
v-11q0 -83 -23 -83h-29q-193 0 -279 88l-1 2l-2 -1q-113 -89 -317 -89zM861 592q-202 0 -386 -409l-1 -2h3h358q150 0 207 49q45 40 45 114q0 45 -6 75q-40 173 -220 173z" />
    <glyph glyph-name="uniFEC7" unicode="&#x638;" horiz-adv-x="1166" arabic-form="initial" 
d="M564 1173l91 91q35 34 64 5l98 -97q31 -32 -3 -67l-91 -91q-33 -32 -65 -1l-97 98q-29 29 3 62zM613 0h-618q-53 0 -53 86v11q0 42 13 63q14 20 40 20h86h1l1 1q11 32 107 215l1 1v938h166v-704v-5l3 3q148 146 310 146q203 0 311 -141q83 -108 83 -270q0 -178 -134 -279
q-113 -85 -317 -85zM659 592q-202 0 -386 -409l-2 -2h3h359q149 0 207 49q44 39 44 114q1 45 -6 75q-39 173 -219 173z" />
    <glyph glyph-name="uniFEC8" unicode="&#x638;" horiz-adv-x="1234" arabic-form="medial" 
d="M564 1173l91 91q35 34 64 5l98 -97q31 -32 -3 -67l-91 -91q-33 -32 -65 -1l-97 98q-29 29 3 62zM613 0h-618q-53 0 -53 86v11q0 83 53 83h86h1l1 1q32 71 107 215l1 1v938h166v-704v-5l3 4q148 145 309 145q104 0 182 -35q78 -36 130 -106q81 -109 83 -279
q1 -55 -14 -103q-5 -13 -6 -16v-1l1 -1q49 -54 173 -54h23q23 0 23 -86v-11q0 -83 -23 -83h-29q-193 0 -279 89l-2 1l-1 -1q-113 -89 -317 -89zM659 592q-202 0 -386 -408l-2 -3h3h359q150 0 207 50q45 39 45 113q0 45 -7 75q-39 173 -219 173z" />
    <glyph glyph-name="uniFEC9" unicode="&#x639;" horiz-adv-x="1249" arabic-form="isolated" 
d="M102 -178q5 354 396 490l3 1l-2 2q-131 114 -131 258q1 172 109 283q110 112 286 112q185 0 306 -150l-72 -132q-101 98 -230 97q-120 0 -186 -88q-37 -50 -38 -120q0 -120 157 -209h1q109 8 240 8h168v-181h-184q-653 -1 -651 -373q1 -340 530 -339h342v-176h-354
q-389 1 -550 155q-143 138 -140 362z" />
    <glyph glyph-name="uniFECA" unicode="&#x639;" horiz-adv-x="1237" arabic-form="final" 
d="M102 -186q3 161 101 274.5t293 180.5l3 1l-3 3q-261 187 -259 298q3 119 137 183q88 42 301 42q278 0 372 -86q38 -35 56.5 -70t18.5 -71q1 -173 -310 -325l-3 -2l3 -2q95 -60 337 -60h93q23 0 23 -83v-11q0 -43 -6 -64.5t-17 -21.5h-104q-282 0 -488 150h-1h-1
q-370 -117 -374 -330v-8q0 -332 530 -331h322v-176h-334q-390 1 -550 155q-143 138 -140 354zM939 539q-2 92 -267 93q-236 0 -236 -86q0 -21 97 -98q39 -32 66 -53t43 -33.5t21 -14.5l1 -1l1 1q130 55 184 90q91 59 90 102z" />
    <glyph glyph-name="uniFECB" unicode="&#x639;" horiz-adv-x="1002" arabic-form="initial" 
d="M-5 0q-53 0 -53 86v11q0 42 13.5 62.5t39.5 20.5h284h5l-4 4q-132 114 -132 267q1 171 110 283q110 112 286 112q195 0 317 -149l-73 -133q-102 98 -239 98q-120 0 -186 -88q-40 -53 -40 -122q0 -96 95 -171q84 -69 136 -70q37 0 134 23l212 51v-181q-351 -104 -615 -104
h-290z" />
    <glyph glyph-name="uniFECC" unicode="&#x639;" horiz-adv-x="1154" arabic-form="medial" 
d="M1159 0h-100q-141 0 -254 30t-197 90l-1 1l-1 -1q-148 -120 -570 -120h-41q-53 0 -53 86v11q0 42 13.5 62.5t39.5 20.5h40q332 0 422 45l3 2l-3 2q-306 164 -303 318q2 54 37 97.5t104 76.5q94 45 297 45q200 0 311 -46q65 -27 97.5 -69.5t32.5 -101.5q2 -151 -286 -326
l-4 -3l4 -1q122 -39 318 -39h94q23 0 23 -83v-11q0 -22 -1.5 -38.5t-4.5 -27t-7.5 -15.5t-9.5 -5zM843 514q-2 87 -244 88q-123 0 -184.5 -22t-61.5 -68q0 -14 24 -37.5t73 -57.5q135 -91 158 -100h1q16 4 142 98q93 70 92 99z" />
    <glyph glyph-name="uniFECD" unicode="&#x63a;" horiz-adv-x="1249" arabic-form="isolated" 
d="M617 1331l91 91q35 34 64 5l98 -97q31 -32 -3 -67l-91 -91q-33 -32 -65 -1l-97 98q-29 29 3 62zM102 -178q5 354 396 490l3 1l-2 2q-131 114 -131 258q1 172 109 283q110 112 286 112q185 0 306 -150l-72 -132q-101 98 -230 97q-120 0 -186 -88q-37 -50 -38 -120
q0 -120 157 -209h1q109 8 240 8h168v-181h-184q-653 -1 -651 -373q1 -340 530 -339h342v-176h-354q-389 1 -550 155q-143 138 -140 362z" />
    <glyph glyph-name="uniFECE" unicode="&#x63a;" horiz-adv-x="1237" arabic-form="final" 
d="M550 1184l91 91q35 34 64 5l98 -97q31 -32 -3 -67l-91 -91q-33 -32 -65 -1l-97 98q-29 29 3 62zM102 -186q3 161 101 274.5t293 180.5l3 1l-3 3q-261 187 -259 298q3 119 137 183q88 42 301 42q278 0 372 -86q38 -35 56.5 -70t18.5 -71q1 -173 -310 -325l-3 -2l3 -2
q95 -60 337 -60h93q23 0 23 -83v-11q0 -43 -6 -64.5t-17 -21.5h-104q-282 0 -488 150h-1h-1q-370 -117 -374 -330v-8q0 -332 530 -331h322v-176h-334q-390 1 -550 155q-143 138 -140 354zM939 539q-2 92 -267 93q-236 0 -236 -86q0 -21 97 -98q39 -32 66 -53t43 -33.5
t21 -14.5l1 -1l1 1q130 55 184 90q91 59 90 102z" />
    <glyph glyph-name="uniFECF" unicode="&#x63a;" horiz-adv-x="1002" arabic-form="initial" 
d="M407 1237l91 91q35 34 64 5l98 -97q31 -32 -3 -67l-91 -91q-33 -32 -65 -1l-97 98q-29 29 3 62zM-5 0q-53 0 -53 86v11q0 42 13.5 62.5t39.5 20.5h284h5l-4 4q-132 114 -132 267q1 171 110 283q110 112 286 112q195 0 317 -149l-73 -133q-102 98 -239 98q-120 0 -186 -88
q-40 -53 -40 -122q0 -96 95 -171q84 -69 136 -70q37 0 134 23l212 51v-181q-351 -104 -615 -104h-290z" />
    <glyph glyph-name="uniFED0" unicode="&#x63a;" horiz-adv-x="1154" arabic-form="medial" 
d="M457 1179l91 91q35 34 64 5l98 -97q31 -32 -3 -67l-91 -91q-33 -32 -65 -1l-97 98q-29 29 3 62zM1159 0h-100q-141 0 -254 30t-197 90l-1 1l-1 -1q-148 -120 -570 -120h-41q-53 0 -53 86v11q0 42 13.5 62.5t39.5 20.5h40q332 0 422 45l3 2l-3 2q-306 164 -303 318
q2 54 37 97.5t104 76.5q94 45 297 45q200 0 311 -46q65 -27 97.5 -69.5t32.5 -101.5q2 -151 -286 -326l-4 -3l4 -1q122 -39 318 -39h94q23 0 23 -83v-11q0 -22 -1.5 -38.5t-4.5 -27t-7.5 -15.5t-9.5 -5zM843 514q-2 87 -244 88q-123 0 -184.5 -22t-61.5 -68q0 -14 24 -37.5
t73 -57.5q135 -91 158 -100h1q16 4 142 98q93 70 92 99z" />
    <glyph glyph-name="uniFED1" unicode="&#x641;" horiz-adv-x="1886" arabic-form="isolated" 
d="M1318 1345l91 91q35 34 64 5l98 -97q31 -32 -3 -67l-91 -91q-33 -32 -65 -1l-97 98q-29 29 3 62zM1288 0h-754q-432 0 -432 442v201h175v-200q0 -263 260 -263h754q330 0 330 148v23v2h-2q-79 -8 -151 -9q-356 0 -356 282q0 85 22 150t65 111q91 93 253 93
q332 0 332 -326v-319q0 -335 -496 -335zM1621 657q0 153 -167 152q-48 0 -82.5 -13t-56.5 -40q-38 -48 -38 -119q0 -120 199 -119q73 0 143 10h2v2v127z" />
    <glyph glyph-name="uniFED2" unicode="&#x641;" horiz-adv-x="2044" arabic-form="final" 
d="M1417 1152l91 91q35 34 64 5l98 -97q31 -32 -3 -67l-91 -91q-33 -32 -65 -1l-97 98q-29 29 3 62zM1374 430q0 -75 54.5 -128t131.5 -53q76 0 131 53q54 53 54 128t-54 128q-27 26 -60 39.5t-71 13.5q-39 0 -71.5 -13.5t-60 -40t-41 -58.5t-13.5 -69zM1557 80
q-42 -27 -95 -44.5t-118.5 -26.5t-142.5 -9h-667q-432 0 -432 442v201h175v-200q0 -263 261 -263h772h4l-3 4q-103 101 -103 247q-1 153 103 254t250 101t250 -101q101 -98 102 -253q0 -149 -102 -248l-3 -4h5h237q23 0 23 -83v-11q0 -86 -23 -86h-136q-204 0 -355 80l-1 1z
" />
    <glyph glyph-name="uniFED3" unicode="&#x641;" horiz-adv-x="870" arabic-form="initial" 
d="M-5 0q-53 0 -53 86v11q0 42 13.5 62.5t39.5 20.5h280q330 0 330 148v23v2h-2q-79 -8 -151 -9q-178 0 -267 70.5t-89 211.5q0 170 87 261q91 93 253 93q332 0 332 -326v-319q0 -335 -495 -335h-278zM605 657q0 76 -42 114.5t-125 37.5q-96 0 -139 -53q-38 -48 -38 -119
q0 -120 199 -119q73 0 143 10h2v2v127zM309 1344l91 91q35 34 64 5l98 -97q31 -32 -3 -67l-91 -91q-33 -32 -65 -1l-97 98q-29 29 3 62z" />
    <glyph glyph-name="uniFED4" unicode="&#x641;" horiz-adv-x="1022" arabic-form="medial" 
d="M403 1152l91 91q35 34 64 5l98 -97q31 -32 -3 -67l-91 -91q-33 -32 -65 -1l-97 98q-29 29 3 62zM1027 0h-136q-203 0 -355 80l-1 1l-1 -1q-171 -80 -354 -80h-185q-53 0 -53 86v11q0 83 53 83h292h5l-4 4q-103 102 -103 247q0 153 103 254q105 101 251 101t250 -101
q101 -98 101 -253q1 -149 -101 -248l-4 -4h5h237q23 0 23 -83v-11q0 -86 -23 -86zM352 430q0 -75 54 -128t131 -53t132 53q54 53 54 128t-54 128q-55 53 -132 53t-131 -53q-54 -54 -54 -128z" />
    <glyph glyph-name="uniFED5" unicode="&#x642;" horiz-adv-x="1434" arabic-form="isolated" 
d="M1026 1063l91 92q33 32 60 5l97 -97q30 -30 -2 -63l-92 -91q-30 -30 -60 0l-97 97q-25 28 3 57zM679 1063l91 92q33 32 60 5l97 -97q30 -30 -2 -63l-92 -91q-30 -30 -60 0l-97 97q-27 27 3 57zM1329 358l2 -424q2 -386 -542 -386h-98q-587 2 -588 554v340l175 1v-340
q0 -372 415 -370l95 1q374 2 372 203v64v2h-2h-161q-349 0 -348 342q1 184 88 282q89 100 259 100q149 1 238 -86q94 -91 95 -283zM816 346q0 -165 180 -165h162h2v2v169q-1 205 -168 204q-176 0 -176 -210z" />
    <glyph glyph-name="uniFED6" unicode="&#x642;" horiz-adv-x="1476" arabic-form="final" 
d="M1026 1063l91 92q33 32 60 5l97 -97q30 -30 -2 -63l-92 -91q-30 -30 -60 0l-97 97q-25 28 3 57zM679 1063l91 92q33 32 60 5l97 -97q30 -30 -2 -63l-92 -91q-30 -30 -60 0l-97 97q-27 27 3 57zM1329 358l1 -176v-2h2h150q23 0 23 -83v-11q0 -22 -1.5 -38.5t-4.5 -27
t-7.5 -15.5t-9.5 -5h-149h-2v-2v-64q0 -193 -135.5 -289.5t-406.5 -96.5h-98q-587 2 -588 554v340l175 1v-340q0 -372 415 -370l95 1q374 2 372 203v64v2h-2h-161q-349 0 -348 342q1 184 88 282q89 100 259 100q50 1 93 -8.5t79 -29t66 -48.5q93 -91 95 -283zM816 346
q0 -166 180 -166h162h2v2v170q-1 205 -168 204q-176 0 -176 -210z" />
    <glyph glyph-name="uniFED7" unicode="&#x642;" horiz-adv-x="870" arabic-form="initial" 
d="M-5 0q-53 0 -53 86v11q0 42 13.5 62.5t39.5 20.5h280q330 0 330 148v23v2h-2q-79 -8 -151 -9q-178 0 -267 70.5t-89 211.5q0 170 87 261q91 93 253 93q332 0 332 -326v-319q0 -335 -495 -335h-278zM605 657q0 76 -42 114.5t-125 37.5q-96 0 -139 -53q-38 -48 -38 -119
q0 -120 199 -119q73 0 143 10h2v2v127zM479 1310l91 92q33 32 60 5l97 -97q30 -30 -2 -63l-92 -91q-30 -30 -60 0l-97 97q-25 28 3 57zM132 1310l91 92q33 32 60 5l97 -97q30 -30 -2 -63l-92 -91q-30 -30 -60 0l-97 97q-27 27 3 57z" />
    <glyph glyph-name="uniFED8" unicode="&#x642;" horiz-adv-x="1022" arabic-form="medial" 
d="M1027 0h-136q-203 0 -355 80l-1 1l-1 -1q-171 -80 -354 -80h-185q-53 0 -53 86v11q0 83 53 83h292h5l-4 4q-103 102 -103 247q0 153 103 254q105 101 251 101t250 -101q101 -98 101 -253q1 -149 -101 -248l-4 -4h5h237q23 0 23 -83v-11q0 -86 -23 -86zM352 430
q0 -75 54 -128t131 -53t132 53q54 53 54 128t-54 128q-55 53 -132 53t-131 -53q-54 -54 -54 -128zM573 1150l91 92q33 32 60 5l97 -97q30 -30 -2 -63l-92 -91q-30 -30 -60 0l-97 97q-25 28 3 57zM226 1150l91 92q33 32 60 5l97 -97q30 -30 -2 -63l-92 -91q-30 -30 -60 0
l-97 97q-27 27 3 57z" />
    <glyph glyph-name="uniFED9" unicode="&#x643;" horiz-adv-x="1889" arabic-form="isolated" 
d="M703 740q65 -9 130 -9q21 0 42 2.5t40.5 7.5t38.5 12q85 33 85 87q0 27 -23.5 44t-69.5 24q-90 15 -125 61q-54 71 -30 147q23 73 100.5 115t209.5 51l27 2v-96l-23 -2q-109 -9 -163.5 -37.5t-54.5 -77.5q0 -50 55 -67q28 -9 79 -17q13 -2 24.5 -5.5t22 -8.5t20 -11.5
t18.5 -14.5q33 -32 33 -88q0 -57 -23 -93q-112 -178 -420 -130l-21 3v104zM538 180h814q227 0 227 268v885h167v-888q0 -445 -399 -445h-812q-433 0 -433 442v211h175v-210q0 -263 261 -263z" />
    <glyph glyph-name="uniFEDA" unicode="&#x643;" horiz-adv-x="1969" arabic-form="final" 
d="M703 740q65 -9 130 -9q21 0 42 2.5t40.5 7.5t38.5 12q85 33 85 87q0 27 -23.5 44t-69.5 24q-90 15 -125 61q-54 71 -30 147q23 73 100.5 115t209.5 51l27 2v-96l-23 -2q-109 -9 -163.5 -37.5t-54.5 -77.5q0 -50 55 -67q28 -9 79 -17q13 -2 24.5 -5.5t22 -8.5t20 -11.5
t18.5 -14.5q33 -32 33 -88q0 -57 -23 -93q-112 -178 -420 -130l-21 3v104zM1671 147q-84 -147 -324 -147h-812q-433 0 -433 442v211h175v-210q0 -263 261 -263h814q227 0 227 268v885h167v-888q0 -254 202 -263l27 -1q11 -1 17 -22q6 -19 6 -63v-11q0 -86 -23 -86h-32
q-179 0 -268 148l-2 3z" />
    <glyph glyph-name="uniFEDB" unicode="&#x643;" horiz-adv-x="918" arabic-form="initial" 
d="M-5 0q-53 0 -53 86v11q0 42 13 63q14 20 40 20h328q249 0 250 134q0 55 -112 183l-320 365q-48 54 -47 136q1 120 116 158l624 206v-181l-567 -185l-3 -1l2 -2l306 -355q166 -191 167 -330q3 -308 -418 -308h-326z" />
    <glyph glyph-name="uniFEDC" unicode="&#x643;" horiz-adv-x="1086" arabic-form="medial" 
d="M835 335q133 -153 232 -155h24q23 -1 23 -83v-11q0 -86 -23 -86h-15q-203 0 -350 201l-2 3l-1 -3q-67 -201 -402 -201h-326q-53 0 -53 86v11q0 42 13 63q14 20 40 20h328q249 0 250 134q0 55 -112 183l-320 365q-48 54 -47 136q1 120 116 158l624 206v-181l-567 -185
l-3 -1l2 -2z" />
    <glyph glyph-name="uniFEDD" unicode="&#x644;" horiz-adv-x="1337" arabic-form="isolated" 
d="M278 102q0 -368 366 -368h53q332 0 332 352v1247h165l-1 -1251q0 -529 -503 -529h-46q-541 0 -541 548v341h175v-340z" />
    <glyph glyph-name="uniFEDE" unicode="&#x644;" horiz-adv-x="1437" arabic-form="final" 
d="M1029 86l-1 1247h165v-901q0 -252 221 -252h28q23 0 23 -83v-11q0 -22 -2 -38q-1 -17 -4 -27q-3 -11 -7 -16q-5 -5 -10 -5h-21q-163 0 -225 81l-3 4v-5l-1 -28q-8 -499 -502 -499h-46q-541 0 -541 548v341h175v-340q0 -368 366 -368h53q333 0 332 352z" />
    <glyph glyph-name="uniFEDF" unicode="&#x644;" horiz-adv-x="600" arabic-form="initial" 
d="M-5 0q-53 0 -53 86v11q0 42 13 63q14 20 40 20h102q194 0 194 191v963h167v-967q0 -367 -362 -367h-101z" />
    <glyph glyph-name="uniFEE0" unicode="&#x644;" horiz-adv-x="699" arabic-form="medial" 
d="M705 0h-46q-175 0 -286 129l-2 2l-1 -2q-100 -129 -280 -129h-95q-53 0 -53 86v11q0 42 13 63q14 20 40 20h93q203 0 203 187v967h166v-968q0 -186 212 -186h36q23 0 23 -83v-11q0 -86 -23 -86z" />
    <glyph glyph-name="uniFEE1" unicode="&#x645;" horiz-adv-x="1310" arabic-form="isolated" 
d="M843 569h-157h-2v-2v-199q0 -229 185 -229q166 0 166 229v42q0 159 -192 159zM858 741q350 0 350 -330v-44q0 -388 -339 -387q-358 0 -358 386v186v2h-2q-118 -12 -177 -111t-59 -284v-655h-170v648v6q-1 583 480 583h275z" />
    <glyph glyph-name="uniFEE2" unicode="&#x645;" horiz-adv-x="1390" arabic-form="final" 
d="M843 569h-157h-2v-2v-199q0 -229 185 -229q166 0 166 229v42q0 159 -192 159zM1132 86q-85 -107 -263 -106q-358 0 -358 386v186v2h-2q-236 -23 -236 -395v-655h-170v648v6q-1 583 480 583h275q350 0 350 -330v-44q-1 -187 148 -187h39q23 0 23 -83v-11q0 -22 -1.5 -38.5
t-4.5 -27t-7.5 -15.5t-9.5 -5h-35q-148 0 -225 86l-2 2z" />
    <glyph glyph-name="uniFEE3" unicode="&#x645;" horiz-adv-x="990" arabic-form="initial" 
d="M-5 0q-53 0 -53 86v11q0 42 13.5 62.5t39.5 20.5h70q138 0 138 80q0 218 37 308q79 193 308 193q340 0 340 -398q-1 -378 -335 -377q-173 1 -269 95l-2 2l-1 -2q-57 -81 -214 -81h-72zM551 583q-168 0 -171 -205q-4 -217 173 -218q161 -1 161 217q0 206 -163 206z" />
    <glyph glyph-name="uniFEE4" unicode="&#x645;" horiz-adv-x="1048" arabic-form="medial" 
d="M1053 0h-28q-161 0 -209 82l-2 3l-2 -3q-67 -96 -259 -96q-203 1 -269 95l-1 2l-2 -2q-57 -81 -224 -81h-62q-53 0 -53 86v11q0 42 13.5 62.5t39.5 20.5h60q148 0 148 80q0 219 37 308q79 193 308 193q245 0 306 -203q23 -76 28 -292q2 -86 137 -86h34q23 0 23 -83v-11
q0 -86 -23 -86zM552 583q-173 0 -172 -214q0 -104 44 -156.5t132 -52.5q159 -1 159 213q0 210 -163 210z" />
    <glyph glyph-name="uniFEE5" unicode="&#x646;" horiz-adv-x="1442" arabic-form="isolated" 
d="M581 689l91 91q35 34 64 5l98 -97q31 -32 -3 -67l-91 -91q-33 -32 -65 -1l-97 98q-29 29 3 62zM1328 52q-11 -503 -579 -503h-55q-591 0 -591 552v341h177v-340q0 -372 416 -372h51q417 0 417 317v584h176z" />
    <glyph glyph-name="uniFEE6" unicode="&#x646;" horiz-adv-x="1590" arabic-form="final" 
d="M1595 0h-38q-165 0 -226 81l-3 5v-6v-28q0 -503 -579 -503h-55q-591 0 -591 552v341h177v-340q0 -372 416 -372h51q417 0 417 317v584h176v-214q0 -59 14 -103.5t42.5 -74t71 -44.5t98.5 -15h29q23 0 23 -83v-11q0 -43 -6 -64.5t-17 -21.5zM575.251 652.533
l97.3652 97.3652q37.4482 36.3779 68.4766 5.34961l104.854 -103.784q33.1689 -34.2383 -3.20898 -71.6865l-97.3652 -97.3652q-35.3086 -34.2383 -69.5469 -1.07031l-103.785 104.855q-31.0283 31.0283 3.20996 66.3359z" />
    <glyph glyph-name="uniFEE7" unicode="&#x646;" horiz-adv-x="677" arabic-form="initial" 
d="M-5 0q-53 0 -53 86v11q0 83 53 83h203q202 0 202 193v294h174v-295q0 -372 -377 -372h-202zM280 1069l91 91q35 34 64 5l98 -97q31 -32 -3 -67l-91 -91q-33 -32 -65 -1l-97 98q-29 29 3 62z" />
    <glyph glyph-name="uniFEE8" unicode="&#x646;" horiz-adv-x="827" arabic-form="medial" 
d="M832 0h-21q-218 0 -308 136q-105 -136 -357 -136h-151q-53 0 -53 86v11q0 42 13.5 62.5t39.5 20.5h156q256 0 256 195v258h176v-258q0 -195 227 -195h22q23 0 23 -83v-11q0 -86 -23 -86zM280 1069l91 91q35 34 64 5l98 -97q31 -32 -3 -67l-91 -91q-33 -32 -65 -1l-97 98
q-29 29 3 62z" />
    <glyph glyph-name="uniFEE9" unicode="&#x647;" horiz-adv-x="924" arabic-form="isolated" 
d="M456 624q-186 -157 -186 -295q0 -152 202 -152q187 0 187 156q0 130 -200 291l-1 1zM103 312q0 213 237 428l1 2l-1 1l-38 35l103 120q423 -303 422 -571q0 -327 -357 -326q-367 1 -367 311z" />
    <glyph glyph-name="uniFEEA" unicode="&#x647;" horiz-adv-x="1084" arabic-form="final" 
d="M1089 0h-46q-247 0 -311 187q-105 -19 -231 -19q-407 -1 -407 269q0 316 503 394l-13 65l169 32l98 -560q33 -188 203 -188h35q25 0 25 -81v-11q0 -88 -25 -88zM688 360l-55 296q-372 -47 -372 -206q0 -108 227 -107q107 0 200 17z" />
    <glyph glyph-name="uniFEEB" unicode="&#x647;" horiz-adv-x="1301" arabic-form="initial" 
d="M-5 0q-53 0 -53 86v11q0 42 13.5 62.5t39.5 20.5h269h7l-6 4q-120 76 -120 237q0 122 62 218q104 161 279 161q91 0 157 -38l2 -1l1 2l87 127q462 -372 461 -630q0 -89 -32 -156t-95 -111q-70 -49 -161 -49q-230 0 -445 113h-1q-192 -57 -390 -57h-75zM478 241
q166 120 167 268q0 78 -68 112q-31 15 -64 15q-38 0 -68 -12q-80 -36 -112 -132q-14 -40 -14 -74q0 -59 32 -95q42 -46 125 -82h1h1zM633 173q141 -59 248 -59q50 0 79 25q64 56 64 120q0 126 -251 363l-8 8l5 -10q29 -56 29 -161q0 -179 -166 -283l-4 -2z" />
    <glyph glyph-name="uniFEEC" unicode="&#x647;" horiz-adv-x="941" arabic-form="medial" 
d="M947 0h-197h-4l3 -3q34 -46 51 -99t17 -112q0 -121 -50 -185q-31 -39 -79 -58.5t-114 -19.5q-184 0 -285 155q-80 123 -100 320v2h-2h-192q-53 0 -53 86v11q0 42 13.5 62.5t39.5 20.5h192h2v2q25 316 128 467q90 132 227 133q55 0 104 -23.5t90 -70.5q81 -91 81 -255
q0 -153 -69 -250l-2 -3h4h195q23 0 23 -83v-11q0 -43 -6 -64.5t-17 -21.5zM347 -1q7 -68 21.5 -121t36.5 -91q56 -96 155 -96q103 0 103 114q0 98 -53 147t-158 49h-103h-2v-2zM662 407q0 61 -13.5 104.5t-40.5 69.5q-30 30 -72 30q-30 0 -57 -23t-50 -69q-58 -115 -82 -337
v-2h2l119 1q194 2 194 226z" />
    <glyph glyph-name="uniFEED" unicode="&#x648;" horiz-adv-x="877" arabic-form="isolated" 
d="M783 355v-357q0 -459 -568 -458h-74v179h68q403 -1 404 279v2h-2h-160q-349 0 -348 342q1 184 88 282q91 97 259 101q149 0 238 -86q95 -92 95 -284zM270 343q0 -162 180 -162h162h2v2l-1 166q0 205 -167 204q-176 0 -176 -210z" />
    <glyph glyph-name="uniFEEE" unicode="&#x648;" horiz-adv-x="933" arabic-form="final" 
d="M783 355v-173v-2h2h153q23 0 23 -83v-11q0 -43 -6 -65q-6 -21 -17 -21h-152h-2v-2q-8 -459 -569 -458h-74v179h68q403 -1 404 279v2h-2h-160q-349 0 -348 342q1 184 88 282q89 100 259 101q149 0 238 -86q47 -46 70.5 -117t24.5 -167zM270 343q0 -163 180 -163h162h2v2
l-1 167q0 205 -167 204q-88 0 -132 -52.5t-44 -157.5z" />
    <glyph glyph-name="uniFEEF" unicode="&#x649;" horiz-adv-x="1446" arabic-form="isolated" 
d="M1061 229q282 0 282 -220v-29q0 -429 -568 -429h-84q-588 0 -589 553v411h175v-410q0 -373 416 -373h91q387 0 387 230v12q0 81 -111 81h-161q-171 0 -171 165v65q0 236 105 353.5t316 117.5h194l1 -185h-237q-199 0 -204 -279l-2 -61v-2h2h158z" />
    <glyph glyph-name="uniFEF0" unicode="&#x649;" horiz-adv-x="1433" arabic-form="final" 
d="M1438 0h-102h-2v-2l-1 -77q-5 -372 -552 -372h-89q-589 0 -590 550v341l175 -1v-339q0 -371 412 -371h96q125 0 208.5 22t125.5 66t42 111v70v2h-2h-251q-50 0 -74 88q-22 84 5 92h599q23 0 23 -83v-11q0 -22 -1.5 -38.5t-4.5 -27t-7.5 -15.5t-9.5 -5z" />
    <glyph glyph-name="uniFEF1" unicode="&#x64a;" horiz-adv-x="1446" arabic-form="isolated" 
d="M784 -673l91 92q33 32 60 5l97 -97q30 -30 -2 -63l-92 -91q-30 -30 -60 0l-97 97q-25 28 3 57zM437 -673l91 92q33 32 60 5l97 -97q30 -30 -2 -63l-92 -91q-30 -30 -60 0l-97 97q-27 27 3 57zM1061 229q282 0 282 -220v-29q0 -429 -568 -429h-84q-588 0 -589 553v411h175
v-410q0 -373 416 -373h91q387 0 387 230v12q0 81 -111 81h-161q-171 0 -171 165v65q0 236 105 353.5t316 117.5h194l1 -185h-237q-199 0 -204 -279l-2 -61v-2h2h158z" />
    <glyph glyph-name="uniFEF2" unicode="&#x64a;" horiz-adv-x="1433" arabic-form="final" 
d="M813 -691l91 92q33 32 60 5l97 -97q30 -30 -2 -63l-92 -91q-30 -30 -60 0l-97 97q-25 28 3 57zM466 -691l91 92q33 32 60 5l97 -97q30 -30 -2 -63l-92 -91q-30 -30 -60 0l-97 97q-27 27 3 57zM1438 0h-102h-2v-2l-1 -77q-5 -372 -552 -372h-89q-589 0 -590 550v341
l175 -1v-339q0 -371 412 -371h96q125 0 208.5 22t125.5 66t42 111v70v2h-2h-251q-50 0 -74 88q-22 84 5 92h599q23 0 23 -83v-11q0 -22 -1.5 -38.5t-4.5 -27t-7.5 -15.5t-9.5 -5z" />
    <glyph glyph-name="uniFEF3" unicode="&#x64a;" horiz-adv-x="717" arabic-form="initial" 
d="M349 -305l91 92q33 32 60 5l97 -97q30 -30 -2 -63l-92 -91q-30 -30 -60 0l-97 97q-25 28 3 57zM2 -305l91 92q33 32 60 5l97 -97q30 -30 -2 -63l-92 -91q-30 -30 -60 0l-97 97q-27 27 3 57zM-5 0q-53 0 -53 86v11q0 83 53 83h233q202 0 202 193v294h174v-295
q0 -372 -375 -372h-234z" />
    <glyph glyph-name="uniFEF4" unicode="&#x64a;" horiz-adv-x="857" arabic-form="medial" 
d="M361 -305l91 92q33 32 60 5l97 -97q30 -30 -2 -63l-92 -91q-30 -30 -60 0l-97 97q-25 28 3 57zM14 -305l91 92q33 32 60 5l97 -97q30 -30 -2 -63l-92 -91q-30 -30 -60 0l-97 97q-27 27 3 57zM862 0h-21q-221 0 -308 136q-103 -136 -357 -136h-181q-53 0 -53 86v11
q0 42 13.5 62.5t39.5 20.5h186q256 0 256 195v258h176v-258q0 -195 227 -195h22q23 0 23 -83v-11q0 -86 -23 -86z" />
    <glyph glyph-name=".notdef" horiz-adv-x="507" 
 />
    <glyph glyph-name=".null" 
 />
    <glyph glyph-name="nonmarkingreturn" unicode="&#xd;" horiz-adv-x="507" 
 />
    <glyph glyph-name="uni0002" 
 />
    <glyph glyph-name="uni0009" unicode="&#x9;" 
 />
    <glyph glyph-name="space" unicode=" " horiz-adv-x="560" 
 />
    <glyph glyph-name="exclam" unicode="!" horiz-adv-x="568" 
d="M153 130.5q0 53.5 37.5 90.5t90.5 38q55 -1 92.5 -38t37.5 -90.5t-37.5 -91t-91.5 -37.5t-91.5 37.5t-37.5 91zM179 1351h198l-21 -928h-155z" />
    <glyph glyph-name="quotedbl" unicode="&#x22;" horiz-adv-x="655" 
d="M277 1400l-30 -358h-111l1 348v146h140v-136zM547 1400l-30 -358h-111l1 356v138h140v-136z" />
    <glyph glyph-name="numbersign" unicode="#" horiz-adv-x="1275" 
d="M716 410h-264l-80 -410h-143l80 410h-239v137h265l69 354h-258v139h285l82 416h143l-82 -416h264l82 416h144l-82 -416h204v-139h-231l-69 -354h225v-137h-251l-80 -410h-144zM478 547h264l69 354h-264z" />
    <glyph glyph-name="dollar" unicode="$" horiz-adv-x="1150" 
d="M856 375q0 45 -15 83t-48.5 71t-87 61t-131.5 54q-95 29 -170.5 67.5t-128.5 90.5t-81 120t-28 157q0 83 25 151.5t71.5 119t112.5 82t149 41.5v219h149v-220q168 -23 261.5 -141t93.5 -323h-184q0 67 -16 123t-47.5 97t-78 64t-106.5 23q-63 0 -109 -17t-76 -47.5
t-45 -73.5t-15 -95q0 -48 14 -86.5t47 -70.5t88 -60.5t138 -55.5q96 -31 171 -69.5t126.5 -89.5t78.5 -118t27 -155q0 -87 -27 -156t-77.5 -119t-122 -80t-159.5 -39v-191h-148v191q-77 7 -148.5 35t-127 81t-88.5 134.5t-33 195.5h185q0 -85 25 -141t65.5 -89t90 -46
t99.5 -13q67 0 119 16.5t88 47t55 74t19 97.5z" />
    <glyph glyph-name="percent" unicode="%" horiz-adv-x="1500" 
d="M105 1176q0 62 20.5 116.5t59 95.5t94 65t124.5 24q70 0 125.5 -24t93.5 -65t58.5 -95.5t20.5 -116.5v-77q0 -61 -20 -115.5t-58.5 -95t-93.5 -64.5t-124 -24q-70 0 -125.5 24t-94.5 64.5t-59.5 95t-20.5 115.5v77zM243 1099q0 -35 10 -67t30 -57t50.5 -40t71.5 -15
q40 0 70 15t49.5 39.5t29 57t9.5 67.5v77q0 35 -10 67.5t-29.5 57.5t-50 40t-70.5 15q-41 0 -71 -15t-49.5 -40t-29.5 -57.5t-10 -67.5v-77zM814 357q0 61 20.5 116t59 95.5t94 64.5t124.5 24q70 0 125.5 -24t94 -64.5t59 -95.5t20.5 -116v-78q0 -62 -20.5 -116.5t-59 -95
t-93.5 -64.5t-124 -24q-70 0 -125.5 24t-94.5 64.5t-59.5 95t-20.5 116.5v78zM952 279q0 -35 10 -67.5t30 -57.5t50.5 -40t71.5 -15q40 0 70 15t49.5 40t29 57.5t9.5 67.5v78q0 35 -10 67.5t-29.5 57t-50 39.5t-70.5 15t-70 -15t-50 -39.5t-30 -57t-10 -67.5v-78zM447 110
l-105 66l711 1138l105 -66z" />
    <glyph glyph-name="ampersand" unicode="&#x26;" horiz-adv-x="1273" 
d="M101 391q0 66 20.5 119.5t58 101t89.5 90.5t114 87q-37 45 -67 86t-51.5 81.5t-33 81.5t-11.5 84q0 85 26 151t74 111t115 68.5t149 23.5q80 0 144 -25t109 -67t69 -98t24 -118q0 -53 -14.5 -96.5t-40.5 -82t-62.5 -72t-79.5 -66.5l-110 -81l324 -387q32 61 50 133.5
t18 155.5h167q0 -125 -30 -231t-93 -192l208 -249h-222l-97 115q-38 -34 -83 -59.5t-93.5 -42t-99.5 -25t-100 -8.5q-109 0 -196.5 30.5t-148.5 85t-93.5 130t-32.5 165.5zM572 131q72 0 141 29t128 83l-355 425l-42 -31q-54 -40 -85.5 -77.5t-47.5 -69.5t-20.5 -57.5
t-4.5 -41.5q0 -53 17.5 -100.5t53 -83t89.5 -56t126 -20.5zM405 1128q0 -55 32 -114.5t86 -125.5l105 74q31 21 55.5 42t41.5 45t25.5 52.5t8.5 66.5q0 30 -11.5 58t-34 49.5t-55.5 35t-75 13.5q-44 0 -77 -15.5t-55.5 -42.5t-34 -62.5t-11.5 -75.5z" />
    <glyph glyph-name="quotesingle" unicode="'" horiz-adv-x="357" 
d="M253 1425l-21 -368h-129l1 352v127h149v-111z" />
    <glyph glyph-name="parenleft" unicode="(" horiz-adv-x="700" 
d="M133 591q0 145 23 272.5t61.5 235.5t89 197t105 157t109 116t102.5 74l38 -122q-59 -45 -119.5 -124t-110.5 -194.5t-81.5 -267.5t-31.5 -342v-14q0 -190 31.5 -342t81.5 -268t110.5 -197t119.5 -129l-38 -113q-47 26 -102 74t-109.5 116.5t-105 156.5t-89 196t-61.5 235
t-23 273v10z" />
    <glyph glyph-name="parenright" unicode=")" horiz-adv-x="712" 
d="M567 581q0 -146 -23 -273t-61.5 -235t-89 -196t-105 -156.5t-109.5 -116.5t-102 -74l-39 113q59 45 120 125.5t110.5 197.5t81 270t31.5 343v14q0 190 -33.5 344t-84.5 271t-111 197.5t-114 124.5l39 113q47 -26 102 -74t109.5 -116t105 -157t89 -197t61.5 -235.5
t23 -272.5v-10z" />
    <glyph glyph-name="asterisk" unicode="*" horiz-adv-x="882" 
d="M330 983l-302 90l46 151l302 -112l-9 344h153l-10 -349l297 110l46 -152l-307 -91l198 -271l-124 -94l-186 288l-180 -281l-125 91z" />
    <glyph glyph-name="plus" unicode="+" horiz-adv-x="1161" 
d="M670 781h406v-175h-406v-460h-186v460h-406v175h406v425h186v-425z" />
    <glyph glyph-name="comma" unicode="," horiz-adv-x="402" 
d="M308 71q0 -45 -11.5 -94t-34 -97t-54.5 -92t-74 -78l-105 72q47 66 72.5 135.5t25.5 150.5v151h181v-148z" />
    <glyph glyph-name="hyphen" unicode="-" horiz-adv-x="565" 
d="M525 543h-488v151h488v-151z" />
    <glyph glyph-name="period" unicode="." horiz-adv-x="572" 
d="M158 127.5q0 53.5 37.5 90.5t91.5 38q54 -1 91.5 -38t37.5 -90.5t-37.5 -91t-90.5 -37.5q-55 0 -92.5 37.5t-37.5 91z" />
    <glyph glyph-name="slash" unicode="/" horiz-adv-x="844" 
d="M177 -125h-159l608 1581h158z" />
    <glyph glyph-name="zero" unicode="0" horiz-adv-x="936" 
d="M180 500q3 120 85.5 203t202.5 84q60 0 111 -21t92 -63q21 -21 36.5 -44t26 -48t16 -53t5.5 -58q-1 -119 -84 -202q-41 -42 -92 -63t-111 -21q-120 1 -202.5 84t-85.5 202zM341 500q1 -26 10 -48.5t28 -40.5q36 -37 89 -37t90 37t37 89q0 11 -2 21t-5 19t-7 17.5
t-10 16.5t-13 16q-19 18 -41.5 27.5t-48.5 9.5q-53 -1 -89 -37q-39 -39 -38 -90z" />
    <glyph glyph-name="one" unicode="1" horiz-adv-x="702" 
d="M468 4h-171v306q0 549 -122 956l163 50q130 -434 130 -1007v-305z" />
    <glyph glyph-name="two" unicode="2" horiz-adv-x="1138" 
d="M467 310v-306h-171v306q0 548 -120 956l164 50l43 -193q23 -101 93 -159q68 -57 179 -58q170 -1 193 138q8 54 8 179v95h165v-91q0 -153 -11 -219q-47 -280 -354 -281q-125 0 -211 56l-4 2l1 -4q25 -155 25 -471z" />
    <glyph glyph-name="three" unicode="3" horiz-adv-x="1415" 
d="M383 1113q46 -216 206 -214q119 2 119 183l1 195h163l-1 -205q0 -173 147 -173q118 0 117 168v249h162l1 -183q2 -406 -273 -406q-163 0 -224 120l-2 3l-2 -3q-64 -117 -189 -117q-104 0 -162 52l-5 3l1 -5q11 -65 19 -190q6 -94 6 -280v-306h-171v306q0 548 -120 956
l164 50z" />
    <glyph glyph-name="four" unicode="4" horiz-adv-x="1156" 
d="M448 726q19 -229 19 -416v-306h-171v306q0 546 -120 956l163 50q71 -351 72 -357q6 -34 34 -46l23 -10l3 -1v3q2 412 348 412q97 0 194 -41l-15 -147q-84 27 -164 26q-98 -1 -156 -60q-63 -64 -63 -179q0 -99 212 -98q134 0 224 28l3 -162q-122 -33 -239 -33
q-206 0 -364 77l-3 1v-3z" />
    <glyph glyph-name="five" unicode="5" horiz-adv-x="1258" 
d="M388 184q148 -1 170 231h139q11 -232 168 -235q130 -3 129 145q-1 265 -363 674l-1 2l-2 -2q-182 -209 -273.5 -377.5t-92.5 -298.5q-1 -139 126 -139zM383 0q-281 0 -281 297q0 345 411 822l1 2l-1 1q-8 9 -16.5 18t-17 17.5t-16.5 17.5l120 137q25 -31 91 -101
q481 -521 482 -887q1 -324 -289 -324q-182 0 -242 168l-2 6l-2 -6q-63 -167 -238 -168z" />
    <glyph glyph-name="six" unicode="6" horiz-adv-x="1000" 
d="M304 940q1 -158 197 -182q54 -7 82 -1q34 7 68 31l158 112l88 -154q-174 -74 -540 -785l-154 73q246 462 312 557l2 3h-4q-378 36 -378 340q0 162 95 267q104 115 276 115q122 0 209 -48l-1 -160q-83 42 -174 42q-101 0 -165 -51q-72 -57 -71 -159z" />
    <glyph glyph-name="seven" unicode="7" horiz-adv-x="1201" 
d="M602 393q102 425 338 932l158 -82q-314 -590 -425 -1239h-145q-111 649 -425 1239l158 82q236 -507 337 -932l2 -9z" />
    <glyph glyph-name="eight" unicode="8" horiz-adv-x="1201" 
d="M599 917q-102 -425 -338 -932l-158 82q314 590 425 1239h145q111 -649 425 -1239l-158 -82q-236 507 -337 932l-2 9z" />
    <glyph glyph-name="nine" unicode="9" horiz-adv-x="1147" 
d="M743 310l-1 343v4l-3 -2q-101 -61 -238 -61q-191 1 -284 110q-85 100 -85 224q0 171 92 271q115 126 311 126q329 0 362 -370q17 -202 17 -646v-305h-171v306zM514 762q141 0 216 81v1q0 67 -15 162q-11 69 -52 106q-45 42 -129 42q-135 0 -196 -89q-41 -57 -41 -136
q1 -167 217 -167z" />
    <glyph glyph-name="colon" unicode=":" horiz-adv-x="579" 
d="M160 832.5q0 53.5 37.5 90.5t91.5 38q54 -1 91.5 -38t37.5 -90.5t-37.5 -91t-90.5 -37.5q-55 0 -92.5 37.5t-37.5 91zM160 127.5q0 53.5 37.5 90.5t91.5 38q54 -1 91.5 -38t37.5 -90.5t-37.5 -91t-90.5 -37.5q-55 0 -92.5 37.5t-37.5 91z" />
    <glyph glyph-name="semicolon" unicode=";" horiz-adv-x="433" 
d="M125 1010.5q0 53.5 37.5 90.5t91.5 38q54 -1 91.5 -38t37.5 -90.5t-37.5 -91t-90.5 -37.5q-55 0 -92.5 37.5t-37.5 91zM320 71q0 -45 -11.5 -94t-34 -97t-54.5 -92t-74 -78l-105 72q47 66 72.5 135.5t25.5 150.5v151h181v-148z" />
    <glyph glyph-name="less" unicode="&#x3c;" horiz-adv-x="1041" 
d="M264 644l626 -253v-196l-818 379v146l818 378v-196z" />
    <glyph glyph-name="equal" unicode="=" horiz-adv-x="1124" 
d="M986 814h-834v161h834v-161zM986 399h-834v160h834v-160z" />
    <glyph glyph-name="greater" unicode="&#x3e;" horiz-adv-x="1070" 
d="M795 650l-661 259v190l854 -378v-146l-854 -379v192z" />
    <glyph glyph-name="question" unicode="?" horiz-adv-x="967" 
d="M357 410q1 72 10 123t29 93t52.5 81.5t80.5 88.5q34 35 65.5 66.5t55 65t37.5 72.5t14 90q0 105 -55 164.5t-160 59.5q-44 0 -84.5 -11.5t-72 -36t-50.5 -62t-19 -89.5h-185q1 85 33 152t87 113.5t129.5 71t161.5 24.5q96 0 170.5 -26.5t125.5 -76t77.5 -120t26.5 -157.5
q0 -68 -21 -127t-56.5 -112.5t-80.5 -101t-93 -92.5q-55 -51 -74 -115t-19 -138h-185zM349 93q0 45 27.5 75.5t81.5 30.5t82 -30.5t28 -75.5t-28 -74.5t-82 -29.5t-81.5 29.5t-27.5 74.5z" />
    <glyph glyph-name="at" unicode="@" horiz-adv-x="1839" 
d="M1735 502q-3 -61 -14 -124t-32 -121t-53.5 -108.5t-77 -88t-102.5 -59t-130 -21.5q-94 0 -154.5 44t-85.5 124q-54 -85 -123.5 -126.5t-143.5 -41.5t-128.5 31.5t-89 88.5t-47.5 137.5t-4 179.5q12 132 52 238t99 180t131.5 114t149.5 40q54 0 95.5 -8.5t75 -23t62 -33.5
t56.5 -41l-52 -554q-6 -73 4 -118.5t29.5 -70.5t45 -33.5t49.5 -8.5q60 0 107 31.5t79.5 86t51 128.5t21.5 158q9 187 -25 334.5t-113 250.5t-204.5 157.5t-299.5 54.5q-157 0 -284 -59.5t-217.5 -168t-142.5 -259.5t-60 -334q-9 -187 29.5 -336t120 -253.5t204 -160.5
t282.5 -56q44 0 89.5 5.5t89 16t82.5 25t70 32.5l37 -115q-35 -22 -80 -38.5t-94.5 -28t-100.5 -17t-97 -5.5q-190 0 -338.5 64.5t-249 185.5t-149.5 293.5t-40 387.5q9 205 73 379.5t174.5 302t264 199.5t341.5 72q192 0 339.5 -65.5t245 -186t144.5 -292.5t38 -385z
M709 417q-14 -142 26.5 -218t128.5 -76q26 0 54 11t55.5 34.5t52.5 61t45 90.5q0 6 1 9l46 503q-25 13 -55 21t-65 8q-54 0 -102.5 -28t-86.5 -84t-64 -139t-36 -193z" />
    <glyph glyph-name="A" unicode="A" horiz-adv-x="1336" 
d="M973 380h-610l-137 -380h-198l556 1456h168l557 -1456h-197zM421 538h495l-248 681z" />
    <glyph glyph-name="B" unicode="B" horiz-adv-x="1275" 
d="M169 0v1456h476q112 0 200 -22.5t149.5 -70t94 -120.5t32.5 -175t-58 -180.5t-158 -121.5q61 -17 108.5 -50t80 -78t49.5 -101t17 -117q0 -102 -34.5 -180.5t-97.5 -132t-152 -80.5t-198 -27h-509zM361 681v-524h317q69 0 122.5 18.5t90.5 52t56.5 82t19.5 108.5t-16 109
t-50.5 83t-87.5 52.5t-126 18.5h-326zM361 835h290q62 0 113 16t87.5 46t56.5 73.5t20 98.5q0 120 -70 174.5t-213 54.5h-284v-463z" />
    <glyph glyph-name="C" unicode="C" horiz-adv-x="1333" 
d="M1240 462q-12 -103 -50.5 -191.5t-106.5 -153t-166 -101t-229 -36.5q-129 0 -234 48t-179.5 136.5t-115 212.5t-40.5 277v146q0 153 41 277.5t117 213t184.5 137t243.5 48.5q123 0 218 -36t161.5 -100.5t105.5 -154t50 -197.5h-193q-11 76 -34 137t-63.5 104t-100.5 66
t-144 23q-97 0 -170.5 -37.5t-123 -105t-74.5 -163t-25 -210.5v-148q0 -107 22.5 -201t68.5 -164.5t117 -111t168 -40.5q92 0 155 22t104.5 63.5t64.5 102t35 137.5h193z" />
    <glyph glyph-name="D" unicode="D" horiz-adv-x="1343" 
d="M169 0v1456h411q144 0 262 -48t202.5 -137t131 -216t46.5 -285v-86q0 -158 -46.5 -285t-132 -215.5t-207.5 -136t-273 -47.5h-394zM361 1298v-1141h202q116 0 204 37.5t147 106.5t88.5 166t29.5 217v89q0 125 -30 222.5t-88 165t-142 102.5t-192 35h-219z" />
    <glyph glyph-name="E" unicode="E" horiz-adv-x="1164" 
d="M992 673h-631v-516h733v-157h-925v1456h915v-158h-723v-468h631v-157z" />
    <glyph glyph-name="F" unicode="F" horiz-adv-x="1132" 
d="M972 643h-611v-643h-192v1456h902v-158h-710v-498h611v-157z" />
    <glyph glyph-name="G" unicode="G" horiz-adv-x="1395" 
d="M1244 191q-21 -30 -58 -66.5t-97.5 -68.5t-148.5 -54t-211 -22q-133 0 -244.5 47t-192 135.5t-125.5 217t-45 291.5v114q0 163 38.5 291t113 217t183.5 136t250 47q125 0 219 -33.5t160 -93t105 -141.5t53 -179h-192q-11 59 -34.5 111.5t-64.5 92t-101 62.5t-144 23
q-102 0 -176 -37t-122 -106t-71.5 -167t-23.5 -221v-116q0 -126 30 -225t84.5 -168t131 -105t169.5 -36q78 0 132.5 10.5t92 26t60.5 34t38 34.5v327h-337v156h528v-534z" />
    <glyph glyph-name="H" unicode="H" horiz-adv-x="1460" 
d="M1288 0h-193v673h-734v-673h-192v1456h192v-626h734v626h193v-1456z" />
    <glyph glyph-name="I" unicode="I" horiz-adv-x="557" 
d="M375 0h-192v1456h192v-1456z" />
    <glyph glyph-name="J" unicode="J" horiz-adv-x="1130" 
d="M779 1456h193v-1031q0 -108 -34 -191.5t-95.5 -139.5t-146 -85t-184.5 -29q-101 0 -185 25.5t-145 78t-95 132t-34 186.5h192q0 -69 20 -119t55 -82.5t84 -48t108 -15.5q57 0 106 18.5t85 54.5t56 90t20 125v1031z" />
    <glyph glyph-name="K" unicode="K" horiz-adv-x="1284" 
d="M539 677l-178 -185v-492h-192v1456h192v-720l158 176l489 544h232l-573 -643l618 -813h-230z" />
    <glyph glyph-name="L" unicode="L" horiz-adv-x="1102" 
d="M362 157h690v-157h-883v1456h193v-1299z" />
    <glyph glyph-name="M" unicode="M" horiz-adv-x="1788" 
d="M417 1456l476 -1188l476 1188h249v-1456h-192v567l18 612l-478 -1179h-147l-477 1176l19 -609v-567h-192v1456h248z" />
    <glyph glyph-name="N" unicode="N" horiz-adv-x="1460" 
d="M1288 0h-193l-733 1122v-1122h-193v1456h193l735 -1127v1127h191v-1456z" />
    <glyph glyph-name="O" unicode="O" horiz-adv-x="1408" 
d="M1289 681q0 -164 -41.5 -293.5t-117.5 -220.5t-184 -139t-241 -48q-129 0 -237 48t-186 139t-121 220.5t-43 293.5v92q0 163 43 293.5t120 221.5t185 139.5t237 48.5q133 0 241.5 -48.5t185 -139.5t118 -221.5t41.5 -293.5v-92zM1098 775q0 130 -26.5 230t-77.5 168
t-124.5 103t-166.5 35q-89 0 -162 -35t-124.5 -103t-79.5 -168t-28 -230v-94q0 -131 28.5 -231t80.5 -168.5t125 -103.5t162 -35q94 0 167 35t123.5 103.5t76.5 168.5t26 231v94z" />
    <glyph glyph-name="P" unicode="P" horiz-adv-x="1292" 
d="M361 570v-570h-192v1456h537q124 0 219 -33t159.5 -92.5t98 -141t33.5 -178.5q0 -105 -33.5 -187.5t-98 -138.5t-159.5 -85.5t-219 -29.5h-345zM361 727h345q84 0 144.5 21t99 58.5t56.5 89t18 113.5q0 56 -18 108.5t-56.5 92.5t-99 64t-144.5 24h-345v-571z" />
    <glyph glyph-name="Q" unicode="Q" horiz-adv-x="1408" 
d="M1281 681q0 -211 -67 -363.5t-188 -238.5l260 -204l-131 -121l-307 244q-72 -18 -152 -18q-129 0 -237 48t-186 139t-121 220.5t-43 293.5v92q0 163 43 293.5t120 221.5t185 139.5t237 48.5q133 0 241.5 -48.5t185.5 -139.5t118.5 -221.5t41.5 -293.5v-92zM1089 775
q0 130 -26.5 230t-77 168t-124 103t-167.5 35q-89 0 -161.5 -35t-124 -103t-79.5 -168t-28 -230v-94q0 -131 28.5 -231t80 -168.5t124.5 -103.5t162 -35q94 0 167 35t123.5 103.5t76.5 168.5t26 231v94z" />
    <glyph glyph-name="R" unicode="R" horiz-adv-x="1261" 
d="M703 589h-342v-589h-193v1456h482q246 0 378.5 -112t132.5 -326q0 -136 -73.5 -237t-204.5 -151l342 -618v-12h-206zM361 746h295q78 0 136.5 21.5t97.5 58t58.5 86t19.5 106.5q0 63 -18.5 114.5t-57.5 88.5t-99 57t-143 20h-289v-552z" />
    <glyph glyph-name="S" unicode="S" horiz-adv-x="1215" 
d="M945 368q0 51 -15.5 90t-55 71.5t-106.5 61t-170 58.5q-108 31 -195.5 70.5t-149 91t-94.5 117.5t-33 151t35.5 157.5t100.5 126t156 83.5t203 30q123 0 219 -37t161.5 -98t99.5 -141t34 -165h-193q0 61 -19.5 113t-59.5 90t-100 59t-142 21q-77 0 -134 -18t-94 -49.5
t-55 -74.5t-18 -94q0 -46 19.5 -84t60.5 -70t105.5 -59t154.5 -52q124 -35 214 -77.5t148.5 -96.5t87 -121t28.5 -152q0 -89 -36 -161t-102.5 -123t-160 -78.5t-208.5 -27.5q-67 0 -134 12.5t-128.5 37.5t-114 62t-91.5 86t-61 110t-22 134h193q0 -75 29.5 -128.5t79 -88.5
t114 -51.5t135.5 -16.5q152 0 233 62t81 169z" />
    <glyph glyph-name="T" unicode="T" horiz-adv-x="1222" 
d="M1175 1298h-468v-1298h-191v1298h-467v158h1126v-158z" />
    <glyph glyph-name="U" unicode="U" horiz-adv-x="1328" 
d="M1194 1456v-986q0 -123 -43 -215t-115.5 -153t-168.5 -91.5t-202 -30.5q-111 0 -207 30.5t-166.5 91.5t-111 153t-40.5 215v986h190v-986q0 -85 24.5 -147.5t68.5 -104t105.5 -61.5t136.5 -20q76 0 138 20t106 61.5t68 104t24 147.5v986h193z" />
    <glyph glyph-name="V" unicode="V" horiz-adv-x="1303" 
d="M651 255l416 1201h210l-540 -1456h-170l-539 1456h209z" />
    <glyph glyph-name="W" unicode="W" horiz-adv-x="1817" 
d="M483 459l28 -192l41 173l288 1016h162l281 -1016l40 -176l31 196l226 996h193l-353 -1456h-175l-300 1061l-23 111l-23 -111l-311 -1061h-175l-352 1456h192z" />
    <glyph glyph-name="X" unicode="X" horiz-adv-x="1284" 
d="M644 898l349 558h226l-460 -722l471 -734h-228l-358 568l-360 -568h-227l472 734l-461 722h225z" />
    <glyph glyph-name="Y" unicode="Y" horiz-adv-x="1230" 
d="M613 725l380 731h218l-502 -913v-543h-192v543l-502 913h220z" />
    <glyph glyph-name="Z" unicode="Z" horiz-adv-x="1226" 
d="M313 157h833v-157h-1060v144l798 1154h-785v158h1015v-141z" />
    <glyph glyph-name="bracketleft" unicode="[" horiz-adv-x="543" 
d="M523 1512h-191v-1672h191v-152h-377v1976h377v-152z" />
    <glyph glyph-name="backslash" unicode="\" horiz-adv-x="840" 
d="M40 1456h176l608 -1581h-176z" />
    <glyph glyph-name="bracketright" unicode="]" horiz-adv-x="543" 
d="M9 1664h378v-1976h-378v152h193v1672h-193v152z" />
    <glyph glyph-name="asciicircum" unicode="^" horiz-adv-x="856" 
d="M426 1211l-190 -482h-172l299 727h127l298 -727h-171z" />
    <glyph glyph-name="underscore" unicode="_" horiz-adv-x="924" 
d="M920 -151h-916v151h916v-151z" />
    <glyph glyph-name="grave" unicode="`" horiz-adv-x="633" 
d="M474 1240h-159l-258 294h223z" />
    <glyph glyph-name="a" unicode="a" horiz-adv-x="1114" 
d="M808 0q-10 20 -16 50.5t-10 63.5q-26 -27 -58.5 -51.5t-71 -43t-83.5 -29t-95 -10.5q-83 0 -150.5 25t-115 68t-73.5 101.5t-26 125.5q0 87 34 153.5t97.5 111.5t153.5 68t201 23h184v85q0 97 -58 154.5t-171 57.5q-52 0 -95 -14t-73.5 -37.5t-47.5 -54.5t-17 -65h-186
q0 58 30.5 115t86.5 102.5t135.5 74t177.5 28.5q88 0 162.5 -22.5t127.5 -68t83 -113.5t30 -159v-503q0 -55 9.5 -115.5t28.5 -104.5v-16h-194zM501 141q50 0 94 14t80 36.5t62.5 51.5t41.5 60v222h-154q-159 0 -245 -49.5t-86 -149.5q0 -39 13 -73t39.5 -58.5t65 -39
t89.5 -14.5z" />
    <glyph glyph-name="b" unicode="b" horiz-adv-x="1149" 
d="M1056 529q0 -119 -28 -219.5t-82 -174t-132 -114.5t-178 -41q-107 0 -185 37.5t-132 107.5l-9 -125h-170v1536h185v-573q54 67 130 103t179 36q102 0 180.5 -40t132 -112.5t81.5 -174t28 -225.5v-21zM871 550q0 81 -15 152.5t-48.5 125.5t-87.5 85.5t-132 31.5
q-51 0 -92 -13t-73.5 -36t-56.5 -54t-41 -67v-468q18 -36 42.5 -67t57 -54t73.5 -36t92 -13q75 0 128 31t87 84t50 124.5t16 152.5v21z" />
    <glyph glyph-name="c" unicode="c" horiz-adv-x="1072" 
d="M574 131q49 0 94 16t79.5 44t56 66.5t25.5 83.5h175q-4 -72 -39.5 -137.5t-93.5 -115t-134.5 -79t-162.5 -29.5q-122 0 -212.5 43.5t-150.5 117.5t-89.5 172t-29.5 207v42q0 109 29.5 207t89.5 172t150 117.5t212 43.5q95 0 172.5 -30t134 -82.5t88.5 -124.5t36 -155
h-175q-4 50 -23.5 93.5t-52.5 76t-78.5 51.5t-101.5 19q-86 0 -142.5 -34t-91 -89.5t-48.5 -125t-14 -139.5v-42q0 -72 14 -141.5t48 -124.5t91 -89t144 -34z" />
    <glyph glyph-name="d" unicode="d" horiz-adv-x="1155" 
d="M95 550q0 124 30.5 225.5t86.5 174t134.5 112.5t175.5 40q99 0 173 -33.5t128 -96.5v564h185v-1536h-170l-9 116q-54 -66 -130 -101t-179 -35q-95 0 -173.5 41t-134.5 114.5t-86.5 174t-30.5 219.5v21zM280 529q0 -81 16.5 -152.5t51.5 -124.5t89 -84t129 -31
q49 0 88 11.5t70.5 32.5t56 50t42.5 64v497q-18 33 -42 61t-55.5 48.5t-70.5 32t-87 11.5q-76 0 -130.5 -31.5t-89.5 -85.5t-51.5 -125.5t-16.5 -152.5v-21z" />
    <glyph glyph-name="e" unicode="e" horiz-adv-x="1085" 
d="M589 -20q-113 0 -204.5 39t-156.5 108.5t-100 165.5t-35 210v42q0 132 39.5 236t105.5 175t151 108.5t177 37.5q116 0 200 -40.5t138.5 -111.5t80.5 -168t26 -211v-83h-733q2 -75 24.5 -140t64 -113t100 -76t132.5 -28q98 0 166 40t119 106l113 -88q-26 -40 -63 -77.5
t-86.5 -67t-113.5 -47t-145 -17.5zM566 950q-56 0 -103 -20.5t-84 -59.5t-61.5 -97t-33.5 -133h542v14q-3 54 -17.5 107t-45 95t-78.5 68t-119 26z" />
    <glyph glyph-name="f" unicode="f" horiz-adv-x="711" 
d="M231 0v939h-171v143h171v114q0 87 24.5 154.5t70.5 113.5t112 69.5t149 23.5q64 0 127 -17l-10 -150q-21 4 -47.5 6.5t-52.5 2.5q-90 0 -139 -52.5t-49 -150.5v-114h231v-143h-231v-939h-185z" />
    <glyph glyph-name="g" unicode="g" horiz-adv-x="1149" 
d="M96 550q0 124 29.5 225.5t85 174t134.5 112.5t178 40q103 0 179 -36t130 -104l9 120h169v-1059q0 -107 -33.5 -190.5t-94.5 -141t-145 -87.5t-186 -30q-42 0 -96.5 9.5t-110 31t-106.5 57.5t-87 89l96 111q34 -42 70 -70t72.5 -45t74 -24.5t74.5 -7.5q65 0 118 18.5
t90.5 55.5t57.5 90.5t20 124.5v94q-54 -62 -128.5 -95t-174.5 -33q-97 0 -175.5 41t-134 114.5t-85.5 174t-30 219.5v21zM282 529q0 -81 16.5 -152.5t51 -124.5t88.5 -84t129 -31q49 0 88.5 12t71 33t55.5 50t42 64v494q-18 33 -42 61.5t-55.5 49.5t-70.5 32.5t-87 11.5
q-76 0 -130 -31.5t-89 -85.5t-51.5 -125.5t-16.5 -152.5v-21z" />
    <glyph glyph-name="h" unicode="h" horiz-adv-x="1128" 
d="M325 951q58 71 139 111t181 40q79 0 143 -21.5t109 -69t69.5 -122t24.5 -180.5v-709h-185v711q0 63 -14 107.5t-41.5 72.5t-68 41t-93.5 13q-90 0 -158 -48t-106 -126v-771h-185v1536h185v-585z" />
    <glyph glyph-name="i" unicode="i" horiz-adv-x="497" 
d="M341 0h-185v1082h185v-1082zM141 1369q0 45 27.5 76t81.5 31t82 -31t28 -76t-28 -75t-82 -30t-81.5 30t-27.5 75z" />
    <glyph glyph-name="j" unicode="j" horiz-adv-x="489" 
d="M331 1082v-1211q0 -150 -70 -229t-213 -79q-26 0 -58 5t-55 13v148q20 -5 43.5 -6.5t40.5 -1.5q62 0 94.5 33.5t32.5 116.5v1211h185zM127 1369q0 44 27.5 75.5t80.5 31.5q54 0 82 -31t28 -76t-28 -75t-82 -30t-81 30t-27 75z" />
    <glyph glyph-name="k" unicode="k" horiz-adv-x="1038" 
d="M442 501l-116 -121v-380h-185v1536h185v-929l99 119l337 356h225l-421 -452l470 -630h-217z" />
    <glyph glyph-name="l" unicode="l" horiz-adv-x="497" 
d="M341 0h-185v1536h185v-1536z" />
    <glyph glyph-name="m" unicode="m" horiz-adv-x="1795" 
d="M314 1082l5 -120q56 66 135.5 103t185.5 37q105 0 185.5 -41.5t123.5 -132.5q54 78 140.5 126t204.5 48q87 0 154 -22.5t113.5 -70.5t70.5 -122t24 -176v-711h-185v712q0 68 -16.5 113t-46.5 72t-73 37.5t-95 10.5q-57 0 -101 -18t-75.5 -48.5t-50 -72t-23.5 -88.5v-718
h-186v711q0 63 -16.5 107.5t-46.5 72.5t-72.5 41t-95.5 13q-99 0 -159 -43t-90 -112v-790h-185v1082h175z" />
    <glyph glyph-name="n" unicode="n" horiz-adv-x="1130" 
d="M315 1082l6 -136q58 73 140 114.5t184 41.5q79 0 143 -21.5t109 -69t69.5 -122t24.5 -180.5v-709h-185v711q0 63 -14 107.5t-41.5 72.5t-68 41t-93.5 13q-90 0 -158 -48t-106 -126v-771h-185v1082h175z" />
    <glyph glyph-name="o" unicode="o" horiz-adv-x="1168" 
d="M91 551q0 118 34.5 218.5t98 174.5t154.5 116t204 42q115 0 206.5 -42t155.5 -116t98 -174.5t34 -218.5v-22q0 -118 -34 -218.5t-98 -174t-155 -115t-205 -41.5t-205 41.5t-155 115t-98.5 174t-34.5 218.5v22zM277 529q0 -81 19 -153t57.5 -126.5t96 -86.5t134.5 -32
q76 0 134 32t96 86.5t57.5 126.5t19.5 153v22q0 80 -19.5 152.5t-58 127t-96.5 87t-135 32.5q-76 0 -133 -32.5t-95.5 -87t-57.5 -127t-19 -152.5v-22z" />
    <glyph glyph-name="p" unicode="p" horiz-adv-x="1149" 
d="M1054 529q0 -119 -28 -219.5t-81.5 -174t-131.5 -114.5t-178 -41q-102 0 -178.5 32t-131.5 93v-521h-185v1498h169l9 -120q55 68 133 104t181 36q102 0 180.5 -40t132.5 -112.5t81.5 -174t27.5 -225.5v-21zM869 550q0 81 -17 152.5t-53 125.5t-91 85.5t-131 31.5
q-47 0 -85.5 -11t-69.5 -31t-55 -47.5t-42 -59.5v-517q18 -32 42 -59.5t55 -47t70 -30.5t87 -11q75 0 129.5 32t90.5 86t53 126.5t17 153.5v21z" />
    <glyph glyph-name="q" unicode="q" horiz-adv-x="1164" 
d="M95 550q0 124 29 225.5t84.5 174t135.5 112.5t182 40q99 0 174 -33t129 -96l8 109h170v-1498h-185v516q-54 -58 -128 -89t-170 -31q-101 0 -180.5 41t-134.5 114.5t-84.5 174t-29.5 219.5v21zM280 529q0 -81 17 -153.5t53 -126.5t90.5 -86t129.5 -32q92 0 153 41t99 105
v530q-19 31 -43.5 57t-55.5 45t-68.5 30t-82.5 11q-76 0 -131 -32.5t-91 -87t-53 -127t-17 -153.5v-21z" />
    <glyph glyph-name="r" unicode="r" horiz-adv-x="693" 
d="M663 916q-24 4 -44.5 5.5t-46.5 1.5q-96 0 -156.5 -42t-90.5 -113v-768h-185v1082h180l3 -125q42 67 105 106t153 39q20 0 46 -4.5t36 -9.5v-172z" />
    <glyph glyph-name="s" unicode="s" horiz-adv-x="1056" 
d="M770 287q0 30 -9 56.5t-35.5 50t-75.5 43.5t-129 37q-90 19 -162 45t-122.5 62.5t-77.5 86.5t-27 117q0 64 28.5 121.5t80.5 101t126 69t165 25.5q97 0 173.5 -26.5t130 -72.5t81.5 -107.5t28 -131.5h-186q0 33 -15 66.5t-44 60t-71 43t-97 16.5q-58 0 -98.5 -13.5
t-66.5 -36t-38 -51t-12 -58.5t10 -54t38 -43.5t76.5 -36t125.5 -33.5q99 -23 172 -52t121 -67.5t71.5 -88.5t23.5 -116q0 -71 -29.5 -130t-84.5 -101t-132 -65.5t-171 -23.5q-108 0 -190.5 30t-138.5 79.5t-85 113t-29 130.5h185q3 -57 27.5 -95.5t61.5 -62.5t81 -34t88 -10
q57 0 100 12t72.5 33t44.5 49.5t15 61.5z" />
    <glyph glyph-name="t" unicode="t" horiz-adv-x="669" 
d="M391 1344v-262h202v-143h-202v-671q0 -42 10 -67.5t26.5 -39.5t38 -18.5t44.5 -4.5t48.5 4.5t39.5 7.5v-150q-22 -6 -57 -13t-85 -7q-51 0 -96.5 14.5t-79.5 48.5t-54 89.5t-20 136.5v670h-197v143h197v262h185z" />
    <glyph glyph-name="u" unicode="u" horiz-adv-x="1129" 
d="M808 107q-51 -60 -129 -93.5t-188 -33.5q-80 0 -145 22.5t-112 71t-72.5 125t-25.5 184.5v699h185v-701q0 -73 17 -120.5t45 -75t64 -38t74 -10.5q113 0 181.5 43t100.5 115v787h185v-1082h-176z" />
    <glyph glyph-name="v" unicode="v" horiz-adv-x="992" 
d="M497 251l268 831h189l-388 -1082h-141l-392 1082h189z" />
    <glyph glyph-name="w" unicode="w" horiz-adv-x="1539" 
d="M1098 255l208 827h185l-315 -1082h-150l-263 820l-256 -820h-150l-314 1082h184l213 -810l252 810h149z" />
    <glyph glyph-name="x" unicode="x" horiz-adv-x="1015" 
d="M503 687l240 395h216l-354 -535l365 -547h-214l-250 405l-250 -405h-215l365 547l-354 535h214z" />
    <glyph glyph-name="y" unicode="y" horiz-adv-x="969" 
d="M494 271l252 811h198l-435 -1249q-15 -40 -39 -87t-62.5 -87.5t-92.5 -68t-127 -27.5q-11 0 -26 2t-30 4.5t-28 5t-20 4.5v150q4 -1 11 -1.5t14.5 -1t14 -1t10.5 -0.5q47 0 83 9t64 29.5t48.5 54.5t37.5 84l41 110l-386 1070h202z" />
    <glyph glyph-name="z" unicode="z" horiz-adv-x="1015" 
d="M314 151h633v-151h-859v136l597 793h-588v153h820v-131z" />
    <glyph glyph-name="braceleft" unicode="{" horiz-adv-x="693" 
d="M632 -366q-102 29 -170.5 76t-109.5 107t-58.5 132t-17.5 150v206q0 54 -12 98t-37.5 75t-66 48t-96.5 17v145q112 0 162 64t50 173v207q0 79 17.5 150.5t58.5 132t109.5 107t170.5 75.5l38 -115q-59 -19 -99 -53t-64.5 -79.5t-35 -101t-10.5 -116.5v-207
q0 -101 -39.5 -182t-127.5 -128q87 -47 127 -128.5t40 -181.5v-206q0 -62 10.5 -117t35 -100.5t64.5 -79.5t99 -53z" />
    <glyph glyph-name="bar" unicode="|" horiz-adv-x="499" 
d="M324 -270h-149v1726h149v-1726z" />
    <glyph glyph-name="braceright" unicode="}" horiz-adv-x="693" 
d="M19 -251q59 19 99.5 53t65 79.5t35 100.5t10.5 117v206q0 104 43 185t138 125q-95 43 -138 124t-43 186v207q0 61 -10.5 116.5t-35 101t-64.5 79.5t-99 53l38 115q102 -29 170.5 -75.5t110 -107t58.5 -132t17 -150.5v-207q0 -54 12 -98t37.5 -75t66 -47.5t96.5 -16.5
v-145q-56 0 -96.5 -17t-66 -48t-37.5 -75t-12 -98v-206q0 -78 -17 -150t-58.5 -132t-110 -107t-170.5 -76z" />
    <glyph glyph-name="asciitilde" unicode="~" horiz-adv-x="1393" 
d="M1263 777q0 -77 -24 -145t-67 -119t-102.5 -81t-130.5 -30q-44 0 -81.5 9t-73 26t-70 43t-73.5 61q-52 47 -94.5 72.5t-92.5 25.5q-78 0 -120 -53.5t-42 -147.5l-161 -2q0 78 23.5 145t66.5 116t102 77t131 28q43 0 81.5 -9.5t74 -27t70.5 -43.5t72 -59
q27 -25 50.5 -43.5t45.5 -30.5t44 -18t47 -6q39 0 70.5 15.5t54 43.5t34.5 66.5t12 85.5z" />
    <glyph glyph-name="uni00A0" unicode="&#xa0;" horiz-adv-x="560" 
 />
    <glyph glyph-name="exclamdown" unicode="&#xa1;" horiz-adv-x="499" 
d="M170 684h168l13 -1044h-194zM358 996q0 -45 -27.5 -76t-81.5 -31t-82 31t-28 76t28 75t82 30t81.5 -30t27.5 -75z" />
    <glyph glyph-name="cent" unicode="&#xa2;" horiz-adv-x="1121" 
d="M587 131q49 0 94 16t79.5 44t56 66.5t25.5 83.5h175q-3 -63 -31 -121.5t-74.5 -105.5t-108.5 -80t-133 -46v-233h-186v235q-96 17 -167 65.5t-118.5 119.5t-70.5 159.5t-23 185.5v42q0 96 23.5 184.5t70.5 159.5t118 119.5t167 66.5v226h186v-223q77 -12 139.5 -46.5
t107.5 -85t71 -115.5t29 -138h-175q-4 50 -23.5 93.5t-52.5 76t-78.5 51.5t-101.5 19q-86 0 -142.5 -34t-91 -89.5t-48.5 -125t-14 -139.5v-42q0 -72 14 -141.5t48 -124.5t91 -89t144 -34z" />
    <glyph glyph-name="sterling" unicode="&#xa3;" horiz-adv-x="1190" 
d="M449 622l8 -220q0 -70 -15 -134t-47 -111h733l-1 -157h-1032v157h77q26 6 43.5 32.5t28.5 62.5t15.5 76t4.5 73l-8 221h-165v157h160l-9 260q0 103 33.5 184.5t93 137.5t141 85.5t177.5 29.5q97 0 174 -28.5t129.5 -79.5t80.5 -122.5t28 -158.5h-191q0 63 -20 106.5
t-53 71.5t-76 40.5t-89 12.5q-49 0 -92 -18.5t-74.5 -54t-50 -87.5t-18.5 -119l9 -260h319v-157h-314z" />
    <glyph glyph-name="currency" unicode="&#xa4;" horiz-adv-x="1460" 
d="M1103 112q-76 -63 -169.5 -97.5t-198.5 -34.5q-104 0 -197 34t-169 96l-134 -136l-130 135l139 141q-50 75 -77 165.5t-27 192.5q0 106 29.5 199t82.5 170l-147 151l130 136l147 -150q75 57 164 88.5t189 31.5t190 -32t165 -89l149 152l132 -137l-151 -154
q52 -77 81 -169.5t29 -196.5q0 -100 -27 -190t-75 -165l143 -144l-132 -136zM311 608q0 -95 33.5 -178t91 -145t134.5 -98t165 -36q87 0 164 36t134.5 98t90.5 145t33 178q0 94 -33 177t-90.5 144.5t-134.5 97t-164 35.5q-88 0 -165 -35.5t-134.5 -97t-91 -144.5t-33.5 -177
z" />
    <glyph glyph-name="yen" unicode="&#xa5;" horiz-adv-x="1240" 
d="M614 782l364 674h219l-418 -720h312v-125h-384v-165h384v-124h-384v-322h-193v322h-378v124h378v165h-378v125h313l-418 720h220z" />
    <glyph glyph-name="brokenbar" unicode="&#xa6;" horiz-adv-x="491" 
d="M147 -270v791h186v-791h-186zM333 698h-186v758h186v-758z" />
    <glyph glyph-name="section" unicode="&#xa7;" horiz-adv-x="1256" 
d="M1145 431q0 -96 -49 -165t-137 -109q69 -49 105 -117t36 -168q0 -87 -35 -155t-98.5 -115.5t-153.5 -72t-201 -24.5q-96 0 -190 22t-167.5 72t-119 132.5t-45.5 204.5l186 2q0 -79 30.5 -133t78.5 -87t108 -47t119 -14q72 0 128.5 16.5t95 45t58.5 67.5t20 84
q0 46 -17 80.5t-57.5 63.5t-108 55.5t-168.5 56.5q-110 29 -196.5 64t-146.5 84t-92 116t-32 161q0 93 47.5 162.5t134.5 111.5q-66 49 -101.5 117t-35.5 168q0 83 34.5 150.5t98.5 115.5t154.5 74t201.5 26q115 0 206 -28.5t154.5 -83t97.5 -135t34 -184.5h-185
q0 58 -20 109t-59 89t-96 60t-132 22q-78 0 -135.5 -17t-94.5 -46t-55 -68t-18 -82q0 -50 15 -85.5t54 -64t106.5 -54t173.5 -54.5q112 -31 199 -66t147 -83.5t91.5 -114.5t31.5 -159zM602 691q-90 24 -165 51q-80 -19 -117.5 -69.5t-37.5 -119.5q0 -51 15 -87.5t55 -65.5
t108.5 -55t175.5 -56q45 -13 85 -25t76 -26q78 20 120 70.5t42 119.5q0 46 -17.5 81.5t-58.5 65.5t-110 57.5t-171 58.5z" />
    <glyph glyph-name="dieresis" unicode="&#xa8;" horiz-adv-x="856" 
d="M102 1371q0 45 27.5 75.5t81.5 30.5t82 -30.5t28 -75.5t-28 -75t-82 -30t-81.5 30t-27.5 75zM532 1369q0 45 27.5 76t81.5 31t82 -31t28 -76t-28 -75t-82 -30t-81.5 30t-27.5 75z" />
    <glyph glyph-name="copyright" unicode="&#xa9;" horiz-adv-x="1609" 
d="M1119 597q0 -79 -23 -138t-66 -98t-104.5 -58.5t-137.5 -19.5q-80 0 -144 28t-109 79t-69 122.5t-24 157.5v116q0 86 24 157t69 122t109 79.5t144 28.5q76 0 137.5 -19.5t104.5 -58.5t66.5 -98t23.5 -137h-146q0 99 -47.5 141.5t-138.5 42.5q-50 0 -87.5 -19t-63 -53
t-38.5 -81.5t-13 -103.5v-117q0 -57 13 -104.5t38.5 -81.5t63 -53t87.5 -19q92 0 138.5 42t46.5 143h146zM206 729q0 -134 47 -249t127.5 -200t189 -133.5t231.5 -48.5t231 48.5t188.5 133.5t127.5 200t47 249q0 133 -47 247.5t-127.5 199t-188.5 132.5t-231 48t-231.5 -48
t-189 -132.5t-127.5 -199t-47 -247.5zM91 729q0 106 25.5 202.5t71.5 179.5t111 150.5t144 115t169.5 73.5t188.5 26t188.5 -26t169 -73.5t143.5 -115t111 -150.5t71.5 -179.5t25.5 -202.5t-25.5 -202.5t-71.5 -180t-111 -151t-143.5 -116t-169 -74.5t-188.5 -26t-188.5 26
t-169.5 74.5t-144 116t-111 151t-71.5 180t-25.5 202.5z" />
    <glyph glyph-name="ordfeminine" unicode="&#xaa;" horiz-adv-x="915" 
d="M618 705q-12 34 -18 72q-31 -35 -81.5 -60.5t-122.5 -25.5q-60 0 -106.5 16t-78 46t-48 72t-16.5 93q0 111 83.5 171t255.5 60h108v52q0 66 -30.5 100.5t-93.5 34.5q-69 0 -108.5 -27t-39.5 -78l-161 12q0 51 22 93.5t62.5 73.5t97.5 48.5t127 17.5q64 0 117 -17.5
t91 -52t58.5 -86t20.5 -120.5v-314q0 -49 6 -93t20 -88h-165zM435 828q43 0 87 20t72 47v142h-107q-46 0 -79.5 -9t-55 -25t-32 -36.5t-10.5 -44.5q0 -44 30 -69t95 -25z" />
    <glyph glyph-name="guillemotleft" unicode="&#xab;" horiz-adv-x="995" 
d="M451 947l-33 -57q-118 -208 -118 -413q0 -208 118 -415l33 -57h-152l-12 18q-147 232 -147 454q0 110 37 223t110 229l11 18h153zM827 947l-33 -57q-59 -104 -88.5 -207t-29.5 -206q0 -207 118 -415l33 -57h-152l-12 18q-49 77 -81.5 153.5t-49 151.5t-16.5 149
q0 110 37 223t110 229l11 18h153z" />
    <glyph glyph-name="logicalnot" unicode="&#xac;" horiz-adv-x="1134" 
d="M958 375h-186v264h-645v161h831v-425z" />
    <glyph glyph-name="uni00AD" unicode="&#xad;" horiz-adv-x="565" 
d="M525 543h-488v151h488v-151z" />
    <glyph glyph-name="registered" unicode="&#xae;" horiz-adv-x="1610" 
d="M90 729q0 106 25.5 202.5t71.5 179.5t111 150.5t144 115t169.5 73.5t188.5 26t188.5 -26t169 -73.5t143.5 -115t111 -150.5t71.5 -179.5t25.5 -202.5t-25.5 -202.5t-71.5 -180t-111 -151t-143.5 -116t-169 -74.5t-188.5 -26t-188.5 26t-169.5 74.5t-144 116t-111 151
t-71.5 180t-25.5 202.5zM205 729q0 -134 47 -249t127.5 -200t189 -133.5t231.5 -48.5t231 48.5t189 133.5t127.5 200t46.5 249q0 133 -46.5 247.5t-127.5 199t-189 132.5t-231 48t-231.5 -48t-189 -132.5t-127.5 -199t-47 -247.5zM653 654v-338h-141v849h276q74 0 133.5 -16
t101.5 -47.5t64.5 -80t22.5 -112.5q0 -63 -32.5 -109.5t-95.5 -78.5q34 -14 57.5 -35t38 -47.5t21 -58t6.5 -66.5v-55q0 -38 3.5 -71t13.5 -56v-16h-145q-5 13 -8 33t-4.5 41t-1.5 40v30v53q0 72 -33.5 106.5t-113.5 34.5h-163zM653 782h156q32 1 61 9t51 23t35 37.5
t13 52.5q0 37 -9.5 62.5t-30.5 41.5t-55.5 23t-85.5 7h-135v-256z" />
    <glyph glyph-name="macron" unicode="&#xaf;" horiz-adv-x="938" 
d="M834 1313h-714v143h714v-143z" />
    <glyph glyph-name="degree" unicode="&#xb0;" horiz-adv-x="765" 
d="M130 1216q0 53 20.5 100.5t55 83t81 56t98.5 20.5t97.5 -20.5t79.5 -56t54 -83t20 -100.5q0 -54 -20 -100.5t-54 -81t-79.5 -54.5t-97.5 -20t-98.5 20t-81 54.5t-55 81t-20.5 100.5zM255 1216q0 -28 10.5 -51.5t28 -40.5t41 -26.5t50.5 -9.5t50.5 9.5t41 26.5t27 40.5
t9.5 51.5t-9.5 52.5t-27 42.5t-41 28t-50.5 10t-50.5 -10t-41 -28t-28 -42.5t-10.5 -52.5z" />
    <glyph glyph-name="plusminus" unicode="&#xb1;" horiz-adv-x="1095" 
d="M650 855h363v-152h-363v-414h-167v414h-386v152h386v412h167v-412zM970 1h-835v151h835v-151z" />
    <glyph glyph-name="twosuperior" unicode="&#xb2;" horiz-adv-x="751" 
d="M683 667h-599v108l288 271q67 61 94 105t27 77q0 49 -32 79.5t-92 30.5q-75 0 -110.5 -38t-35.5 -95h-157q0 54 20.5 101.5t59 83t94 56.5t125.5 21q67 0 120 -16.5t90 -47.5t56.5 -75t19.5 -98q0 -40 -13.5 -75.5t-38 -70t-60 -69.5t-79.5 -75l-176 -145h399v-128z" />
    <glyph glyph-name="threesuperior" unicode="&#xb3;" horiz-adv-x="751" 
d="M265 1125h84q74 0 110 30.5t36 78.5q0 45 -31.5 74t-101.5 29q-28 0 -52 -6.5t-42 -18.5t-28 -29t-10 -38h-157q0 51 22 91.5t61 69.5t91.5 44.5t112.5 15.5q65 0 119 -14.5t92.5 -43t60 -70.5t21.5 -97t-35 -100.5t-101 -70.5q77 -21 113 -68t36 -116q0 -56 -23.5 -99
t-64.5 -72t-97 -44.5t-121 -15.5q-56 0 -109.5 13.5t-95.5 42t-67.5 72.5t-25.5 105h158q0 -45 39.5 -75t106.5 -30q70 0 106.5 30t36.5 81q0 62 -43.5 88.5t-116.5 26.5h-84v116z" />
    <glyph glyph-name="acute" unicode="&#xb4;" horiz-adv-x="642" 
d="M316 1534h224l-268 -294h-149z" />
    <glyph glyph-name="mu" unicode="&#xb5;" horiz-adv-x="1160" 
d="M339 1082v-622q0 -103 17 -167.5t47 -100.5t70 -49t86 -13q108 0 170 40.5t91 111.5v800h186v-1082h-166l-10 116q-43 -65 -108 -100.5t-155 -35.5q-73 0 -129.5 17.5t-98.5 55.5v-469h-185v1498h185z" />
    <glyph glyph-name="paragraph" unicode="&#xb6;" horiz-adv-x="1001" 
d="M646 0v520h-87q-119 0 -211 35t-154.5 97.5t-94.5 148.5t-32 187q0 100 32 186t94.5 148.5t154.5 98t211 35.5h273v-1456h-186z" />
    <glyph glyph-name="periodcentered" unicode="&#xb7;" horiz-adv-x="534" 
d="M147 729q0 48 28.5 80t85.5 32t86.5 -32t29.5 -80q0 -47 -29.5 -78.5t-86.5 -31.5t-85.5 31.5t-28.5 78.5z" />
    <glyph glyph-name="cedilla" unicode="&#xb8;" horiz-adv-x="507" 
d="M285 0l-12 -52q28 -5 55.5 -16.5t49.5 -32t35 -51t13 -73.5q0 -47 -19.5 -85.5t-58 -66.5t-95 -43t-130.5 -15l-7 107q34 0 64.5 5.5t53 17.5t35.5 31t13 45q0 25 -9.5 41.5t-29 27t-50.5 16.5t-73 10l32 134h133z" />
    <glyph glyph-name="onesuperior" unicode="&#xb9;" horiz-adv-x="697" 
d="M495 674h-157v601l-216 -57v128l355 117h18v-789z" />
    <glyph glyph-name="ordmasculine" unicode="&#xba;" horiz-adv-x="931" 
d="M122 1123q0 77 24 142t68.5 112t108 73t141.5 26q80 0 143.5 -26t108 -73t68 -112t23.5 -142v-80q0 -77 -23.5 -142t-68 -112t-107.5 -73t-142 -26t-142.5 26t-108.5 73t-69 112t-24 142v80zM285 1043q0 -46 11 -85t33.5 -67.5t56.5 -45t80 -16.5q45 0 78.5 16.5t55.5 45
t33 67.5t11 85v80q0 45 -11 84t-33.5 67.5t-56 45t-79.5 16.5q-45 0 -78.5 -16.5t-56 -45t-33.5 -67.5t-11 -84v-80z" />
    <glyph glyph-name="guillemotright" unicode="&#xbb;" horiz-adv-x="992" 
d="M544 947h153l11 -18q147 -232 147 -453t-147 -453l-12 -18h-152l33 57q118 207 118 413.5t-118 414.5zM168 947h153l11 -18q147 -232 147 -453t-147 -453l-12 -18h-152l33 57q118 207 118 413.5t-118 414.5z" />
    <glyph glyph-name="onequarter" unicode="&#xbc;" horiz-adv-x="1500" 
d="M1318 299h107v-130h-107v-169h-157v169h-375l-6 102l377 518h161v-490zM938 299h223v289l-17 -28zM458 664h-157v601l-216 -57v128l355 117h18v-789zM443 118l-104 66l711 1138l104 -66z" />
    <glyph glyph-name="onehalf" unicode="&#xbd;" horiz-adv-x="1589" 
d="M1481 0h-599v108l288 271q67 61 94 105t27 77q0 49 -32 79.5t-92 30.5q-75 0 -110.5 -38t-35.5 -95h-157q0 54 20.5 101.5t59 83t94 56.5t125.5 21q67 0 120 -16.5t90 -47.5t56.5 -75t19.5 -98q0 -40 -13.5 -75.5t-38 -70t-60 -69.5t-79.5 -75l-176 -145h399v-128z
M453 664h-157v601l-216 -57v128l355 117h18v-789zM399 118l-104 66l711 1138l104 -66z" />
    <glyph glyph-name="threequarters" unicode="&#xbe;" horiz-adv-x="1593" 
d="M1410 299h107v-130h-107v-169h-157v169h-375l-6 102l377 518h161v-490zM1030 299h223v289l-17 -28zM314 1126h84q74 0 110 30.5t36 78.5q0 45 -31.5 74t-101.5 29q-28 0 -52 -6.5t-42 -18.5t-28 -29t-10 -38h-157q0 51 22 91.5t61 69.5t91.5 44.5t112.5 15.5
q65 0 119 -14.5t92.5 -43t60 -70.5t21.5 -97t-35 -100.5t-101 -70.5q77 -21 113 -68t36 -116q0 -56 -23.5 -99t-64.5 -72t-97 -44.5t-121 -15.5q-56 0 -109.5 13.5t-95.5 42t-67.5 72.5t-25.5 105h158q0 -45 39.5 -75t106.5 -30q70 0 106.5 30t36.5 81q0 62 -43.5 88.5
t-116.5 26.5h-84v116zM570 118l-104 66l711 1138l104 -66z" />
    <glyph glyph-name="questiondown" unicode="&#xbf;" horiz-adv-x="969" 
d="M588 680q-1 -72 -10 -122t-29 -91t-52 -80t-78 -89q-32 -35 -62 -66.5t-53 -66t-37 -74.5t-14 -91q0 -109 58 -166.5t167 -57.5q43 0 84 12.5t72 38t50 63.5t19 90h185q-1 -85 -33 -152.5t-86.5 -115t-129 -72.5t-161.5 -25q-98 0 -174 25.5t-128.5 74.5t-80 119.5
t-27.5 160.5q0 68 21.5 128t56 113.5t78.5 102t89 92.5q54 51 72 112.5t18 136.5h185zM596 997q0 -45 -27.5 -76t-81.5 -31t-82 31t-28 76q0 44 28 74t82 30t81.5 -30t27.5 -74z" />
    <glyph glyph-name="uni02BC" unicode="&#x2bc;" horiz-adv-x="409" 
d="M327 1408q0 -46 -11.5 -95.5t-34 -97.5t-54.5 -91.5t-74 -77.5l-105 72q47 66 71.5 135.5t24.5 151.5v131h183v-128z" />
    <glyph glyph-name="circumflex" unicode="&#x2c6;" horiz-adv-x="964" 
d="M774 1262v-10h-153l-150 170l-149 -170h-153v12l246 272h112z" />
    <glyph glyph-name="caron" unicode="&#x2c7;" horiz-adv-x="909" 
d="M448 1365l150 170h160v-10l-254 -274h-113l-251 274v10h157z" />
    <glyph glyph-name="breve" unicode="&#x2d8;" horiz-adv-x="874" 
d="M728 1495q0 -59 -20.5 -108t-59.5 -84.5t-94.5 -55.5t-124.5 -20t-124.5 20t-94.5 55.5t-60 84.5t-21 108h151q0 -30 8 -57t25.5 -47.5t46 -32.5t69.5 -12q40 0 68.5 12t46.5 32.5t26 47.5t8 57h150z" />
    <glyph glyph-name="dotaccent" unicode="&#x2d9;" horiz-adv-x="497" 
d="M141 1367q0 45 27.5 76t81.5 31t82 -31t28 -76t-28 -75t-82 -30t-81.5 30t-27.5 75z" />
    <glyph glyph-name="ring" unicode="&#x2da;" horiz-adv-x="685" 
d="M121 1408q0 43 16.5 81t45.5 66.5t68 44.5t85 16q45 0 84.5 -16t68.5 -44.5t45.5 -66.5t16.5 -81q0 -44 -16.5 -81t-45.5 -64.5t-68.5 -43t-84.5 -15.5q-46 0 -85 15.5t-68 43t-45.5 64.5t-16.5 81zM220 1408q0 -22 8.5 -43t24 -37t36.5 -25.5t47 -9.5q25 0 46.5 9.5
t37 25t24 36.5t8.5 44q0 24 -8.5 45t-24 37.5t-37 26t-46.5 9.5q-26 0 -47 -9.5t-36.5 -26t-24 -37.5t-8.5 -45z" />
    <glyph glyph-name="ogonek" unicode="&#x2db;" horiz-adv-x="554" 
d="M382 0q-32 -24 -63 -49t-55 -53t-38.5 -57.5t-14.5 -62.5t17 -52.5t61 -19.5q33 0 58.5 9t41.5 17l13 -121q-24 -15 -62 -29.5t-98 -14.5q-41 0 -76 12t-60.5 36t-40.5 59.5t-15 82.5q0 40 14.5 80t46 78.5t80 74t116.5 66.5z" />
    <glyph glyph-name="tilde" unicode="&#x2dc;" horiz-adv-x="966" 
d="M830 1500q0 -55 -16.5 -100t-46 -76.5t-68.5 -48.5t-84 -17q-51 0 -84 15t-60 32.5t-55 32.5t-70 15q-21 0 -39 -8.5t-31.5 -23.5t-21 -35.5t-7.5 -44.5l-124 7q0 55 16.5 100.5t45 78t68 50.5t84.5 18q43 0 75.5 -15t62 -33t60.5 -33t71 -15q21 0 39 8.5t31.5 24
t21.5 36t8 44.5z" />
    <glyph glyph-name="hungarumlaut" unicode="&#x2dd;" horiz-adv-x="764" 
d="M605 1535h207l-269 -303h-169zM265 1535h197l-218 -303h-150z" />
    <glyph glyph-name="uni02F3" unicode="&#x2f3;" horiz-adv-x="602" 
d="M126 -242q0 36 14 67t37.5 53t55 34.5t67.5 12.5q35 0 65.5 -12.5t53.5 -34.5t36.5 -53t13.5 -67q0 -37 -13.5 -67t-36.5 -51.5t-53.5 -33t-65.5 -11.5q-36 0 -67.5 11.5t-55 33t-37.5 51.5t-14 67zM213 -242q0 -17 7 -32.5t19 -26.5t27.5 -17.5t33.5 -6.5q35 0 59 24
t24 59q0 36 -24 61t-59 25q-18 0 -33.5 -6.5t-27.5 -18.5t-19 -27.5t-7 -33.5z" />
    <glyph glyph-name="gravecomb" unicode="&#x300;" 
d="M-458 1240h-126l-130 295h176z" />
    <glyph glyph-name="acutecomb" unicode="&#x301;" 
d="M-523 1536h172l-167 -293h-116z" />
    <glyph glyph-name="tildecomb" unicode="&#x303;" 
d="M-178 1500q0 -55 -16.5 -100t-46 -76.5t-68.5 -48.5t-84 -17q-51 0 -84 15t-60 32.5t-55 32.5t-70 15q-21 0 -39 -8.5t-31.5 -23.5t-21 -35.5t-7.5 -44.5l-124 7q0 55 16.5 100.5t45 78t68 50.5t84.5 18q43 0 75.5 -15t62 -33t60.5 -33t71 -15q21 0 39 8.5t31.5 24
t21.5 36t8 44.5z" />
    <glyph glyph-name="hook" unicode="&#x309;" 
d="M-652 1241l-1 153q75 5 110 20t35 54q0 21 -13 36t-35.5 24t-53 13.5t-64.5 4.5l7 106q149 0 226 -51.5t77 -136.5q0 -38 -13.5 -65t-35 -45t-49.5 -28t-57 -14l-1 -71h-132z" />
    <glyph glyph-name="uni030F" unicode="&#x30f;" 
d="M-510 1252h-169l-306 266h225zM-249 1252h-150l-246 266h206z" />
    <glyph glyph-name="dotbelow" unicode="&#x323;" horiz-adv-x="495" 
d="M-712 -245q0 45 27.5 76t81.5 31t82 -31t28 -76t-28 -75t-82 -30t-81.5 30t-27.5 75z" />
    <glyph glyph-name="tonos" unicode="&#x384;" horiz-adv-x="525" 
d="M237 1599h174l-116 -337h-112z" />
    <glyph glyph-name="dieresistonos" unicode="&#x385;" horiz-adv-x="1035" 
d="M481 1672h188l-101 -264h-135zM113 1371q0 45 27.5 75.5t81.5 30.5t82 -30.5t28 -75.5t-28 -75t-82 -30t-81.5 30t-27.5 75zM680 1369q0 45 27.5 76t81.5 31t82 -31t28 -76t-28 -75t-82 -30t-81.5 30t-27.5 75z" />
    <glyph glyph-name="Delta" unicode="&#x394;" horiz-adv-x="1444" 
d="M646 1456h170l579 -1456h-1364zM293 157h844l-409 1064z" />
    <glyph glyph-name="Omega" unicode="&#x3a9;" horiz-adv-x="1362" 
d="M737 162q67 13 121.5 55t93 112.5t59.5 169.5t21 227v115q0 117 -25 206t-72.5 149t-114.5 91t-151 31q-83 0 -149.5 -31t-113.5 -91t-72.5 -149t-25.5 -206v-115q0 -128 22 -227.5t61.5 -170t95 -112t123.5 -54.5v-162h-492v157h221q-52 50 -94 114.5t-71 138t-45 154
t-16 162.5v113q0 142 40.5 259t113.5 201t175.5 130.5t226.5 46.5t227 -46.5t176.5 -130.5t114 -201t40.5 -259v-113q0 -82 -16 -162.5t-45 -154t-71 -138t-94 -114.5h220v-157h-484v162z" />
    <glyph glyph-name="afii57388" unicode="&#x60c;" horiz-adv-x="627" 
d="M323 -1q-128 0 -154 119q-13 57 10 156q41 178 232 363l61 -45q-80 -85 -123 -164.5t-49 -155.5v-2h2q157 2 158 -142q1 -128 -135 -129h-2z" />
    <glyph glyph-name="uni0615" unicode="&#x615;" horiz-adv-x="11" 
d="M791 1869q-38 3 -93.5 -32.5t-128.5 -109.5l-40 -39l-3 -4h4h123q95 0 145 23t53 69q6 88 -60 93zM928 1835q1 -14 1 -27q1 -195 -297 -195h-283v71h100h2v2v499h73v-403v-5l3 4l35 35q129 134 222 135q133 1 144 -116z" />
    <glyph glyph-name="uni061B" unicode="&#x61b;" horiz-adv-x="627" 
d="M323 443q-128 0 -154 119q-13 57 10 156q41 178 232 363l62 -45q-41 -42 -71.5 -83t-52 -81t-34 -79t-15.5 -77v-2h2q53 0 88 -15.5t52.5 -47t17.5 -80.5q0 -32 -8 -56t-25.5 -40t-43 -24t-60.5 -8zM187 127.5q0 53.5 37.5 90.5t90.5 38q55 -1 92.5 -38t37.5 -90.5
t-37.5 -91t-91.5 -37.5t-91.5 37.5t-37.5 91z" />
    <glyph glyph-name="uni061F" unicode="&#x61f;" horiz-adv-x="911" 
d="M387 127.5q0 53.5 37.5 90.5t91.5 38q54 -1 91.5 -38t37.5 -90.5t-37.5 -91t-90.5 -37.5q-55 0 -92.5 37.5t-37.5 91zM425 412v34q0 109 -106 199l-57 48q-162 137 -161 305q1 128 65 214q98 130 283 130q265 1 345 -306l-151 -49q-64 172 -189 170q-93 -2 -139 -60
q-37 -47 -37 -107q-1 -93 125 -188l44 -33q165 -124 165 -322v-35h-187z" />
    <glyph glyph-name="uni0621" unicode="&#x621;" horiz-adv-x="807" 
d="M445 670q-45 0 -81.5 -12.5t-63.5 -38.5q-45 -42 -45 -115q0 -81 62 -129q74 -57 181 -57q73 0 169 49l46 -154l-545 -208l-59 139l211 75l6 2l-6 2q-227 59 -226 291q0 173 138 258q85 53 204 54q45 0 84.5 -8.5t74.5 -25.5v-147q-74 25 -150 25z" />
    <glyph glyph-name="uni0627" unicode="&#x627;" horiz-adv-x="469" 
d="M160 1334h166v-1333h-166v1333z" />
    <glyph glyph-name="uni0628" unicode="&#x628;" horiz-adv-x="1901" 
d="M537 180h836q250 0 250 263v197h174v-194q0 -446 -431 -446h-832q-432 0 -432 442v201h175v-200q0 -263 260 -263zM825 -302l91 91q35 34 64 5l98 -97q31 -32 -3 -67l-91 -91q-33 -32 -65 -1l-97 98q-29 29 3 62z" />
    <glyph glyph-name="uni0629" unicode="&#x629;" horiz-adv-x="924" 
d="M513 1217l91 92q33 32 60 5l97 -97q30 -30 -2 -63l-92 -91q-30 -30 -60 0l-97 97q-25 28 3 57zM166 1217l91 92q33 32 60 5l97 -97q30 -30 -2 -63l-92 -91q-30 -30 -60 0l-97 97q-27 27 3 57zM456 624q-186 -157 -186 -295q0 -152 202 -152q187 0 187 156q0 130 -200 291
l-1 1zM103 312q0 213 237 428l1 2l-1 1l-38 35l103 120q423 -303 422 -571q0 -327 -357 -326q-367 1 -367 311z" />
    <glyph glyph-name="uni062A" unicode="&#x62a;" horiz-adv-x="1901" 
d="M537 180h836q250 0 250 263v197h174v-194q0 -446 -431 -446h-832q-432 0 -432 442v201h175v-200q0 -263 260 -263zM1000 923l91 92q33 32 60 5l97 -97q30 -30 -2 -63l-92 -91q-30 -30 -60 0l-97 97q-25 28 3 57zM653 923l91 92q33 32 60 5l97 -97q30 -30 -2 -63l-92 -91
q-30 -30 -60 0l-97 97q-27 27 3 57z" />
    <glyph glyph-name="uni062B" unicode="&#x62b;" horiz-adv-x="1901" 
d="M537 180h836q250 0 250 263v197h174v-194q0 -446 -431 -446h-832q-432 0 -432 442v201h175v-200q0 -263 260 -263zM1002 840l92 92q30 30 55 5l97 -97q28 -28 -2 -58l-92 -92q-28 -28 -56 0l-97 97q-25 25 3 53zM655 840l92 92q30 30 55 5l97 -97q28 -28 -2 -58l-92 -92
q-28 -28 -56 0l-97 97q-24 25 3 53zM828 1126l92 92q31 30 55 5l97 -97q28 -28 -2 -58l-92 -92q-28 -28 -55 0l-98 97q-25 25 3 53z" />
    <glyph glyph-name="uni062C" unicode="&#x62c;" horiz-adv-x="1319" 
d="M679 -92l91 91q35 34 64 5l98 -97q31 -32 -3 -67l-91 -91q-33 -32 -65 -1l-97 98q-29 29 3 62zM1076 322q-262 -37 -445 -108q-178 -69 -267 -167q-90 -99 -90 -227q-2 -339 530 -339h412v-176h-424q-389 1 -550 155q-143 138 -140 354q6 526 822 649l6 1l-5 3l-118 68
q-269 155 -491 -21l-71 -57l-115 129l61 52q314 265 655 68l189 -109q102 -58 180 -74v-182q-69 -9 -139 -19z" />
    <glyph glyph-name="uni062D" unicode="&#x62d;" horiz-adv-x="1319" 
d="M1076 322q-262 -37 -445 -108q-178 -69 -267 -167q-90 -99 -90 -227q-2 -339 530 -339h412v-176h-424q-389 1 -550 155q-143 138 -140 354q6 526 822 649l6 1l-5 3l-118 68q-269 155 -491 -21l-71 -57l-115 129l61 52q314 265 655 68l189 -109q102 -58 180 -74v-182
q-69 -9 -139 -19z" />
    <glyph glyph-name="uni062E" unicode="&#x62e;" horiz-adv-x="1319" 
d="M460 1179l91 91q35 34 64 5l98 -97q31 -32 -3 -67l-91 -91q-33 -32 -65 -1l-97 98q-29 29 3 62zM1076 322q-262 -37 -445 -108q-178 -69 -267 -167q-90 -99 -90 -227q-2 -339 530 -339h412v-176h-424q-389 1 -550 155q-143 138 -140 354q6 526 822 649l6 1l-5 3l-118 68
q-269 155 -491 -21l-71 -57l-115 129l61 52q314 265 655 68l189 -109q102 -58 180 -74v-182q-69 -9 -139 -19z" />
    <glyph glyph-name="uni062F" unicode="&#x62f;" horiz-adv-x="1011" 
d="M468 0h-364v180h365q262 0 263 127q0 68 -102 186l-274 316l121 136l298 -348q134 -156 133 -302q-1 -295 -440 -295z" />
    <glyph glyph-name="uni0630" unicode="&#x630;" horiz-adv-x="1011" 
d="M255 1292l91 91q35 34 64 5l98 -97q31 -32 -3 -67l-91 -91q-33 -32 -65 -1l-97 98q-29 29 3 62zM468 0h-364v180h365q262 0 263 127q0 68 -102 186l-274 316l121 136l298 -348q134 -156 133 -302q-1 -295 -440 -295z" />
    <glyph glyph-name="uni0631" unicode="&#x631;" horiz-adv-x="755" 
d="M94 -284q388 -1 388 355v534l174 1v-538q0 -525 -560 -529l-72 -1v178h70z" />
    <glyph glyph-name="uni0632" unicode="&#x632;" horiz-adv-x="755" 
d="M399 1054l91 91q35 34 64 5l98 -97q31 -32 -3 -67l-91 -91q-33 -32 -65 -1l-97 98q-29 29 3 62zM94 -284q388 -1 388 355v534l174 1v-538q0 -525 -560 -529l-72 -1v178h70z" />
    <glyph glyph-name="uni0633" unicode="&#x633;" horiz-adv-x="2484" 
d="M1533 -1q-124 1 -202 82l-3 4v-5v-28q0 -503 -579 -503h-55q-591 0 -591 552v341h177v-340q0 -372 416 -372h51q417 0 417 317v584h176v-234q0 -217 193 -218q169 -1 170 193v261h175l2 -259q1 -194 175 -195q152 -1 152 191v296h175v-304q0 -363 -326 -363
q-184 0 -257 143q-68 -143 -266 -143z" />
    <glyph glyph-name="uni0634" unicode="&#x634;" horiz-adv-x="2484" 
d="M1802 1013l92 92q30 30 55 5l97 -97q28 -28 -2 -58l-92 -92q-28 -28 -56 0l-97 97q-25 25 3 53zM1455 1013l92 92q30 30 55 5l97 -97q28 -28 -2 -58l-92 -92q-28 -28 -56 0l-97 97q-24 25 3 53zM1628 1299l92 92q31 30 55 5l97 -97q28 -28 -2 -58l-92 -92q-28 -28 -55 0
l-98 97q-25 25 3 53zM1533 -1q-124 1 -202 82l-3 4v-5v-28q0 -503 -579 -503h-55q-591 0 -591 552v341h177v-340q0 -372 416 -372h51q417 0 417 317v584h176v-234q0 -217 193 -218q169 -1 170 193v261h175l2 -259q1 -194 175 -195q152 -1 152 191v296h175v-304
q0 -363 -326 -363q-184 0 -257 143q-68 -143 -266 -143z" />
    <glyph glyph-name="uni0635" unicode="&#x635;" horiz-adv-x="2515" 
d="M1340 417q0 -185 97 -210h2l1 1q230 567 578 567q205 0 311 -141q84 -110 84 -267q-1 -177 -134 -281q-112 -86 -318 -86h-340q-235 0 -293 87v-35q0 -503 -579 -503h-55q-591 0 -591 552v341h177v-340q0 -372 416 -372h51q417 0 417 317v584h176v-214zM2227 422
q-40 170 -220 170q-201 0 -387 -411h3h358q148 0 207 53q45 39 45 113q0 45 -6 75z" />
    <glyph glyph-name="uni0636" unicode="&#x636;" horiz-adv-x="2515" 
d="M1814 1174l91 91q35 34 64 5l98 -97q31 -32 -3 -67l-91 -91q-33 -32 -65 -1l-97 98q-29 29 3 62zM1340 417q0 -185 97 -210h2l1 1q230 567 578 567q205 0 311 -141q84 -110 84 -267q-1 -177 -134 -281q-112 -86 -318 -86h-340q-235 0 -293 87v-35q0 -503 -579 -503h-55
q-591 0 -591 552v341h177v-340q0 -372 416 -372h51q417 0 417 317v584h176v-214zM2227 422q-40 170 -220 170q-201 0 -387 -411h3h358q148 0 207 53q45 39 45 113q0 45 -6 75z" />
    <glyph glyph-name="uni0637" unicode="&#x637;" horiz-adv-x="1369" 
d="M815 0h-711v180h179h1l1 1q14 41 108 218v1v935h166v-704v-5l3 3q148 146 310 146q201 0 311 -141q83 -107 83 -267q1 -177 -134 -281q-113 -86 -317 -86zM861 592q-202 0 -386 -409l-1 -2h3h358q150 0 207 52q43 40 45 114q0 45 -7 75q-39 170 -219 170z" />
    <glyph glyph-name="uni0638" unicode="&#x638;" horiz-adv-x="1369" 
d="M770 1173l91 91q35 34 64 5l98 -97q31 -32 -3 -67l-91 -91q-33 -32 -65 -1l-97 98q-29 29 3 62zM815 0h-711v180h179h1l1 1q14 41 108 218v1v935h166v-704v-5l3 3q148 146 310 146q201 0 311 -141q83 -107 83 -267q1 -177 -134 -281q-113 -86 -317 -86zM861 592
q-202 0 -386 -409l-1 -2h3h358q150 0 207 52q43 40 45 114q0 45 -7 75q-39 170 -219 170z" />
    <glyph glyph-name="uni0639" unicode="&#x639;" horiz-adv-x="1249" 
d="M102 -178q5 354 396 490l3 1l-2 2q-131 114 -131 258q1 172 109 283q110 112 286 112q185 0 306 -150l-72 -132q-101 98 -230 97q-120 0 -186 -88q-37 -50 -38 -120q0 -120 157 -209h1q109 8 240 8h168v-181h-184q-653 -1 -651 -373q1 -340 530 -339h342v-176h-354
q-389 1 -550 155q-143 138 -140 362z" />
    <glyph glyph-name="uni063A" unicode="&#x63a;" horiz-adv-x="1249" 
d="M617 1331l91 91q35 34 64 5l98 -97q31 -32 -3 -67l-91 -91q-33 -32 -65 -1l-97 98q-29 29 3 62zM102 -178q5 354 396 490l3 1l-2 2q-131 114 -131 258q1 172 109 283q110 112 286 112q185 0 306 -150l-72 -132q-101 98 -230 97q-120 0 -186 -88q-37 -50 -38 -120
q0 -120 157 -209h1q109 8 240 8h168v-181h-184q-653 -1 -651 -373q1 -340 530 -339h342v-176h-354q-389 1 -550 155q-143 138 -140 362z" />
    <glyph glyph-name="afii57440" unicode="&#x640;" horiz-adv-x="250" 
d="M255 180q23 0 23 -83v-11q0 -86 -23 -86h-260q-53 0 -53 86v11q0 83 53 83h260z" />
    <glyph glyph-name="uni0641" unicode="&#x641;" horiz-adv-x="1886" 
d="M1318 1345l91 91q35 34 64 5l98 -97q31 -32 -3 -67l-91 -91q-33 -32 -65 -1l-97 98q-29 29 3 62zM1288 0h-754q-432 0 -432 442v201h175v-200q0 -263 260 -263h754q330 0 330 148v23v2h-2q-79 -8 -151 -9q-356 0 -356 282q0 85 22 150t65 111q91 93 253 93
q332 0 332 -326v-319q0 -335 -496 -335zM1621 657q0 153 -167 152q-48 0 -82.5 -13t-56.5 -40q-38 -48 -38 -119q0 -120 199 -119q73 0 143 10h2v2v127z" />
    <glyph glyph-name="uni0642" unicode="&#x642;" horiz-adv-x="1434" 
d="M1026 1063l91 92q33 32 60 5l97 -97q30 -30 -2 -63l-92 -91q-30 -30 -60 0l-97 97q-25 28 3 57zM679 1063l91 92q33 32 60 5l97 -97q30 -30 -2 -63l-92 -91q-30 -30 -60 0l-97 97q-27 27 3 57zM1329 358l2 -424q2 -386 -542 -386h-98q-587 2 -588 554v340l175 1v-340
q0 -372 415 -370l95 1q374 2 372 203v64v2h-2h-161q-349 0 -348 342q1 184 88 282q89 100 259 100q149 1 238 -86q94 -91 95 -283zM816 346q0 -165 180 -165h162h2v2v169q-1 205 -168 204q-176 0 -176 -210z" />
    <glyph glyph-name="uni0643" unicode="&#x643;" horiz-adv-x="1889" 
d="M703 740q65 -9 130 -9q21 0 42 2.5t40.5 7.5t38.5 12q85 33 85 87q0 27 -23.5 44t-69.5 24q-90 15 -125 61q-54 71 -30 147q23 73 100.5 115t209.5 51l27 2v-96l-23 -2q-109 -9 -163.5 -37.5t-54.5 -77.5q0 -50 55 -67q28 -9 79 -17q13 -2 24.5 -5.5t22 -8.5t20 -11.5
t18.5 -14.5q33 -32 33 -88q0 -57 -23 -93q-112 -178 -420 -130l-21 3v104zM538 180h814q227 0 227 268v885h167v-888q0 -445 -399 -445h-812q-433 0 -433 442v211h175v-210q0 -263 261 -263z" />
    <glyph glyph-name="uni0644" unicode="&#x644;" horiz-adv-x="1337" 
d="M278 102q0 -368 366 -368h53q332 0 332 352v1247h165l-1 -1251q0 -529 -503 -529h-46q-541 0 -541 548v341h175v-340z" />
    <glyph glyph-name="uni0645" unicode="&#x645;" horiz-adv-x="1310" 
d="M843 569h-157h-2v-2v-199q0 -229 185 -229q166 0 166 229v42q0 159 -192 159zM858 741q350 0 350 -330v-44q0 -388 -339 -387q-358 0 -358 386v186v2h-2q-118 -12 -177 -111t-59 -284v-655h-170v648v6q-1 583 480 583h275z" />
    <glyph glyph-name="uni0646" unicode="&#x646;" horiz-adv-x="1442" 
d="M581 689l91 91q35 34 64 5l98 -97q31 -32 -3 -67l-91 -91q-33 -32 -65 -1l-97 98q-29 29 3 62zM1328 52q-11 -503 -579 -503h-55q-591 0 -591 552v341h177v-340q0 -372 416 -372h51q417 0 417 317v584h176z" />
    <glyph glyph-name="uni0647" unicode="&#x647;" horiz-adv-x="924" 
d="M456 624q-186 -157 -186 -295q0 -152 202 -152q187 0 187 156q0 130 -200 291l-1 1zM103 312q0 213 237 428l1 2l-1 1l-38 35l103 120q423 -303 422 -571q0 -327 -357 -326q-367 1 -367 311z" />
    <glyph glyph-name="uni0648" unicode="&#x648;" horiz-adv-x="877" 
d="M783 355v-357q0 -459 -568 -458h-74v179h68q403 -1 404 279v2h-2h-160q-349 0 -348 342q1 184 88 282q91 97 259 101q149 0 238 -86q95 -92 95 -284zM270 343q0 -162 180 -162h162h2v2l-1 166q0 205 -167 204q-176 0 -176 -210z" />
    <glyph glyph-name="uni0649" unicode="&#x649;" horiz-adv-x="1446" 
d="M1061 229q282 0 282 -220v-29q0 -429 -568 -429h-84q-588 0 -589 553v411h175v-410q0 -373 416 -373h91q387 0 387 230v12q0 81 -111 81h-161q-171 0 -171 165v65q0 236 105 353.5t316 117.5h194l1 -185h-237q-199 0 -204 -279l-2 -61v-2h2h158z" />
    <glyph glyph-name="uni064A" unicode="&#x64a;" horiz-adv-x="1446" 
d="M804 -685l91 92q33 32 60 5l97 -97q30 -30 -2 -63l-92 -91q-30 -30 -60 0l-97 97q-25 28 3 57zM457 -685l91 92q33 32 60 5l97 -97q30 -30 -2 -63l-92 -91q-30 -30 -60 0l-97 97q-27 27 3 57zM1061 229q282 0 282 -220v-29q0 -429 -568 -429h-84q-588 0 -589 553v411h175
v-410q0 -373 416 -373h91q387 0 387 230v12q0 81 -111 81h-161q-171 0 -171 165v65q0 236 105 353.5t316 117.5h194l1 -185h-237q-199 0 -204 -279l-2 -61v-2h2h158z" />
    <glyph glyph-name="uni064B" unicode="&#x64b;" 
d="M337 1053v97l392 160v-97zM337 1260v97l392 160v-97z" />
    <glyph glyph-name="uni064C" unicode="&#x64c;" 
d="M647 1471l8 20q5 10 7 21t2 22q0 35 -19 51q-18 15 -40 15q-23 0 -36 -10q-10 -8 -15 -19.5t-5 -25.5q0 -40 46 -59q9 -3 19 -6.5t21 -7.5l9 -3h2zM564 1323q17 16 30 33.5t23 36.5l6 12l1 2l-3 1l-13 3q-9 1 -17 3.5t-14.5 5.5t-13.5 6q-17 10 -30.5 20t-24 21.5
t-17.5 23.5t-10.5 25.5t-3.5 28.5q0 68 55 109q20 15 70 15q57 0 88 -30q43 -42 43 -105q0 -31 -9 -62l-4 -13l-1 -2h2l14 -1q16 -1 28 -1h21v-70q-16 0 -26.5 0.5t-17.5 1.5l-52 5h-1l-1 -1l-3 -7q-21 -51 -84 -116q-34 -35 -70.5 -52.5t-73.5 -17.5q-106 0 -134 124
q-2 9 -4 19.5t-3.5 21.5t-2.5 23t-1.5 25t-0.5 26h52q0 -22 1.5 -39.5t4 -32t5.5 -26.5q23 -72 83 -71q26 0 53.5 13.5t55.5 41.5z" />
    <glyph glyph-name="uni064D" unicode="&#x64d;" 
d="M342 -437v97l392 160v-97zM342 -230v97l392 160v-97z" />
    <glyph glyph-name="uni064E" unicode="&#x64e;" 
d="M308 1285v97l392 160v-97z" />
    <glyph glyph-name="uni064F" unicode="&#x64f;" 
d="M565 1441q-86 36 -86 118q0 68 54 109q21 15 70 15q58 0 89 -30q43 -42 43 -105q0 -25 -12 -62l-3 -12l-1 -3h2l14 -1q14 -1 30 -1q9 0 20 -1v-69q-11 0 -22 0.5t-22 1.5q-25 1 -49 4l-6 1h-1l-1 -1l-3 -5q-12 -17 -26 -32t-31 -28t-36 -25q-159 -98 -278 -103v69
q128 5 245 96q20 16 37 34l13 13l2 3h-3q-17 4 -39 14zM648 1484l9 21q9 20 9 43q0 18 -5 30.5t-15 20.5q-18 15 -39 15q-24 0 -37 -10q-20 -16 -20 -45q0 -40 46 -59q18 -7 41 -14l9 -3h1z" />
    <glyph glyph-name="uni0650" unicode="&#x650;" 
d="M352 -309v97l392 160v-97z" />
    <glyph glyph-name="uni0651" unicode="&#x651;" 
d="M437 1334q-134 0 -135 151v119h67l1 -120q0 -66 67 -67q75 0 76 98l2 132h66l2 -124q1 -67 80 -67q62 0 63 100l2 131h70l-1 -130q-3 -182 -133 -182q-38 0 -64.5 11.5t-42.5 33.5l-2 4l-1 -5q-22 -85 -117 -85z" />
    <glyph glyph-name="uni0652" unicode="&#x652;" 
d="M665 1382q0 42 -28.5 70.5t-70.5 28.5q-6 0 -12 -0.5t-11.5 -1.5t-10.5 -3l-10 -4q-2 -1 -4.5 -2.5t-5.5 -2.5q-4 -3 -8.5 -6.5t-8.5 -7.5q-14 -15 -21 -32q-4 -9 -5.5 -18.5t-1.5 -20.5q0 -42 28.5 -70.5t70.5 -28.5q21 0 38 7l4 2l4 2l4 2t3.5 2t3.5 2.5t3.5 2.5
t3.5 2.5t3.5 3l3.5 3.5q14 14 21 32q4 9 5.5 18.5t1.5 19.5zM743 1382q0 -74 -51 -125q-26 -26 -57.5 -39t-68.5 -13q-9 0 -18 1t-17.5 2.5t-16.5 3.5q-3 1 -5.5 2t-5.5 2t-5 2q-8 3 -15.5 7t-14.5 9t-14 10.5t-13 12.5q-26 25 -38.5 56.5t-12.5 68.5q0 13 1 25q0 2 0.5 5
l1 6t1.5 6t1 5q2 6 3.5 11.5t3.5 10.5q5 10 10.5 20t12.5 19t16 18q51 51 125 51q15 0 29 -2t27 -6t25 -10.5t23 -14.5t22 -18q25 -26 38 -57q3 -8 5.5 -16t4 -16.5t2.5 -17.5t1 -19z" />
    <glyph glyph-name="uni0653" unicode="&#x653;" horiz-adv-x="11" 
d="M319 1699h381l2 -158h-373q-102 0 -154 -67l-14 -19l-98 112l9 13q78 119 247 119z" />
    <glyph glyph-name="uni0654" unicode="&#x654;" 
d="M392 1650l107 25l5 1l-4 2q-76 47 -76 147q0 119 100 175q26 15 56.5 22.5t64.5 7.5q79 0 140 -38v-110q-48 26 -115 26q-118 -1 -119 -89q0 -10 2 -20t5.5 -18.5t9 -16t13 -14.5t16.5 -12.5t20 -10.5t24 -9h1l170 28v-117l-420 -94v115z" />
    <glyph glyph-name="uni0655" unicode="&#x655;" 
d="M392 -185l107 25l5 1l-4 2q-76 47 -76 147q0 119 100 175q26 15 56.5 22.5t64.5 7.5q79 0 140 -38v-110q-48 26 -115 26q-118 -1 -119 -89q0 -10 2 -20t5.5 -18.5t9 -16t13 -14.5t16.5 -12.5t20 -10.5t24 -9h1l170 28v-117l-420 -94v115z" />
    <glyph glyph-name="uni0657" unicode="&#x657;" horiz-adv-x="11" 
d="M377 1975l113 -8h1l1 1q47 67 113 107q177 109 314 120v-66q-50 -3 -98.5 -16.5t-94.5 -37.5t-91 -59q-4 -4 -8 -7t-8 -6.5t-7.5 -6.5t-7 -6.5l-7 -7l-7.5 -7.5l-24 -26l-3 -3h4l35 -8q3 -1 13 -5.5t26 -13.5q32 -17 56 -49.5t24 -72t-11 -62.5q-39 -77 -132 -77
q-47 0 -79.5 21t-49.5 65q-5 9 -7.5 19t-4 20.5t-1.5 21t1.5 22.5t4.5 25t7 27l8 25l1 2h-3l-26 2q-23 1 -52 2v65zM526 1893l-13 -31q-11 -25 -11 -62q0 -18 6 -32.5t18 -24.5q25 -20 53 -20q29 1 47 13.5t25 36.5q1 5 1.5 10t0.5 10q0 63 -107 96l-18 5l-1 1z" />
    <glyph glyph-name="uni065A" unicode="&#x65a;" horiz-adv-x="1295" 
d="M571 1594l-212 354h111l176 -265l2 -2l2 2l176 265h111l-212 -354h-154z" />
    <glyph glyph-name="afii57392" unicode="&#x660;" horiz-adv-x="936" 
d="M180 500q3 120 85.5 203t202.5 84q60 0 111 -21t92 -63q21 -21 36.5 -44t26 -48t16 -53t5.5 -58q-1 -119 -84 -202q-41 -42 -92 -63t-111 -21q-120 1 -202.5 84t-85.5 202zM341 500q1 -26 10 -48.5t28 -40.5q36 -37 89 -37t90 37t37 89q0 11 -2 21t-5 19t-7 17.5
t-10 16.5t-13 16q-19 18 -41.5 27.5t-48.5 9.5q-53 -1 -89 -37q-39 -39 -38 -90z" />
    <glyph glyph-name="afii57393" unicode="&#x661;" horiz-adv-x="702" 
d="M468 4h-171v306q0 549 -122 956l163 50q130 -434 130 -1007v-305z" />
    <glyph glyph-name="afii57394" unicode="&#x662;" horiz-adv-x="1138" 
d="M467 310v-306h-171v306q0 548 -120 956l164 50l43 -193q23 -101 93 -159q68 -57 179 -58q170 -1 193 138q8 54 8 179v95h165v-91q0 -153 -11 -219q-47 -280 -354 -281q-125 0 -211 56l-4 2l1 -4q25 -155 25 -471z" />
    <glyph glyph-name="afii57395" unicode="&#x663;" horiz-adv-x="1405" 
d="M383 1113q46 -216 206 -214q119 2 119 183l1 195h163l-1 -205q0 -173 147 -173q118 0 117 168v249h162l1 -183q2 -406 -273 -406q-163 0 -224 120l-2 3l-2 -3q-64 -117 -189 -117q-104 0 -162 52l-5 3l1 -5q11 -65 19 -190q6 -94 6 -280v-306h-171v306q0 548 -120 956
l164 50z" />
    <glyph glyph-name="afii57396" unicode="&#x664;" horiz-adv-x="1156" 
d="M448 726q19 -229 19 -416v-306h-171v306q0 546 -120 956l163 50q71 -351 72 -357q6 -34 34 -46l23 -10l3 -1v3q2 412 348 412q97 0 194 -41l-15 -147q-84 27 -164 26q-98 -1 -156 -60q-63 -64 -63 -179q0 -99 212 -98q134 0 224 28l3 -162q-122 -33 -239 -33
q-206 0 -364 77l-3 1v-3z" />
    <glyph glyph-name="afii57397" unicode="&#x665;" horiz-adv-x="1258" 
d="M388 184q148 -1 170 231h139q11 -232 168 -235q130 -3 129 145q-1 265 -363 674l-1 2l-2 -2q-182 -209 -273.5 -377.5t-92.5 -298.5q-1 -139 126 -139zM383 0q-281 0 -281 297q0 345 411 822l1 2l-1 1q-8 9 -16.5 18t-17 17.5t-16.5 17.5l120 137q25 -31 91 -101
q481 -521 482 -887q1 -324 -289 -324q-182 0 -242 168l-2 6l-2 -6q-63 -167 -238 -168z" />
    <glyph glyph-name="afii57398" unicode="&#x666;" horiz-adv-x="1000" 
d="M304 940q1 -158 197 -182q54 -7 82 -1q34 7 68 31l158 112l88 -154q-174 -74 -540 -785l-154 73q246 462 312 557l2 3h-4q-378 36 -378 340q0 162 95 267q104 115 276 115q122 0 209 -48l-1 -160q-83 42 -174 42q-101 0 -165 -51q-72 -57 -71 -159z" />
    <glyph glyph-name="afii57399" unicode="&#x667;" horiz-adv-x="1201" 
d="M602 393q102 425 338 932l158 -82q-314 -590 -425 -1239h-145q-111 649 -425 1239l158 82q236 -507 337 -932l2 -9z" />
    <glyph glyph-name="afii57400" unicode="&#x668;" horiz-adv-x="1201" 
d="M599 917q-102 -425 -338 -932l-158 82q314 590 425 1239h145q111 -649 425 -1239l-158 -82q-236 507 -337 932l-2 9z" />
    <glyph glyph-name="afii57401" unicode="&#x669;" horiz-adv-x="1147" 
d="M743 310l-1 343v4l-3 -2q-101 -61 -238 -61q-191 1 -284 110q-85 100 -85 224q0 171 92 271q115 126 311 126q329 0 362 -370q17 -202 17 -646v-305h-171v306zM514 762q141 0 216 81v1q0 67 -15 162q-11 69 -52 106q-45 42 -129 42q-135 0 -196 -89q-41 -57 -41 -136
q1 -167 217 -167z" />
    <glyph glyph-name="afii57381" unicode="&#x66a;" horiz-adv-x="1291" 
d="M798 256q0 31 11 57.5t34 48.5q45 44 108 44t108 -44t45 -106q0 -20 -5 -38.5t-15 -35t-25 -31.5q-45 -44 -108 -44q-32 0 -58.5 11t-49.5 33q-46 45 -45 105zM187 1123q0 61 45 105q46 44 109 44q62 0 108 -44q45 -44 45 -105q0 -31 -11.5 -57t-33.5 -49
q-46 -44 -108 -44q-63 0 -108.5 44.5t-45.5 105.5zM875 1328l151 -77l-669 -1241l-150 79z" />
    <glyph glyph-name="uni066B" unicode="&#x66b;" horiz-adv-x="667" 
d="M58 -212l397 783l119 -57l-393 -785z" />
    <glyph glyph-name="uni066C" unicode="&#x66c;" horiz-adv-x="592" 
d="M299 258q130 -3 140 -113q9 -99 -21 -199q-55 -189 -248 -277l-47 44q189 106 208 284v3h-2q-31 -1 -41 0q-67 3 -99.5 33.5t-31.5 88.5q2 139 142 136z" />
    <glyph glyph-name="afii63167" unicode="&#x66d;" horiz-adv-x="1411" 
d="M199 907h385h1l1 1l120 366l120 -366v-1h2h385l-311 -227l-1 -1v-2l119 -365l-313 226l-1 1l-1 -1l-313 -226l118 365l1 2l-1 1z" />
    <glyph glyph-name="uni066E" unicode="&#x66e;" horiz-adv-x="1901" 
d="M537 180h836q250 0 250 263v197h174v-194q0 -446 -431 -446h-832q-432 0 -432 442v201h175v-200q0 -263 260 -263z" />
    <glyph glyph-name="uni066F" unicode="&#x66f;" horiz-adv-x="1434" 
d="M1329 358l2 -424q2 -386 -542 -386h-98q-587 2 -588 554v340l175 1v-340q0 -372 415 -370l95 1q374 2 372 203v64v2h-2h-161q-349 0 -348 342q1 184 88 282q89 100 259 100q149 1 238 -86q94 -91 95 -283zM816 346q0 -165 180 -165h162h2v2v169q-1 205 -168 204
q-176 0 -176 -210z" />
    <glyph glyph-name="uni0670" unicode="&#x670;" horiz-adv-x="11" 
d="M607 1557v369h82v-369h-82z" />
    <glyph glyph-name="uni0674" unicode="&#x674;" horiz-adv-x="759" 
d="M164 1773l107 25l5 1l-4 2q-76 47 -76 147q0 119 100 175q26 15 56.5 22.5t64.5 7.5q79 0 140 -38v-110q-48 26 -115 26q-118 -1 -119 -89q0 -10 2 -20t5.5 -18.5t9 -16t13 -14.5t16.5 -12.5t20 -10.5t24 -9h1l170 28v-117l-420 -94v115z" />
    <glyph glyph-name="afii57506" unicode="&#x67e;" horiz-adv-x="1901" 
d="M538 180h836q250 0 250 263v197h174v-194q0 -446 -431 -446h-832q-432 0 -432 442v201h175v-200q0 -263 260 -263zM1002 -320q-28 28 -3 53l97 97q28 28 56 -1l92 -91q30 -30 2 -58l-97 -97q-24 -25 -55 5zM655 -320q-28 28 -3 53l97 97q28 28 56 -1l92 -91q30 -30 2 -58
l-97 -97q-25 -25 -55 5zM828 -606q-28 28 -3 53l98 97q27 28 55 -1l92 -91q30 -30 2 -58l-97 -97q-25 -25 -55 5z" />
    <glyph glyph-name="afii57507" unicode="&#x686;" horiz-adv-x="1319" 
d="M835.715 -48.3213q-25.7598 25.7598 -2.75977 48.7588l89.2383 89.2383q25.7588 25.7598 51.5186 -0.919922l84.6387 -83.7178q27.5996 -27.5996 1.83984 -53.3594l-89.2383 -89.2383q-22.0801 -23 -50.5986 4.59961zM516.48 -48.3213q-25.7598 25.7598 -2.75977 48.7588
l89.2383 89.2383q25.7598 25.7598 51.5186 -0.919922l84.6387 -83.7178q27.5996 -27.5996 1.83984 -53.3594l-89.2383 -89.2383q-22.999 -23 -50.5986 4.59961zM675.638 -311.437q-25.7598 25.7598 -2.75977 48.7588l90.1582 89.2383q24.8389 25.7598 50.5986 -0.919922
l84.6387 -83.7178q27.5996 -27.5996 1.83984 -53.3594l-89.2383 -89.2383q-23 -23 -50.5986 4.59961zM1076 322q-262 -37 -445 -108q-178 -69 -267 -167q-90 -99 -90 -227q-2 -339 530 -339h412v-176h-424q-389 1 -550 155q-143 138 -140 354q6 526 822 649l6 1l-5 3
l-118 68q-269 155 -491 -21l-71 -57l-115 129l61 52q314 265 655 68l189 -109q102 -58 180 -74v-182q-69 -9 -139 -19z" />
    <glyph glyph-name="afii57508" unicode="&#x698;" horiz-adv-x="824" 
d="M524 973l92 92q30 30 55 5l97 -97q28 -28 -2 -58l-92 -92q-28 -28 -56 0l-97 97q-25 25 3 53zM177 973l92 92q30 30 55 5l97 -97q28 -28 -2 -58l-92 -92q-28 -28 -56 0l-97 97q-24 25 3 53zM350 1259l92 92q31 30 55 5l97 -97q28 -28 -2 -58l-92 -92q-28 -28 -55 0
l-98 97q-25 25 3 53zM94 -284q388 -1 388 355v534l174 1v-538q0 -525 -560 -529l-72 -1v178h70z" />
    <glyph glyph-name="uni06A1" unicode="&#x6a1;" horiz-adv-x="1886" 
d="M1288 0h-754q-432 0 -432 442v201h175v-200q0 -263 260 -263h754q330 0 330 148v23v2h-2q-79 -8 -151 -9q-356 0 -356 282q0 85 22 150t65 111q91 93 253 93q332 0 332 -326v-319q0 -335 -496 -335zM1621 657q0 153 -167 152q-48 0 -82.5 -13t-56.5 -40q-38 -48 -38 -119
q0 -120 199 -119q73 0 143 10h2v2v127z" />
    <glyph glyph-name="uni06A9" unicode="&#x6a9;" horiz-adv-x="1855" 
d="M537 180h723q250 0 250 134q0 56 -112 183l-320 365q-48 55 -47 136q1 120 116 158l625 206v-181l-568 -185l-3 -1l2 -2l310 -354q162 -185 164 -331q3 -308 -416 -308h-1h-1h-725q-432 0 -432 442v201h175v-200q0 -263 260 -263z" />
    <glyph glyph-name="afii57509" unicode="&#x6af;" horiz-adv-x="1855" 
d="M1766.32 1501.22l-629.128 -219.339v117.694l629.128 219.339v-117.694zM537 180h723q250 0 250 134q0 56 -112 183l-320 365q-48 55 -47 136q1 120 116 158l625 206v-181l-568 -185l-3 -1l2 -2l310 -354q162 -185 164 -331q3 -308 -416 -308h-1h-1h-725q-432 0 -432 442
v201h175v-200q0 -263 260 -263z" />
    <glyph glyph-name="afii57514" unicode="&#x6ba;" horiz-adv-x="1442" 
d="M1328 52q-11 -503 -579 -503h-55q-591 0 -591 552v341h177v-340q0 -372 416 -372h51q417 0 417 317v584h176z" />
    <glyph glyph-name="uni06C0" unicode="&#x6c0;" horiz-adv-x="924" 
d="M181 1132q35 -16 110 -16h52q215 0 215 88v6q0 41 -58 41h-92q-102 0 -102 99v38q0 132 133 179q47 17 112 17h115l1 -116h-5h-135q-110 0 -112 -77v-30h86q166 0 166 -131v-16q0 -211 -329 -211h-48q-87 0 -136 17zM456 624q-186 -157 -186 -295q0 -152 202 -152
q187 0 187 156q0 130 -200 291l-1 1zM103 312q0 213 237 428l1 2l-1 1l-38 35l103 120q423 -303 422 -571q0 -327 -357 -326q-367 1 -367 311z" />
    <glyph glyph-name="uni06CA" unicode="&#x6ca;" horiz-adv-x="877" 
d="M493 1068l91 92q33 32 60 5l97 -97q30 -30 -2 -63l-92 -91q-30 -30 -60 0l-97 97q-25 28 3 57zM146 1068l91 92q33 32 60 5l97 -97q30 -30 -2 -63l-92 -91q-30 -30 -60 0l-97 97q-27 27 3 57zM783 355v-357q0 -459 -568 -458h-74v179h68q403 -1 404 279v2h-2h-160
q-349 0 -348 342q1 184 88 282q91 97 259 101q149 0 238 -86q95 -92 95 -284zM270 343q0 -162 180 -162h162h2v2l-1 166q0 205 -167 204q-176 0 -176 -210z" />
    <glyph glyph-name="uni06CC" unicode="&#x6cc;" horiz-adv-x="1446" 
d="M1061 229q282 0 282 -220v-29q0 -429 -568 -429h-84q-588 0 -589 553v411h175v-410q0 -373 416 -373h91q387 0 387 230v12q0 81 -111 81h-161q-171 0 -171 165v65q0 236 105 353.5t316 117.5h194l1 -185h-237q-199 0 -204 -279l-2 -61v-2h2h158z" />
    <glyph glyph-name="afii57534" unicode="&#x6d5;" horiz-adv-x="924" 
d="M456 624q-186 -157 -186 -295q0 -152 202 -152q187 0 187 156q0 130 -200 291l-1 1zM103 312q0 213 237 428l1 2l-1 1l-38 35l103 120q423 -303 422 -571q0 -327 -357 -326q-367 1 -367 311z" />
    <glyph glyph-name="uni06F0" unicode="&#x6f0;" horiz-adv-x="936" 
d="M180 500q3 120 85.5 203t202.5 84q60 0 111 -21t92 -63q21 -21 36.5 -44t26 -48t16 -53t5.5 -58q-1 -119 -84 -202q-41 -42 -92 -63t-111 -21q-120 1 -202.5 84t-85.5 202zM341 500q1 -26 10 -48.5t28 -40.5q36 -37 89 -37t90 37t37 89q0 11 -2 21t-5 19t-7 17.5
t-10 16.5t-13 16q-19 18 -41.5 27.5t-48.5 9.5q-53 -1 -89 -37q-39 -39 -38 -90z" />
    <glyph glyph-name="uni06F1" unicode="&#x6f1;" horiz-adv-x="702" 
d="M468 4h-171v306q0 549 -122 956l163 50q130 -434 130 -1007v-305z" />
    <glyph glyph-name="uni06F2" unicode="&#x6f2;" horiz-adv-x="1138" 
d="M467 310v-306h-171v306q0 548 -120 956l164 50l43 -193q23 -101 93 -159q68 -57 179 -58q170 -1 193 138q8 54 8 179v95h165v-91q0 -153 -11 -219q-47 -280 -354 -281q-125 0 -211 56l-4 2l1 -4q25 -155 25 -471z" />
    <glyph glyph-name="uni06F3" unicode="&#x6f3;" horiz-adv-x="1415" 
d="M383 1113q46 -216 206 -214q119 2 119 183l1 195h163l-1 -205q0 -173 147 -173q118 0 117 168v249h162l1 -183q2 -406 -273 -406q-163 0 -224 120l-2 3l-2 -3q-64 -117 -189 -117q-104 0 -162 52l-5 3l1 -5q11 -65 19 -190q6 -94 6 -280v-306h-171v306q0 548 -120 956
l164 50z" />
    <glyph glyph-name="uni06F4" unicode="&#x6f4;" horiz-adv-x="1156" 
d="M448 726q19 -229 19 -416v-306h-171v306q0 546 -120 956l163 50q71 -351 72 -357q6 -34 34 -46l23 -10l3 -1v3q2 412 348 412q97 0 194 -41l-15 -147q-84 27 -164 26q-98 -1 -156 -60q-63 -64 -63 -179q0 -99 212 -98q134 0 224 28l3 -162q-122 -33 -239 -33
q-206 0 -364 77l-3 1v-3z" />
    <glyph glyph-name="uni06F5" unicode="&#x6f5;" horiz-adv-x="1258" 
d="M388 184q148 -1 170 231h139q11 -232 168 -235q130 -3 129 145q-1 265 -363 674l-1 2l-2 -2q-182 -209 -273.5 -377.5t-92.5 -298.5q-1 -139 126 -139zM383 0q-281 0 -281 297q0 345 411 822l1 2l-1 1q-8 9 -16.5 18t-17 17.5t-16.5 17.5l120 137q25 -31 91 -101
q481 -521 482 -887q1 -324 -289 -324q-182 0 -242 168l-2 6l-2 -6q-63 -167 -238 -168z" />
    <glyph glyph-name="uni06F6" unicode="&#x6f6;" horiz-adv-x="1000" 
d="M304 940q1 -158 197 -182q54 -7 82 -1q34 7 68 31l158 112l88 -154q-174 -74 -540 -785l-154 73q246 462 312 557l2 3h-4q-378 36 -378 340q0 162 95 267q104 115 276 115q122 0 209 -48l-1 -160q-83 42 -174 42q-101 0 -165 -51q-72 -57 -71 -159z" />
    <glyph glyph-name="uni06F7" unicode="&#x6f7;" horiz-adv-x="1201" 
d="M602 393q102 425 338 932l158 -82q-314 -590 -425 -1239h-145q-111 649 -425 1239l158 82q236 -507 337 -932l2 -9z" />
    <glyph glyph-name="uni06F8" unicode="&#x6f8;" horiz-adv-x="1201" 
d="M599 917q-102 -425 -338 -932l-158 82q314 590 425 1239h145q111 -649 425 -1239l-158 -82q-236 507 -337 932l-2 9z" />
    <glyph glyph-name="uni06F9" unicode="&#x6f9;" horiz-adv-x="1147" 
d="M743 310l-1 343v4l-3 -2q-101 -61 -238 -61q-191 1 -284 110q-85 100 -85 224q0 171 92 271q115 126 311 126q329 0 362 -370q17 -202 17 -646v-305h-171v306zM514 762q141 0 216 81v1q0 67 -15 162q-11 69 -52 106q-45 42 -129 42q-135 0 -196 -89q-41 -57 -41 -136
q1 -167 217 -167z" />
    <glyph glyph-name="uni2000" unicode="&#x2000;" horiz-adv-x="1044" 
 />
    <glyph glyph-name="uni2001" unicode="&#x2001;" horiz-adv-x="2089" 
 />
    <glyph glyph-name="uni2002" unicode="&#x2002;" horiz-adv-x="1044" 
 />
    <glyph glyph-name="uni2003" unicode="&#x2003;" horiz-adv-x="2089" 
 />
    <glyph glyph-name="uni2004" unicode="&#x2004;" horiz-adv-x="697" 
 />
    <glyph glyph-name="uni2005" unicode="&#x2005;" horiz-adv-x="522" 
 />
    <glyph glyph-name="uni2006" unicode="&#x2006;" horiz-adv-x="348" 
 />
    <glyph glyph-name="uni2007" unicode="&#x2007;" horiz-adv-x="1151" 
 />
    <glyph glyph-name="uni2008" unicode="&#x2008;" horiz-adv-x="560" 
 />
    <glyph glyph-name="uni2009" unicode="&#x2009;" horiz-adv-x="418" 
 />
    <glyph glyph-name="uni200A" unicode="&#x200a;" horiz-adv-x="209" 
 />
    <glyph glyph-name="uni200B" unicode="&#x200b;" horiz-adv-x="11" 
 />
    <glyph glyph-name="afii61664" unicode="&#x200c;" horiz-adv-x="11" 
 />
    <glyph glyph-name="afii301" unicode="&#x200d;" horiz-adv-x="11" 
 />
    <glyph glyph-name="endash" unicode="&#x2013;" horiz-adv-x="1344" 
d="M1164.55 651h-1001.96v151h1001.96v-151z" />
    <glyph glyph-name="emdash" unicode="&#x2014;" horiz-adv-x="1599" 
d="M1480.78 651h-1335.98v151h1335.98v-151z" />
    <glyph glyph-name="uni2015" unicode="&#x2015;" horiz-adv-x="1599" 
d="M1480.78 651h-1335.98v151h1335.98v-151z" />
    <glyph glyph-name="underscoredbl" unicode="&#x2017;" horiz-adv-x="934" 
d="M929 -404h-916v151h916v-151zM929 -151h-916v151h916v-151z" />
    <glyph glyph-name="quoteleft" unicode="&#x2018;" horiz-adv-x="409" 
d="M96 1193q0 45 11.5 94.5t34 97.5t55 92t73.5 78l106 -72q-48 -66 -72 -135.5t-24 -151.5v-123h-184v120z" />
    <glyph glyph-name="quoteright" unicode="&#x2019;" horiz-adv-x="409" 
d="M327 1408q0 -46 -11.5 -95.5t-34 -97.5t-54.5 -91.5t-74 -77.5l-105 72q47 66 71.5 135.5t24.5 151.5v131h183v-128z" />
    <glyph glyph-name="quotesinglbase" unicode="&#x201a;" horiz-adv-x="407" 
d="M315 78q0 -45 -11.5 -94t-34 -97t-54.5 -92t-74 -78l-105 73q47 66 70.5 135.5t23.5 149.5v106h185v-103z" />
    <glyph glyph-name="quotereversed" unicode="&#x201b;" horiz-adv-x="410" 
d="M80 1408v128h183v-131q0 -82 24.5 -151.5t71.5 -135.5l-105 -72q-42 34 -74 77.5t-54.5 91.5t-34 97.5t-11.5 95.5z" />
    <glyph glyph-name="quotedblleft" unicode="&#x201c;" horiz-adv-x="724" 
d="M104 1193q0 45 11.5 94.5t34 97.5t55 92t73.5 78l106 -72q-48 -66 -72 -135.5t-24 -151.5v-123h-184v120zM419 1193q0 45 11.5 94.5t34 97.5t55 92t73.5 78l106 -72q-48 -66 -72 -135.5t-24 -151.5v-123h-184v120z" />
    <glyph glyph-name="quotedblright" unicode="&#x201d;" horiz-adv-x="731" 
d="M339 1408q0 -46 -11.5 -95.5t-34 -97.5t-54.5 -91.5t-74 -77.5l-105 72q47 66 71.5 135.5t24.5 151.5v131h183v-128zM646 1408q0 -46 -11.5 -95.5t-34 -97.5t-54.5 -91.5t-74 -77.5l-105 72q47 66 71.5 135.5t24.5 151.5v131h183v-128z" />
    <glyph glyph-name="quotedblbase" unicode="&#x201e;" horiz-adv-x="705" 
d="M315 78q0 -47 -11.5 -99t-34 -102t-54.5 -96t-74 -82l-105 72q47 71 70.5 144.5t23.5 159.5v171h185v-168zM612 78q0 -47 -11.5 -99t-34 -102t-55 -96t-74.5 -82l-105 72q47 71 70.5 144.5t23.5 159.5v171h186v-168z" />
    <glyph glyph-name="dagger" unicode="&#x2020;" horiz-adv-x="1129" 
d="M1060 929h-404v-929h-186v929h-400v153h400v374h186v-374h404v-153z" />
    <glyph glyph-name="daggerdbl" unicode="&#x2021;" horiz-adv-x="1167" 
d="M1076 0h-406v-416h-186v416h-397v151h397v778h-397v153h397v374h186v-374h406v-153h-406v-778h406v-151z" />
    <glyph glyph-name="bullet" unicode="&#x2022;" horiz-adv-x="690" 
d="M138 793q0 43 14.5 79.5t40.5 62.5t63.5 41t84.5 15q48 0 86 -15t64.5 -41t40.5 -62.5t14 -79.5v-61q0 -43 -14 -79t-40.5 -62.5t-64 -41t-85.5 -14.5q-47 0 -84.5 14.5t-64 41t-41 62.5t-14.5 79v61z" />
    <glyph glyph-name="uni2025" unicode="&#x2025;" horiz-adv-x="964" 
d="M162 127.5q0 53.5 37.5 90.5t91.5 38q54 -1 91.5 -38t37.5 -90.5t-37.5 -91t-90.5 -37.5q-55 0 -92.5 37.5t-37.5 91zM599 127.5q0 53.5 37.5 90.5t91.5 38q54 -1 91.5 -38t37.5 -90.5t-37.5 -91t-90.5 -37.5q-55 0 -92.5 37.5t-37.5 91z" />
    <glyph glyph-name="ellipsis" unicode="&#x2026;" horiz-adv-x="1370" 
d="M162 127.5q0 53.5 37.5 90.5t91.5 38q54 -1 91.5 -38t37.5 -90.5t-37.5 -91t-90.5 -37.5q-55 0 -92.5 37.5t-37.5 91zM599 127.5q0 53.5 37.5 90.5t91.5 38q54 -1 91.5 -38t37.5 -90.5t-37.5 -91t-90.5 -37.5q-55 0 -92.5 37.5t-37.5 91zM1014 127.5q0 53.5 37.5 90.5
t91.5 38q54 -1 91.5 -38t37.5 -90.5t-37.5 -91t-90.5 -37.5q-55 0 -92.5 37.5t-37.5 91z" />
    <glyph glyph-name="uni202F" unicode="&#x202f;" horiz-adv-x="117" 
 />
    <glyph glyph-name="perthousand" unicode="&#x2030;" horiz-adv-x="1962" 
d="M823 357q0 61 20.5 116t59.5 95.5t94 64.5t124 24q78 0 136 -33t94 -88q35 55 93 88t136 33q70 0 125.5 -24t94 -64.5t59 -95.5t20.5 -116v-78q0 -62 -20.5 -116.5t-58.5 -95t-93.5 -64.5t-124.5 -24q-78 0 -136.5 32.5t-94.5 87.5q-35 -55 -93 -87.5t-135 -32.5
q-70 0 -125.5 24t-94.5 64.5t-59.5 95t-20.5 116.5v78zM68 1176q0 62 20.5 116.5t59.5 95.5t94 65t124 24q70 0 125.5 -24t94 -65t59 -95.5t20.5 -116.5v-77q0 -61 -20.5 -115.5t-58.5 -95t-93 -64.5t-125 -24t-125.5 24t-94.5 64.5t-59.5 95t-20.5 115.5v77zM962 279
q0 -35 10 -67.5t30 -57.5t50 -40t71 -15q40 0 70 15t50 40t29.5 57.5t9.5 67.5v78q0 35 -10 67.5t-30 57.5t-50 40t-71 15q-40 0 -70 -15t-49.5 -40t-29.5 -57.5t-10 -67.5v-78zM1420 279q0 -35 10 -67.5t30 -57.5t50 -40t71 -15q40 0 70 15t49.5 40t29.5 57.5t10 67.5v78
q0 35 -10 67.5t-30 57.5t-50 40t-71 15q-40 0 -70 -15t-49.5 -40t-29.5 -57.5t-10 -67.5v-78zM207 1099q0 -35 10 -67t30 -57t50 -40t71 -15q40 0 70 15t50 39.5t29.5 57t9.5 67.5v77q0 35 -10 68t-30 58t-50 40t-71 15q-40 0 -70 -15t-49.5 -40t-29.5 -58t-10 -68v-77z
M429 110l-104 66l711 1138l104 -66z" />
    <glyph glyph-name="minute" unicode="&#x2032;" horiz-adv-x="357" 
d="M253 1425l-21 -368h-129l1 352v127h149v-111z" />
    <glyph glyph-name="second" unicode="&#x2033;" horiz-adv-x="655" 
d="M277 1400l-30 -358h-111l1 348v146h140v-136zM547 1400l-30 -358h-111l1 356v138h140v-136z" />
    <glyph glyph-name="guilsinglleft" unicode="&#x2039;" horiz-adv-x="614" 
d="M286 550l258 -397h-141l-295 388v19l295 389h141z" />
    <glyph glyph-name="guilsinglright" unicode="&#x203a;" horiz-adv-x="614" 
d="M231 949l295 -389v-19l-295 -389h-142l258 398l-258 399h142z" />
    <glyph glyph-name="exclamdbl" unicode="&#x203c;" horiz-adv-x="1054" 
d="M153 130.5q0 53.5 37.5 90.5t90.5 38q55 -1 92.5 -38t37.5 -90.5t-37.5 -91t-91.5 -37.5t-91.5 37.5t-37.5 91zM179 1351h198l-21 -928h-155zM680 130.5q0 53.5 37.5 90.5t90.5 38q55 -1 92.5 -38t37.5 -90.5t-37.5 -91t-91.5 -37.5t-91.5 37.5t-37.5 91zM706 1351h198
l-21 -928h-155z" />
    <glyph glyph-name="fraction" unicode="&#x2044;" horiz-adv-x="931" 
d="M163 110l-104 66l711 1138l104 -66z" />
    <glyph glyph-name="uni2074" unicode="&#x2074;" horiz-adv-x="751" 
d="M592 966h107v-130h-107v-169h-157v169h-375l-6 102l377 518h161v-490zM212 966h223v289l-17 -28z" />
    <glyph glyph-name="nsuperior" unicode="&#x207f;" horiz-adv-x="864" 
d="M250 1451l30 -123q35 65 91 101.5t129 36.5q60 0 108 -17.5t81.5 -55t52 -95.5t18.5 -139v-508h-170v476q0 54 -10.5 91.5t-29 60.5t-45 33t-59.5 10q-59 0 -96.5 -29.5t-57.5 -79.5v-562h-170v800h128z" />
    <glyph glyph-name="franc" unicode="&#x20a3;" horiz-adv-x="1132" 
d="M654 266h-636v151h636v-151zM972 643h-611v-643h-192v1456h902v-158h-710v-498h611v-157z" />
    <glyph glyph-name="lira" unicode="&#x20a4;" horiz-adv-x="1190" 
d="M789 470h-335l3 -68q0 -70 -15 -134t-47 -111h733l-1 -157h-1032v157h77q26 6 43.5 32.5t28.5 62.5t15.5 76t4.5 73l-3 69h-170v125h166l-4 136h-162v125h157l-6 183q0 103 33.5 184.5t93 137.5t141 85.5t177.5 29.5q97 0 174 -28.5t129.5 -79.5t80.5 -122.5t28 -158.5
h-191q0 63 -20 106.5t-53 71.5t-76 40.5t-89 12.5q-49 0 -92 -18.5t-74.5 -54t-50 -87.5t-18.5 -119l6 -183h348v-125h-343l4 -136h339v-125z" />
    <glyph glyph-name="peseta" unicode="&#x20a7;" horiz-adv-x="1681" 
d="M352 565v-565h-185v1456h378q124 0 211.5 -33.5t143.5 -93t82 -141t26 -177.5t-26 -178t-82 -141.5t-143.5 -93t-211.5 -33.5h-193zM352 717h193q87 0 141 25t84.5 65.5t41 93t10.5 108.5t-10.5 109t-41 94.5t-84.5 66.5t-141 25h-193v-587zM1331 1344v-262h202v-143
h-202v-671q0 -42 10 -67.5t26.5 -39.5t38 -18.5t44.5 -4.5t48.5 4.5t39.5 7.5v-150q-22 -6 -57 -13t-85 -7q-51 0 -96.5 14.5t-79.5 48.5t-54 89.5t-20 136.5v670h-197v143h197v262h185z" />
    <glyph glyph-name="uni20AB" unicode="&#x20ab;" horiz-adv-x="1185" 
d="M1196 1234h-636v151h636v-151zM95 550q0 124 30.5 225.5t86.5 174t134.5 112.5t175.5 40q99 0 173 -33.5t128 -96.5v564h185v-1536h-170l-9 116q-54 -66 -130 -101t-179 -35q-95 0 -173.5 41t-134.5 114.5t-86.5 174t-30.5 219.5v21zM280 529q0 -81 16.5 -152.5
t51.5 -124.5t89 -84t129 -31q49 0 88 11.5t70.5 32.5t56 50t42.5 64v497q-18 33 -42 61t-55.5 48.5t-70.5 32t-87 11.5q-76 0 -130.5 -31.5t-89.5 -85.5t-51.5 -125.5t-16.5 -152.5v-21zM1079 -307h-916v151h916v-151z" />
    <glyph glyph-name="Euro" unicode="&#x20ac;" horiz-adv-x="1150" 
d="M849 541h-384q2 -103 27.5 -179t71 -126.5t109 -75t141.5 -24.5q58 0 112.5 8.5t105.5 25.5l20 -160q-56 -14 -116.5 -22t-123.5 -8q-117 0 -215 35t-169 105t-111.5 175.5t-43.5 245.5h-178v124h178v137h-178v125h178q5 136 46 239t112 172t167.5 103.5t212.5 34.5
q63 0 121.5 -8.5t119.5 -22.5l-20 -162q-50 16 -105.5 25.5t-113.5 9.5q-77 0 -139.5 -23.5t-107.5 -72t-71 -122t-29 -173.5h383v-125h-384v-137h384v-124z" />
    <glyph glyph-name="uni2105" unicode="&#x2105;" horiz-adv-x="1512" 
d="M681 1054q0 -52 -19 -98.5t-54.5 -81t-87 -54.5t-115.5 -20q-65 0 -117.5 24t-89 64.5t-56 95t-19.5 115.5v77q0 62 19.5 116.5t56 95.5t88 65t116.5 24t116.5 -20.5t87.5 -55t55 -81.5t19 -99h-139q0 27 -8.5 51.5t-25.5 43t-43 30t-62 11.5q-35 0 -61.5 -15t-44 -40
t-26.5 -58t-9 -68v-77q0 -35 9 -67t27 -57t44.5 -40t62.5 -15q35 0 61 12t43 31.5t25 43t8 47.5h139zM814 357q0 61 20.5 116t59.5 95.5t94 64.5t124 24q70 0 125.5 -24t94 -64.5t59 -95.5t20.5 -116v-78q0 -62 -20.5 -116.5t-58.5 -95t-93.5 -64.5t-124.5 -24
q-70 0 -125.5 24t-94.5 64.5t-59.5 95t-20.5 116.5v78zM953 279q0 -35 10 -67.5t30 -57.5t50 -40t71 -15q40 0 70 15t50 40t29.5 57.5t9.5 67.5v78q0 35 -10 67.5t-30 57.5t-50 40t-71 15q-40 0 -70 -15t-49.5 -40t-29.5 -57.5t-10 -67.5v-78zM445 110l-104 66l711 1138
l104 -66z" />
    <glyph glyph-name="uni2113" unicode="&#x2113;" horiz-adv-x="974" 
d="M716 -21q-102 0 -178 32t-126.5 91.5t-75 143t-24.5 185.5v17q-49 -14 -100.5 -21t-107.5 -7v176q58 0 110 9t98 26v545q0 89 20 159.5t58 119t91.5 74.5t121.5 26q59 0 108.5 -22t85.5 -62.5t56.5 -99.5t20.5 -132v-41q0 -89 -24.5 -183.5t-72.5 -183.5t-118.5 -167
t-161.5 -135v-98q0 -69 11 -123.5t36.5 -92.5t67.5 -58.5t104 -20.5v-157zM497 747q49 47 85.5 103.5t60 115.5t35 118t11.5 112v43q0 82 -24 120t-62 38q-106 0 -106 -221v-429z" />
    <glyph glyph-name="uni2116" unicode="&#x2116;" horiz-adv-x="2106" 
d="M1956 412h-615v142h615v-142zM1305 1127q0 77 24 140.5t68.5 109t107.5 70.5t142 25q80 0 143.5 -25t108 -70.5t68 -109t23.5 -140.5v-98q0 -77 -23.5 -140.5t-68 -108.5t-107.5 -69.5t-142 -24.5q-80 0 -143.5 24.5t-108 69.5t-68.5 108.5t-24 140.5v98zM1468 1029
q0 -46 11 -83.5t33.5 -64.5t56.5 -42t80 -15q45 0 78.5 15t55.5 42t33 64.5t11 83.5v98q0 45 -11 82.5t-33.5 64.5t-56 42t-79.5 15q-45 0 -78.5 -15t-56 -42t-33.5 -64.5t-11 -82.5v-98zM1144 0h-204l-593 1134v-1134h-185v1456h203l596 -1137v1137h183v-1456z" />
    <glyph glyph-name="trademark" unicode="&#x2122;" horiz-adv-x="1281" 
d="M990 1313l-140 -394h-52l-140 393v-393h-90v537h112l144 -399l144 399h112v-537h-90v394zM489 1375h-147v-456h-91v456h-148v81h386v-81z" />
    <glyph glyph-name="estimated" unicode="&#x212e;" horiz-adv-x="1303" 
d="M1046 94q-85 -53 -178 -83.5t-192 -30.5q-72 0 -139.5 20t-125.5 57t-106 88t-82 113.5t-52.5 134t-18.5 148.5t20.5 148.5t57 134t86 113.5t108 88t122.5 57t130 20q103 0 193 -41t157 -113t106 -171t39 -216v-47h-768v-328q55 -51 125 -80.5t148 -29.5q94 0 186.5 29.5
t181.5 92.5zM676 1008q-75 0 -145.5 -32.5t-127.5 -89.5v-277h540v286q-53 52 -121.5 82.5t-145.5 30.5z" />
    <glyph glyph-name="oneeighth" unicode="&#x215b;" horiz-adv-x="1574" 
d="M1439 579q0 -58 -31.5 -102.5t-87.5 -70.5q64 -27 101.5 -75.5t37.5 -114.5q0 -57 -22.5 -99.5t-62.5 -71t-94 -42.5t-117 -14t-117 14t-94 42.5t-62.5 71t-22.5 99.5q0 66 37 114.5t101 75.5q-56 26 -87.5 70.5t-31.5 102.5q0 54 20.5 95t57.5 69t87.5 42.5t110.5 14.5
t111 -14.5t88 -42.5t57.5 -69t20.5 -95zM1302 228q0 52 -39 81t-101 29q-63 0 -100.5 -29t-37.5 -81q0 -53 38 -82t101 -29t101 29t38 82zM1282 570q0 46 -32 73.5t-88 27.5q-55 0 -86.5 -26.5t-31.5 -74.5q0 -46 31.5 -74t87.5 -28t87.5 28t31.5 74zM457 646h-157v601
l-216 -57v128l355 117h18v-789zM393 110l-104 66l711 1138l104 -66z" />
    <glyph glyph-name="threeeighths" unicode="&#x215c;" horiz-adv-x="1751" 
d="M1599 579q0 -58 -31.5 -102.5t-87.5 -70.5q64 -27 101.5 -75.5t37.5 -114.5q0 -57 -22.5 -99.5t-62.5 -71t-94 -42.5t-117 -14t-117 14t-94 42.5t-62.5 71t-22.5 99.5q0 66 37 114.5t101 75.5q-56 26 -87.5 70.5t-31.5 102.5q0 54 20.5 95t57.5 69t87.5 42.5t110.5 14.5
t111 -14.5t88 -42.5t57.5 -69t20.5 -95zM1462 228q0 52 -39 81t-101 29q-63 0 -100.5 -29t-37.5 -81q0 -53 38 -82t101 -29t101 29t38 82zM1442 570q0 46 -32 73.5t-88 27.5q-55 0 -86.5 -26.5t-31.5 -74.5q0 -46 31.5 -74t87.5 -28t87.5 28t31.5 74zM303 1119h84
q74 0 110 30.5t36 78.5q0 45 -31.5 74t-101.5 29q-28 0 -52 -6.5t-42 -18.5t-28 -29t-10 -38h-157q0 51 22 91.5t61 69.5t91.5 44.5t112.5 15.5q65 0 119 -14.5t92.5 -43t60 -70.5t21.5 -97t-35 -100.5t-101 -70.5q77 -21 113 -68t36 -116q0 -56 -23.5 -99t-64.5 -72
t-97 -44.5t-121 -15.5q-56 0 -109.5 13.5t-95.5 42t-67.5 72.5t-25.5 105h158q0 -45 39.5 -75t106.5 -30q70 0 106.5 30t36.5 81q0 62 -43.5 88.5t-116.5 26.5h-84v116zM584 110l-104 66l711 1138l104 -66z" />
    <glyph glyph-name="fiveeighths" unicode="&#x215d;" horiz-adv-x="1743" 
d="M1589 579q0 -58 -31.5 -102.5t-87.5 -70.5q64 -27 101.5 -75.5t37.5 -114.5q0 -57 -22.5 -99.5t-62.5 -71t-94 -42.5t-117 -14t-117 14t-94 42.5t-62.5 71t-22.5 99.5q0 66 37 114.5t101 75.5q-56 26 -87.5 70.5t-31.5 102.5q0 54 20.5 95t57.5 69t87.5 42.5t110.5 14.5
t111 -14.5t88 -42.5t57.5 -69t20.5 -95zM1452 228q0 52 -39 81t-101 29q-63 0 -100.5 -29t-37.5 -81q0 -53 38 -82t101 -29t101 29t38 82zM1432 570q0 46 -32 73.5t-88 27.5q-55 0 -86.5 -26.5t-31.5 -74.5q0 -46 31.5 -74t87.5 -28t87.5 28t31.5 74zM120 1042l50 402h478
v-132h-349l-22 -170q18 8 55.5 18.5t83.5 10.5q128 0 199.5 -68.5t71.5 -189.5q0 -54 -17.5 -103t-54 -85.5t-92 -58.5t-130.5 -22q-56 0 -107.5 15t-92 44t-66 71.5t-28.5 96.5h155q5 -52 42.5 -75.5t96.5 -23.5q36 0 62 11t42.5 30t24.5 45t8 57q0 62 -39 100.5t-113 38.5
q-27 0 -47 -4t-35.5 -10t-27 -13.5t-22.5 -15.5zM550 110l-104 66l711 1138l104 -66z" />
    <glyph glyph-name="seveneighths" unicode="&#x215e;" horiz-adv-x="1642" 
d="M1513 579q0 -58 -31.5 -102.5t-87.5 -70.5q64 -27 101.5 -75.5t37.5 -114.5q0 -57 -22.5 -99.5t-62.5 -71t-94 -42.5t-117 -14t-117 14t-94 42.5t-62.5 71t-22.5 99.5q0 66 37 114.5t101 75.5q-56 26 -87.5 70.5t-31.5 102.5q0 54 20.5 95t57.5 69t87.5 42.5t110.5 14.5
t111 -14.5t88 -42.5t57.5 -69t20.5 -95zM1376 228q0 52 -39 81t-101 29q-63 0 -100.5 -29t-37.5 -81q0 -53 38 -82t101 -29t101 29t38 82zM1356 570q0 46 -32 73.5t-88 27.5q-55 0 -86.5 -26.5t-31.5 -74.5q0 -46 31.5 -74t87.5 -28t87.5 28t31.5 74zM708 1354l-349 -699
h-166l349 659h-453v130h619v-90zM451 110l-104 66l711 1138l104 -66z" />
    <glyph glyph-name="partialdiff" unicode="&#x2202;" horiz-adv-x="1167" 
d="M572 1022q93 0 176 -38.5t141 -106.5q-11 110 -45 198.5t-85 150.5t-115.5 95.5t-135.5 33.5q-80 0 -146.5 -16t-137.5 -43l-16 151q27 12 57.5 24.5t68 22t84 16t106.5 6.5q138 0 241 -59t171.5 -167t103 -261t34.5 -340v-59q0 -138 -33 -257t-95.5 -206.5t-153 -137.5
t-204.5 -50t-203.5 40t-151.5 111t-94.5 167.5t-32.5 209.5v23q0 105 31.5 195t91.5 156t146.5 103.5t196.5 37.5zM590 870q-77 0 -133.5 -27.5t-93 -74.5t-54.5 -108.5t-18 -129.5v-23q0 -76 18 -144.5t54.5 -120t92.5 -82t132 -30.5q78 0 134.5 36t93.5 98.5t55 147
t18 181.5v66q-5 25 -23.5 61.5t-54 69.5t-90 56.5t-131.5 23.5z" />
    <glyph glyph-name="product" unicode="&#x220f;" horiz-adv-x="1422" 
d="M1253 -213h-185v1517h-714v-1517h-185v1669h1084v-1669z" />
    <glyph glyph-name="summation" unicode="&#x2211;" horiz-adv-x="1199" 
d="M875 577l-581 -694h901v-152h-1126v143l609 716l-609 722v144h1049v-152h-825l582 -702v-25z" />
    <glyph glyph-name="minus" unicode="&#x2212;" horiz-adv-x="1170" 
d="M1003 651h-835v151h835v-151z" />
    <glyph glyph-name="radical" unicode="&#x221a;" horiz-adv-x="1221" 
d="M560 284l427 1172h189l-542 -1456h-141l-245 628h-185v154h315z" />
    <glyph glyph-name="infinity" unicode="&#x221e;" horiz-adv-x="2106" 
d="M1995 527q0 -109 -35 -208.5t-98.5 -175t-153.5 -120t-199 -44.5q-93 0 -166.5 33.5t-129.5 85.5t-97.5 116t-69.5 126q-28 -62 -69 -126t-97 -116t-129 -85.5t-166 -33.5q-110 0 -200 44.5t-153.5 120t-98.5 175t-35 208.5v26q0 109 35 208.5t98.5 175t153 120.5
t198.5 45q93 0 166.5 -33.5t130 -86t97.5 -116.5t69 -126q28 62 69.5 126t98 116.5t130.5 86t167 33.5q109 0 198 -45t152.5 -120.5t98.5 -175t35 -208.5v-26zM283 527q0 -81 19.5 -153.5t58 -126.5t94.5 -85.5t130 -31.5q59 0 107.5 23t87 59t67.5 80.5t49.5 88t33 80.5
t17.5 59v42q-5 21 -17.5 57.5t-33 80t-50 88t-68 80.5t-87.5 59t-108 23q-73 0 -129 -32t-94 -86t-57.5 -126t-19.5 -153v-26zM1810 553q0 81 -20 153t-58 126t-93.5 86t-127.5 32q-60 0 -108.5 -23t-87.5 -59t-68.5 -80.5t-50 -88t-33 -80t-17.5 -57.5v-42q5 -22 17.5 -59
t33 -80.5t50 -88t68 -80.5t87 -59t107.5 -23q72 0 128.5 31.5t94.5 85.5t58 126.5t20 153.5v26z" />
    <glyph glyph-name="integral" unicode="&#x222b;" horiz-adv-x="524" 
d="M357 -107q0 -84 -22 -146.5t-63.5 -103t-101 -60.5t-135.5 -20q-30 0 -58 5t-57 15l18 145q7 -2 17.5 -4.5t21.5 -4.5t21.5 -3t18.5 -1q74 0 114.5 42.5t40.5 135.5v1305q0 87 23.5 154t67 112.5t106 69t141.5 23.5q37 0 72.5 -6t71.5 -15l-24 -142q-17 5 -39.5 8
t-51.5 3q-89 0 -135.5 -54.5t-46.5 -152.5v-1305v0z" />
    <glyph glyph-name="approxequal" unicode="&#x2248;" horiz-adv-x="1154" 
d="M102 901q48 51 113.5 80t131.5 29q40 1 69.5 -4.5t55.5 -15.5t51.5 -23.5t57.5 -29.5q30 -15 53.5 -27.5t48 -22t52 -14.5t64.5 -5q66 0 127 34t109 94v-190q-48 -51 -109 -80t-127 -29q-37 0 -64.5 5t-52 14.5t-48 22t-53.5 27.5q-32 16 -57.5 30t-51.5 24t-55.5 15.5
t-69.5 4.5q-66 0 -131.5 -34t-113.5 -94v189zM101 483q48 51 113 80.5t131 29.5q40 1 69.5 -4.5t55.5 -15.5t51.5 -23.5t57.5 -29.5q30 -15 54 -28t48 -22t52 -14.5t65 -5.5q66 0 126.5 34t108.5 94l1 -189q-48 -51 -109 -80t-127 -29q-37 0 -64.5 5t-52 14.5t-48 22
t-53.5 27.5q-32 16 -57.5 29.5t-51.5 23.5t-55.5 15.5t-69.5 4.5q-66 0 -131.5 -34t-113.5 -94v189z" />
    <glyph glyph-name="notequal" unicode="&#x2260;" horiz-adv-x="1124" 
d="M986 399h-531l-141 -243l-95 59l107 184h-174v160h268l149 255h-417v161h511l153 262l94 -59l-119 -203h195v-161h-289l-148 -255h437v-160z" />
    <glyph glyph-name="lessequal" unicode="&#x2264;" horiz-adv-x="1041" 
d="M264 676.576l626 -227.69v-176.393l-818 341.086v131.395l818 340.187v-176.394zM897 2h-835v151h835v-151z" />
    <glyph glyph-name="greaterequal" unicode="&#x2265;" horiz-adv-x="1071" 
d="M795 699.977l-661 233.09v170.993l854 -340.186v-131.396l-854 -341.086v172.793zM968 1h-835v151h835v-151z" />
    <glyph glyph-name="lozenge" unicode="&#x25ca;" horiz-adv-x="1032" 
d="M444 1456h140l404 -729l-400 -727h-141l-404 727zM513 1254l-279 -527l284 -526l280 526z" />
    <glyph glyph-name="colon.lnum" unicode="&#xee01;" horiz-adv-x="588" 
d="M195 305.5q0 53.5 37.5 90.5t91.5 38q54 -1 91.5 -38t37.5 -90.5t-37.5 -91t-90.5 -37.5q-55 0 -92.5 37.5t-37.5 91zM195 1187.5q0 53.5 37.5 90.5t91.5 38q54 -1 91.5 -38t37.5 -90.5t-37.5 -91t-90.5 -37.5q-55 0 -92.5 37.5t-37.5 91z" />
    <glyph glyph-name="quotedblx" unicode="&#xee02;" horiz-adv-x="655" 
d="M251 633h-141v449h141v-449zM563 633h-141v449h141v-449z" />
    <glyph glyph-name="commaaccent" unicode="&#xf6c3;" horiz-adv-x="515" 
d="M343 160q0 -40 -9 -83.5t-27 -86.5t-45.5 -82t-64.5 -69l-105 72q38 58 56 117.5t18 128.5v82h177v-79z" />
    <glyph glyph-name="uniFB02" unicode="&#xfb02;" horiz-adv-x="1208" 
d="M231 0v939h-171v143h171v114q0 87 24.5 154.5t70.5 113.5t112 69.5t149 23.5q64 0 127 -17l-10 -150q-21 4 -47.5 6.5t-52.5 2.5q-90 0 -139 -52.5t-49 -150.5v-114h231v-143h-231v-939h-185zM1052 0h-185v1536h185v-1536z" />
    <glyph glyph-name="uniFB03" unicode="&#xfb03;" horiz-adv-x="1845" 
d="M231 0v939h-171v143h171v114q0 87 24.5 154.5t70.5 113.5t112 69.5t149 23.5q64 0 127 -17l-10 -150q-21 4 -47.5 6.5t-52.5 2.5q-90 0 -139 -52.5t-49 -150.5v-114h231v-143h-231v-939h-185zM913 0v939h-171v143h171v94q0 92 27.5 163t78.5 119.5t124.5 73.5t165.5 25
q73 0 141.5 -17.5t141.5 -43.5l-31 -156q-45 18 -105.5 34t-132.5 16q-119 0 -171.5 -53.5t-52.5 -160.5v-94h221v-143h-221v-939h-186zM1684 0h-186v1082h186v-1082z" />
    <glyph glyph-name="uniFB04" unicode="&#xfb04;" horiz-adv-x="1919" 
d="M231 0v939h-171v143h171v114q0 87 24.5 154.5t70.5 113.5t112 69.5t149 23.5q64 0 127 -17l-10 -150q-21 4 -47.5 6.5t-52.5 2.5q-90 0 -139 -52.5t-49 -150.5v-114h231v-143h-231v-939h-185zM942 0v939h-171v143h171v114q0 87 24.5 154.5t70.5 113.5t112 69.5t149 23.5
q64 0 127 -17l-10 -150q-21 4 -47.5 6.5t-52.5 2.5q-90 0 -139 -52.5t-49 -150.5v-114h231v-143h-231v-939h-185zM1763 0h-185v1536h185v-1536z" />
    <glyph glyph-name="uniFE73" unicode="&#xfe73;" horiz-adv-x="683" 
d="M340 398q1 -81 67 -147q33 -33 83.5 -49.5t118.5 -16.5h67v-176h-136q-167 0 -271 104.5t-104 269.5v26h175v-11z" />
    <glyph glyph-name="uniFEFF" unicode="&#xfeff;" 
 />
    <glyph glyph-name="uniFFFC" unicode="&#xfffc;" horiz-adv-x="2099" 
d="M825 468q0 -49 -16.5 -89t-47 -69t-72.5 -45t-93 -16q-52 0 -94.5 16t-73 45t-47.5 69t-17 89v112q0 48 17 88.5t47 69.5t72.5 45t93.5 16t93.5 -16t73 -45t47.5 -69.5t17 -88.5v-112zM892 252v549h188q98 0 155 -36.5t57 -113.5q0 -38 -21 -69t-63 -47q50 -13 76 -48
t26 -80q0 -77 -52.5 -116t-144.5 -39h-221zM733 580q0 69 -37 108t-102 39q-64 0 -101 -39t-37 -108v-112q0 -69 37 -108t103 -39q64 0 100.5 39t36.5 108v112zM1687 803h92v-378q0 -40 -14 -71.5t-39 -53.5t-59.5 -34t-74.5 -12q-88 0 -142.5 40.5t-54.5 123.5h93
q0 -47 28 -69t76 -22q41 0 68 27t27 71v378zM91 -398v315h113v-202h196v-113h-309zM1720 -398v113h199v202h111v-315h-310zM91 1169v285h309v-116h-196v-169h-113zM1720 1338v116h310v-285h-111v169h-199zM987 496v-169h126q52 0 77.5 22t25.5 61q0 38 -24.5 61t-73.5 25h-5
h-126zM1321 1338v116h278v-116h-278zM922 1338v116h277v-116h-277zM523 1338v116h276v-116h-276zM1321 -398v113h278v-113h-278zM922 -398v113h277v-113h-277zM523 -398v113h276v-113h-276zM987 566h93q118 0 118 80q0 41 -29 56t-89 15h-93v-151zM204 416h-113v252h113
v-252zM204 794h-113v250h113v-250zM204 41h-113v249h113v-249zM2030 416h-111v252h111v-252zM2030 794h-111v250h111v-250zM2030 41h-111v249h111v-249z" />
    <glyph glyph-name="uniFFFD" unicode="&#xfffd;" horiz-adv-x="2101" 
d="M1048 1618l959 -975l-959 -975l-956 975zM1131 402q0 25 2.5 45t10 36.5t20 30.5t33.5 28q34 18 64 44t52.5 57.5t36 68.5t13.5 78q0 64 -21.5 115.5t-62 88t-99.5 56t-133 19.5q-64 0 -119 -15t-96.5 -47.5t-65.5 -83t-25 -120.5h203q1 27 9.5 46.5t23 32t32.5 18.5
t38 6q57 0 85 -32t28 -84t-26.5 -90.5t-66.5 -64.5q-35 -25 -61 -46.5t-43 -47t-25.5 -58.5t-8.5 -81h202zM1131 311h-202v-170h202v170zM1056 -551h4v-4h-4v4zM1054 2163h4v-4h-4v4z" />
    <glyph glyph-name="arabic_dot" horiz-adv-x="204" 
d="M-25 122l91 91q35 34 64 5l98 -97q31 -32 -3 -67l-91 -91q-33 -32 -65 -1l-97 98q-29 29 3 62z" />
    <glyph glyph-name="arabic_2dots" horiz-adv-x="527" 
d="M314 119l91 92q33 32 60 5l97 -97q30 -30 -2 -63l-92 -91q-30 -30 -60 0l-97 97q-25 28 3 57zM-33 119l91 92q33 32 60 5l97 -97q30 -30 -2 -63l-92 -91q-30 -30 -60 0l-97 97q-27 27 3 57z" />
    <glyph glyph-name="arabic_3dots" horiz-adv-x="527" 
d="M316 117l92 92q30 30 55 5l97 -97q28 -28 -2 -58l-92 -92q-28 -28 -56 0l-97 97q-25 25 3 53zM-31 117l92 92q30 30 55 5l97 -97q28 -28 -2 -58l-92 -92q-28 -28 -56 0l-97 97q-24 25 3 53zM142 403l92 92q31 30 55 5l97 -97q28 -28 -2 -58l-92 -92q-28 -28 -55 0l-98 97
q-25 25 3 53z" />
    <glyph glyph-name="arabic_3dots_a" horiz-adv-x="527" 
d="M316 79q-28 28 -3 53l97 97q28 28 56 -1l92 -91q30 -30 2 -58l-97 -97q-24 -25 -55 5zM-31 79q-28 28 -3 53l97 97q28 28 56 -1l92 -91q30 -30 2 -58l-97 -97q-25 -25 -55 5zM142 -207q-28 28 -3 53l98 97q27 28 55 -1l92 -91q30 -30 2 -58l-97 -97q-25 -25 -55 5z" />
    <glyph glyph-name="arabic_gaf_bar" horiz-adv-x="657" 
d="M605 1776l-588 -205v110l588 205v-110z" />
    <glyph glyph-name="NameMe.65562" horiz-adv-x="699" 
d="M705 0h-46q-166 0 -286 139l-2 2l-1 -2q-108 -139 -280 -139h-95q-53 0 -53 86v11q0 42 13 63q14 20 40 20h93q203 0 203 257v687h166v-688q0 -127 53 -192q53 -64 159 -64h36q23 0 23 -83v-11q0 -86 -23 -86z" />
    <glyph glyph-name="NameMe.65541" horiz-adv-x="677" 
d="M-5 0q-53 0 -53 86v11q0 83 53 83h203q202 0 202 193v294h174v-295q0 -372 -377 -372h-202z" />
    <glyph glyph-name="NameMe.65542" horiz-adv-x="827" 
d="M832 0h-21q-218 0 -308 136q-105 -136 -357 -136h-151q-53 0 -53 86v11q0 42 13.5 62.5t39.5 20.5h156q256 0 256 195v258h176v-258q0 -195 227 -195h22q23 0 23 -83v-11q0 -86 -23 -86z" />
    <glyph glyph-name="NameMe.65564" horiz-adv-x="557" 
d="M563 0h-76q-326 0 -326 375v758h169v-759q0 -194 160 -194h73q23 0 23 -83v-11q0 -44 -6 -65t-17 -21z" />
    <glyph glyph-name="NameMe.65565" horiz-adv-x="867" 
d="M285 -132q35 -16 110 -16h52q215 0 215 88v6q0 41 -58 41h-92q-102 0 -102 99v38q0 132 133 179q47 17 112 17h115l1 -116h-5h-135q-110 0 -112 -77v-30h86q166 0 166 -131v-16q0 -211 -329 -211h-48q-87 0 -136 17z" />
    <glyph glyph-name="zero.sup" horiz-adv-x="751" 
d="M669 325q0 -86 -21 -149t-59 -104.5t-92.5 -62t-120.5 -20.5t-120.5 20.5t-93.5 62t-60.5 104.5t-21.5 149v138q0 85 21 148.5t60 105.5t93 62.5t120 20.5q67 0 121.5 -20.5t93 -62.5t59.5 -105.5t21 -148.5v-138zM512 478q0 100 -35.5 146t-102.5 46q-66 0 -101.5 -46
t-35.5 -146v-167q0 -101 36.5 -147.5t102.5 -46.5t101 46.5t35 147.5v167z" />
    <glyph glyph-name="largerighthook" horiz-adv-x="779" 
d="M-94 833h213q141 0 251.5 -39t187.5 -113.5t117.5 -181.5t40.5 -243q0 -130 -30.5 -231.5t-90 -171t-148 -106t-204.5 -36.5l-2 147q80 0 135.5 28.5t89.5 80.5t49 125.5t15 163.5q-1 203 -103 309t-308 106h-213v162z" />
    <glyph glyph-name="circumflexgravecomb" horiz-adv-x="1011" 
d="M838 1233h-197l-170 158l-170 -158h-196l290 263h152zM178 1408h-140l-200 258h199z" />
    <glyph glyph-name="circumflexacutecomb" horiz-adv-x="1007" 
d="M402 1514h152l290 -262h-197l-169 158l-170 -158h-198zM912 1685h200l-201 -259h-141z" />
    <glyph glyph-name="brevegravecomb" horiz-adv-x="932" 
d="M767 1456q0 -59 -23.5 -107.5t-67.5 -84t-106.5 -55t-140.5 -19.5t-140.5 19.5t-106.5 55t-67.5 84t-23.5 107.5h150q0 -30 10 -56.5t32.5 -47t58 -32.5t87.5 -12q51 0 86.5 12t58 32.5t32.5 47t10 56.5h151zM513 1451h-151l-210 206h216z" />
    <glyph glyph-name="commaaccentrotate" horiz-adv-x="509" 
d="M159 1295q0 45 13 89.5t33.5 84.5t45 72.5t48.5 53.5l107 -83q-35 -59 -48.5 -112t-13.5 -114v-120h-185v129z" />
    <glyph glyph-name="onequarter.ref1" horiz-adv-x="2048" 
d="M1318 299h107v-130h-107v-169h-157v169h-375l-6 102l377 518h161v-490zM938 299h223v289l-17 -28zM458 664h-157v601l-216 -57v128l355 117h18v-789z" />
    <glyph glyph-name="onehalf.ref1" horiz-adv-x="2048" 
d="M1481 0h-599v108l288 271q67 61 94 105t27 77q0 49 -32 79.5t-92 30.5q-75 0 -110.5 -38t-35.5 -95h-157q0 54 20.5 101.5t59 83t94 56.5t125.5 21q67 0 120 -16.5t90 -47.5t56.5 -75t19.5 -98q0 -40 -13.5 -75.5t-38 -70t-60 -69.5t-79.5 -75l-176 -145h399v-128z
M453 664h-157v601l-216 -57v128l355 117h18v-789z" />
    <glyph glyph-name="threequarters.ref1" horiz-adv-x="2048" 
d="M1410 299h107v-130h-107v-169h-157v169h-375l-6 102l377 518h161v-490zM1030 299h223v289l-17 -28zM314 1126h84q74 0 110 30.5t36 78.5q0 45 -31.5 74t-101.5 29q-28 0 -52 -6.5t-42 -18.5t-28 -29t-10 -38h-157q0 51 22 91.5t61 69.5t91.5 44.5t112.5 15.5
q65 0 119 -14.5t92.5 -43t60 -70.5t21.5 -97t-35 -100.5t-101 -70.5q77 -21 113 -68t36 -116q0 -56 -23.5 -99t-64.5 -72t-97 -44.5t-121 -15.5q-56 0 -109.5 13.5t-95.5 42t-67.5 72.5t-25.5 105h158q0 -45 39.5 -75t106.5 -30q70 0 106.5 30t36.5 81q0 62 -43.5 88.5
t-116.5 26.5h-84v116z" />
    <glyph glyph-name="franc.ref1" horiz-adv-x="2048" 
d="M654 266h-636v151h636v-151z" />
    <glyph glyph-name="uni20AB.ref1" horiz-adv-x="2048" 
d="M1196 1234h-636v151h636v-151z" />
    <glyph glyph-name="oneeighth.ref1" horiz-adv-x="2048" 
d="M1439 579q0 -58 -31.5 -102.5t-87.5 -70.5q64 -27 101.5 -75.5t37.5 -114.5q0 -57 -22.5 -99.5t-62.5 -71t-94 -42.5t-117 -14t-117 14t-94 42.5t-62.5 71t-22.5 99.5q0 66 37 114.5t101 75.5q-56 26 -87.5 70.5t-31.5 102.5q0 54 20.5 95t57.5 69t87.5 42.5t110.5 14.5
t111 -14.5t88 -42.5t57.5 -69t20.5 -95zM1302 228q0 52 -39 81t-101 29q-63 0 -100.5 -29t-37.5 -81q0 -53 38 -82t101 -29t101 29t38 82zM1282 570q0 46 -32 73.5t-88 27.5q-55 0 -86.5 -26.5t-31.5 -74.5q0 -46 31.5 -74t87.5 -28t87.5 28t31.5 74zM457 646h-157v601
l-216 -57v128l355 117h18v-789z" />
    <glyph glyph-name="threeeighths.ref1" horiz-adv-x="2048" 
d="M1599 579q0 -58 -31.5 -102.5t-87.5 -70.5q64 -27 101.5 -75.5t37.5 -114.5q0 -57 -22.5 -99.5t-62.5 -71t-94 -42.5t-117 -14t-117 14t-94 42.5t-62.5 71t-22.5 99.5q0 66 37 114.5t101 75.5q-56 26 -87.5 70.5t-31.5 102.5q0 54 20.5 95t57.5 69t87.5 42.5t110.5 14.5
t111 -14.5t88 -42.5t57.5 -69t20.5 -95zM1462 228q0 52 -39 81t-101 29q-63 0 -100.5 -29t-37.5 -81q0 -53 38 -82t101 -29t101 29t38 82zM1442 570q0 46 -32 73.5t-88 27.5q-55 0 -86.5 -26.5t-31.5 -74.5q0 -46 31.5 -74t87.5 -28t87.5 28t31.5 74zM303 1119h84
q74 0 110 30.5t36 78.5q0 45 -31.5 74t-101.5 29q-28 0 -52 -6.5t-42 -18.5t-28 -29t-10 -38h-157q0 51 22 91.5t61 69.5t91.5 44.5t112.5 15.5q65 0 119 -14.5t92.5 -43t60 -70.5t21.5 -97t-35 -100.5t-101 -70.5q77 -21 113 -68t36 -116q0 -56 -23.5 -99t-64.5 -72
t-97 -44.5t-121 -15.5q-56 0 -109.5 13.5t-95.5 42t-67.5 72.5t-25.5 105h158q0 -45 39.5 -75t106.5 -30q70 0 106.5 30t36.5 81q0 62 -43.5 88.5t-116.5 26.5h-84v116z" />
    <glyph glyph-name="fiveeighths.ref1" horiz-adv-x="2048" 
d="M1589 579q0 -58 -31.5 -102.5t-87.5 -70.5q64 -27 101.5 -75.5t37.5 -114.5q0 -57 -22.5 -99.5t-62.5 -71t-94 -42.5t-117 -14t-117 14t-94 42.5t-62.5 71t-22.5 99.5q0 66 37 114.5t101 75.5q-56 26 -87.5 70.5t-31.5 102.5q0 54 20.5 95t57.5 69t87.5 42.5t110.5 14.5
t111 -14.5t88 -42.5t57.5 -69t20.5 -95zM1452 228q0 52 -39 81t-101 29q-63 0 -100.5 -29t-37.5 -81q0 -53 38 -82t101 -29t101 29t38 82zM1432 570q0 46 -32 73.5t-88 27.5q-55 0 -86.5 -26.5t-31.5 -74.5q0 -46 31.5 -74t87.5 -28t87.5 28t31.5 74zM120 1042l50 402h478
v-132h-349l-22 -170q18 8 55.5 18.5t83.5 10.5q128 0 199.5 -68.5t71.5 -189.5q0 -54 -17.5 -103t-54 -85.5t-92 -58.5t-130.5 -22q-56 0 -107.5 15t-92 44t-66 71.5t-28.5 96.5h155q5 -52 42.5 -75.5t96.5 -23.5q36 0 62 11t42.5 30t24.5 45t8 57q0 62 -39 100.5t-113 38.5
q-27 0 -47 -4t-35.5 -10t-27 -13.5t-22.5 -15.5z" />
    <glyph glyph-name="seveneighths.ref1" horiz-adv-x="2048" 
d="M1513 579q0 -58 -31.5 -102.5t-87.5 -70.5q64 -27 101.5 -75.5t37.5 -114.5q0 -57 -22.5 -99.5t-62.5 -71t-94 -42.5t-117 -14t-117 14t-94 42.5t-62.5 71t-22.5 99.5q0 66 37 114.5t101 75.5q-56 26 -87.5 70.5t-31.5 102.5q0 54 20.5 95t57.5 69t87.5 42.5t110.5 14.5
t111 -14.5t88 -42.5t57.5 -69t20.5 -95zM1376 228q0 52 -39 81t-101 29q-63 0 -100.5 -29t-37.5 -81q0 -53 38 -82t101 -29t101 29t38 82zM1356 570q0 46 -32 73.5t-88 27.5q-55 0 -86.5 -26.5t-31.5 -74.5q0 -46 31.5 -74t87.5 -28t87.5 28t31.5 74zM708 1354l-349 -699
h-166l349 659h-453v130h619v-90z" />
    </font>
</defs>
</svg>
